Cutive-Mono-Regular.ufo
<glyph name="exclam" format="1">
  <advance width="1241.0"/>
  <unicode hex="0021"/>
  <outline>
    <contour>
      <point x="685.5" y="1103" type="curve" smooth="yes"/>
      <point x="685.5" y="872"/>
      <point x="645.5" y="626"/>
      <point x="645.5" y="380" type="curve" smooth="yes"/>
      <point x="645.5" y="353"/>
      <point x="637.5" y="344"/>
      <point x="621.5" y="344" type="curve" smooth="yes"/>
      <point x="605.5" y="344"/>
      <point x="597.5" y="354"/>
      <point x="597.5" y="380" type="curve" smooth="yes"/>
      <point x="597.5" y="628"/>
      <point x="556.5" y="869"/>
      <point x="556.5" y="1103" type="curve" smooth="yes"/>
      <point x="556.5" y="1170"/>
      <point x="584.5" y="1187"/>
      <point x="622.5" y="1187" type="curve" smooth="yes"/>
      <point x="658.5" y="1187"/>
      <point x="685.5" y="1170"/>
    </contour>
    <contour>
      <point x="621.0" y="-9" type="curve" smooth="yes"/>
      <point x="564.0" y="-9"/>
      <point x="519.0" y="36"/>
      <point x="519.0" y="93" type="curve" smooth="yes"/>
      <point x="519.0" y="150"/>
      <point x="564.0" y="193"/>
      <point x="621.0" y="193" type="curve" smooth="yes"/>
      <point x="678.0" y="193"/>
      <point x="722.0" y="150"/>
      <point x="722.0" y="93" type="curve" smooth="yes"/>
      <point x="722.0" y="36"/>
      <point x="678.0" y="-9"/>
    </contour>
  </outline>
</glyph>
<glyph name="quotedbl" format="1">
  <advance width="1240.48171917"/>
  <unicode hex="0022"/>
  <outline>
    <contour>
      <point x="752.204617686" y="721" type="line" smooth="yes"/>
      <point x="750.204617686" y="694"/>
      <point x="705.204617686" y="694"/>
      <point x="703.204617686" y="721" type="curve" smooth="yes"/>
      <point x="671.204617686" y="1117" type="line" smooth="yes"/>
      <point x="665.204617686" y="1191"/>
      <point x="793.204617686" y="1190"/>
      <point x="786.204617686" y="1116" type="curve" smooth="yes"/>
    </contour>
    <contour>
      <point x="535.204617686" y="721" type="line" smooth="yes"/>
      <point x="533.204617686" y="694"/>
      <point x="488.204617686" y="694"/>
      <point x="486.204617686" y="721" type="curve" smooth="yes"/>
      <point x="454.204617686" y="1117" type="line" smooth="yes"/>
      <point x="448.204617686" y="1191"/>
      <point x="576.204617686" y="1190"/>
      <point x="569.204617686" y="1116" type="curve" smooth="yes"/>
    </contour>
  </outline>
</glyph>
<glyph name="numbersign" format="1">
  <advance width="1240"/>
  <unicode hex="0023"/>
  <outline>
    <contour>
      <point x="584" y="-89"/>
      <point x="584" y="-91"/>
      <point x="584" y="-94" type="curve" smooth="yes"/>
      <point x="584" y="-112"/>
      <point x="602" y="-123"/>
      <point x="621" y="-123" type="curve" smooth="yes"/>
      <point x="639" y="-123"/>
      <point x="657" y="-114"/>
      <point x="662" y="-94" type="curve" smooth="yes"/>
      <point x="784" y="385" type="line"/>
      <point x="959" y="385" type="line" smooth="yes"/>
      <point x="980" y="385"/>
      <point x="990" y="406"/>
      <point x="990" y="428" type="curve" smooth="yes"/>
      <point x="990" y="449"/>
      <point x="980" y="470"/>
      <point x="959" y="470" type="curve" smooth="yes"/>
      <point x="805" y="470" type="line"/>
      <point x="861" y="689" type="line"/>
      <point x="1002" y="689" type="line" smooth="yes"/>
      <point x="1022" y="689"/>
      <point x="1032" y="710"/>
      <point x="1032" y="731" type="curve" smooth="yes"/>
      <point x="1032" y="752"/>
      <point x="1022" y="774"/>
      <point x="1001" y="774" type="curve" smooth="yes"/>
      <point x="882" y="774" type="line"/>
      <point x="1008" y="1270" type="line" smooth="yes"/>
      <point x="1009" y="1272"/>
      <point x="1009" y="1275"/>
      <point x="1009" y="1277" type="curve" smooth="yes"/>
      <point x="1009" y="1296"/>
      <point x="988" y="1308"/>
      <point x="968" y="1308" type="curve" smooth="yes"/>
      <point x="951" y="1308"/>
      <point x="935" y="1300"/>
      <point x="930" y="1282" type="curve" smooth="yes"/>
      <point x="802" y="774" type="line"/>
      <point x="545" y="774" type="line"/>
      <point x="671" y="1270" type="line" smooth="yes"/>
      <point x="672" y="1272"/>
      <point x="672" y="1275"/>
      <point x="672" y="1277" type="curve" smooth="yes"/>
      <point x="672" y="1296"/>
      <point x="651" y="1308"/>
      <point x="631" y="1308" type="curve" smooth="yes"/>
      <point x="614" y="1308"/>
      <point x="598" y="1300"/>
      <point x="593" y="1282" type="curve" smooth="yes"/>
      <point x="465" y="774" type="line"/>
      <point x="292" y="774" type="line" smooth="yes"/>
      <point x="272" y="774"/>
      <point x="261" y="753"/>
      <point x="261" y="732" type="curve" smooth="yes"/>
      <point x="261" y="710"/>
      <point x="272" y="689"/>
      <point x="292" y="689" type="curve" smooth="yes"/>
      <point x="443" y="689" type="line"/>
      <point x="388" y="470" type="line"/>
      <point x="250" y="470" type="line" smooth="yes"/>
      <point x="230" y="470"/>
      <point x="219" y="449"/>
      <point x="219" y="428" type="curve" smooth="yes"/>
      <point x="219" y="406"/>
      <point x="230" y="385"/>
      <point x="250" y="385" type="curve" smooth="yes"/>
      <point x="367" y="385" type="line"/>
      <point x="248" y="-86" type="line" smooth="yes"/>
      <point x="247" y="-89"/>
      <point x="247" y="-91"/>
      <point x="247" y="-94" type="curve" smooth="yes"/>
      <point x="247" y="-112"/>
      <point x="265" y="-123"/>
      <point x="284" y="-123" type="curve" smooth="yes"/>
      <point x="302" y="-123"/>
      <point x="320" y="-114"/>
      <point x="325" y="-94" type="curve" smooth="yes"/>
      <point x="447" y="385" type="line"/>
      <point x="704" y="385" type="line"/>
      <point x="585" y="-86" type="line" smooth="yes"/>
    </contour>
    <contour>
      <point x="468" y="470" type="line"/>
      <point x="524" y="689" type="line"/>
      <point x="780" y="689" type="line"/>
      <point x="725" y="470" type="line"/>
    </contour>
  </outline>
</glyph>
<glyph name="dollar" format="1">
  <advance width="1240"/>
  <unicode hex="0024"/>
  <outline>
    <contour>
      <point x="640" y="1315" type="line" smooth="yes"/>
      <point x="640" y="1334"/>
      <point x="657" y="1344"/>
      <point x="674" y="1344" type="curve" smooth="yes"/>
      <point x="690" y="1344"/>
      <point x="707" y="1334"/>
      <point x="707" y="1315" type="curve" smooth="yes"/>
      <point x="707" y="-141" type="line" smooth="yes"/>
      <point x="707" y="-158"/>
      <point x="690" y="-167"/>
      <point x="674" y="-167" type="curve" smooth="yes"/>
      <point x="657" y="-167"/>
      <point x="640" y="-158"/>
      <point x="640" y="-141" type="curve" smooth="yes"/>
    </contour>
    <component base="S"/>
  </outline>
</glyph>
<glyph name="quotesingle" format="1">
  <advance width="1241.48171917"/>
  <unicode hex="0027"/>
  <outline>
    <contour>
      <point x="644.204617686" y="721" type="line" smooth="yes"/>
      <point x="642.204617686" y="694"/>
      <point x="597.204617686" y="694"/>
      <point x="595.204617686" y="721" type="curve" smooth="yes"/>
      <point x="563.204617686" y="1117" type="line" smooth="yes"/>
      <point x="557.204617686" y="1191"/>
      <point x="685.204617686" y="1190"/>
      <point x="678.204617686" y="1116" type="curve" smooth="yes"/>
    </contour>
  </outline>
</glyph>
<glyph name="parenleft" format="1">
  <advance width="1240"/>
  <unicode hex="0028"/>
  <outline>
    <contour>
      <point x="444" y="570" type="line"/>
      <point x="444" y="853"/>
      <point x="509" y="1079"/>
      <point x="652" y="1267" type="curve" smooth="yes"/>
      <point x="687" y="1313"/>
      <point x="749" y="1252"/>
      <point x="724" y="1222" type="curve" smooth="yes"/>
      <point x="598" y="1074"/>
      <point x="538" y="826"/>
      <point x="538" y="570" type="curve"/>
    </contour>
  </outline>
</glyph>
<glyph name="parenright" format="1">
  <advance width="1240"/>
  <unicode hex="0029"/>
  <outline>
    <contour>
      <point x="52" y="1356" type="curve" smooth="yes"/>
      <point x="52" y="1393"/>
      <point x="87" y="1420"/>
      <point x="124" y="1420" type="curve" smooth="yes"/>
      <point x="139" y="1420"/>
      <point x="158" y="1410"/>
      <point x="182" y="1389" type="curve" smooth="yes"/>
      <point x="370" y="1226"/>
      <point x="484" y="874"/>
      <point x="484" y="530" type="curve" smooth="yes"/>
      <point x="484" y="214"/>
      <point x="387" y="-50"/>
      <point x="258" y="-238" type="curve" smooth="yes"/>
      <point x="227" y="-283"/>
      <point x="177" y="-359"/>
      <point x="124" y="-359" type="curve" smooth="yes"/>
      <point x="87" y="-359"/>
      <point x="52" y="-332"/>
      <point x="52" y="-295" type="curve" smooth="yes"/>
      <point x="52" y="-279"/>
      <point x="59" y="-263"/>
      <point x="72" y="-247" type="curve" smooth="yes"/>
      <point x="222" y="-73"/>
      <point x="332" y="211"/>
      <point x="332" y="530" type="curve" smooth="yes"/>
      <point x="332" y="850"/>
      <point x="222" y="1134"/>
      <point x="72" y="1308" type="curve" smooth="yes"/>
      <point x="59" y="1324"/>
      <point x="52" y="1340"/>
    </contour>
  </outline>
</glyph>
<glyph name="plus" format="1">
  <advance width="1240"/>
  <unicode hex="002B"/>
  <outline>
    <contour>
      <point x="1009" y="538" type="line" smooth="yes"/>
      <point x="1037" y="538"/>
      <point x="1060" y="515"/>
      <point x="1060" y="488" type="curve" smooth="yes"/>
      <point x="1060" y="460"/>
      <point x="1037" y="437"/>
      <point x="1009" y="437" type="curve" smooth="yes"/>
      <point x="754" y="437" type="line"/>
      <point x="754" y="176" type="line" smooth="yes"/>
      <point x="754" y="146"/>
      <point x="730" y="122"/>
      <point x="700" y="122" type="curve" smooth="yes"/>
      <point x="670" y="122"/>
      <point x="646" y="146"/>
      <point x="646" y="176" type="curve" smooth="yes"/>
      <point x="646" y="437" type="line"/>
      <point x="389" y="437" type="line" smooth="yes"/>
      <point x="361" y="437"/>
      <point x="339" y="460"/>
      <point x="339" y="488" type="curve" smooth="yes"/>
      <point x="339" y="515"/>
      <point x="361" y="538"/>
      <point x="389" y="538" type="curve" smooth="yes"/>
      <point x="646" y="538" type="line"/>
      <point x="646" y="804" type="line" smooth="yes"/>
      <point x="646" y="834"/>
      <point x="670" y="858"/>
      <point x="700" y="858" type="curve" smooth="yes"/>
      <point x="730" y="858"/>
      <point x="754" y="834"/>
      <point x="754" y="804" type="curve" smooth="yes"/>
      <point x="754" y="538" type="line"/>
    </contour>
  </outline>
</glyph>
<glyph name="comma" format="1">
  <advance width="1240"/>
  <unicode hex="002C"/>
  <outline>
    <contour>
      <point x="616" y="180" type="curve" smooth="yes"/>
      <point x="676" y="180"/>
      <point x="728" y="139"/>
      <point x="728" y="59" type="curve" smooth="yes"/>
      <point x="728" y="-57"/>
      <point x="625" y="-167"/>
      <point x="543" y="-208" type="curve" smooth="yes"/>
      <point x="519" y="-220"/>
      <point x="488" y="-183"/>
      <point x="517" y="-162" type="curve" smooth="yes"/>
      <point x="560" y="-131"/>
      <point x="626" y="-70"/>
      <point x="626" y="-8" type="curve"/>
      <point x="567" y="-8"/>
      <point x="518" y="20"/>
      <point x="518" y="85" type="curve" smooth="yes"/>
      <point x="518" y="149"/>
      <point x="569" y="180"/>
    </contour>
  </outline>
</glyph>
<glyph name="hyphen" format="1">
  <advance width="1240"/>
  <unicode hex="002D"/>
  <outline>
    <contour>
      <point x="376" y="488" type="curve" smooth="yes"/>
      <point x="376" y="526"/>
      <point x="408" y="558"/>
      <point x="446" y="558" type="curve" smooth="yes"/>
      <point x="953" y="558" type="line" smooth="yes"/>
      <point x="991" y="558"/>
      <point x="1022" y="526"/>
      <point x="1022" y="488" type="curve" smooth="yes"/>
      <point x="1022" y="449"/>
      <point x="992" y="418"/>
      <point x="953" y="418" type="curve" smooth="yes"/>
      <point x="446" y="418" type="line" smooth="yes"/>
      <point x="407" y="418"/>
      <point x="376" y="449"/>
    </contour>
  </outline>
</glyph>
<glyph name="period" format="1">
  <advance width="1240"/>
  <unicode hex="002E"/>
  <outline>
    <contour>
      <point x="619.5" y="-16" type="curve" smooth="yes"/>
      <point x="558.5" y="-16"/>
      <point x="514.5" y="28"/>
      <point x="514.5" y="89" type="curve" smooth="yes"/>
      <point x="514.5" y="150"/>
      <point x="559.5" y="195"/>
      <point x="619.5" y="195" type="curve" smooth="yes"/>
      <point x="679.5" y="195"/>
      <point x="725.5" y="149"/>
      <point x="725.5" y="89" type="curve" smooth="yes"/>
      <point x="725.5" y="28"/>
      <point x="679.5" y="-16"/>
    </contour>
  </outline>
</glyph>
<glyph name="slash" format="1">
  <advance width="1240"/>
  <unicode hex="002F"/>
  <outline>
    <contour>
      <point x="116" y="-214" type="curve" smooth="yes"/>
      <point x="84" y="-214"/>
      <point x="44" y="-189"/>
      <point x="44" y="-156" type="curve" smooth="yes"/>
      <point x="44" y="-148"/>
      <point x="47" y="-142"/>
      <point x="50" y="-135" type="curve" smooth="yes"/>
      <point x="723" y="1264" type="line" smooth="yes"/>
      <point x="731" y="1282"/>
      <point x="746" y="1291"/>
      <point x="766" y="1291" type="curve" smooth="yes"/>
      <point x="797" y="1291"/>
      <point x="835" y="1266"/>
      <point x="835" y="1232" type="curve" smooth="yes"/>
      <point x="835" y="1225"/>
      <point x="834" y="1220"/>
      <point x="831" y="1213" type="curve" smooth="yes"/>
      <point x="162" y="-182" type="line" smooth="yes"/>
      <point x="152" y="-202"/>
      <point x="140" y="-214"/>
    </contour>
  </outline>
</glyph>
<glyph name="one" format="1">
  <advance width="1240"/>
  <unicode hex="0031"/>
  <outline>
    <contour>
      <point x="735.0" y="1130.0" type="curve" smooth="yes"/>
      <point x="735" y="82" type="line"/>
      <point x="1075" y="82" type="line" smooth="yes"/>
      <point x="1101" y="82"/>
      <point x="1114" y="61"/>
      <point x="1114" y="41" type="curve" smooth="yes"/>
      <point x="1114" y="20"/>
      <point x="1101" y="0"/>
      <point x="1074" y="0" type="curve" smooth="yes"/>
      <point x="274" y="0" type="line" smooth="yes"/>
      <point x="243" y="0"/>
      <point x="228" y="21"/>
      <point x="228" y="42" type="curve" smooth="yes"/>
      <point x="228" y="62"/>
      <point x="242" y="82"/>
      <point x="270" y="82" type="curve" smooth="yes"/>
      <point x="639" y="82" type="line"/>
      <point x="639" y="1069" type="line"/>
      <point x="304" y="917" type="line" smooth="yes"/>
      <point x="298.20753479" y="914.465789795"/>
      <point x="292.604385376" y="913.329620361"/>
      <point x="287.315338135" y="913.329620361" type="curve" smooth="yes"/>
      <point x="263.709686279" y="913.329620361"/>
      <point x="246.360519409" y="935.961517334"/>
      <point x="246.360519409" y="957.946258545" type="curve" smooth="yes"/>
      <point x="246.360519409" y="971.85458374"/>
      <point x="253.304138184" y="985.503890991"/>
      <point x="270.0" y="993.0" type="curve" smooth="yes"/>
      <point x="674.0" y="1173.0" type="line" smooth="yes"/>
      <point x="680.157485962" y="1175.82217407"/>
      <point x="687.170669556" y="1177.39370728"/>
      <point x="694.195175171" y="1177.39370728" type="curve" smooth="yes"/>
      <point x="714.550079346" y="1177.39370728"/>
      <point x="735.0" y="1164.19816589"/>
    </contour>
  </outline>
</glyph>
<glyph name="two" format="1">
  <advance width="1240"/>
  <unicode hex="0032"/>
  <outline>
    <contour>
      <point x="611.5" y="1187.00097656" type="curve" smooth="yes"/>
      <point x="808.0" y="1187.00097656"/>
      <point x="944.72265625" y="1101.44238281"/>
      <point x="944.72265625" y="914.149414062" type="curve" smooth="yes"/>
      <point x="944.72265625" y="611.149414062"/>
      <point x="470.72265625" y="376.149414062"/>
      <point x="366.72265625" y="82.1494140625" type="curve"/>
      <point x="862.72265625" y="82.1494140625" type="line"/>
      <point x="874.72265625" y="264.149414062" type="line" smooth="yes"/>
      <point x="876.41796875" y="292.009765625"/>
      <point x="902.12890625" y="309.470703125"/>
      <point x="926.514648438" y="309.470703125" type="curve" smooth="yes"/>
      <point x="949.262695312" y="309.470703125"/>
      <point x="970.856445312" y="294.275390625"/>
      <point x="970.72265625" y="258.149414062" type="curve"/>
      <point x="970.72265625" y="50.1494140625" type="line" smooth="yes"/>
      <point x="971.0" y="19.0"/>
      <point x="947.72265625" y="0.1494140625"/>
      <point x="916.72265625" y="0.1494140625" type="curve" smooth="yes"/>
      <point x="278.72265625" y="0.1494140625" type="line"/>
      <point x="275.755859375" y="12.015625"/>
      <point x="272.323242188" y="21.876953125"/>
      <point x="272.323242188" y="36.869140625" type="curve" smooth="yes"/>
      <point x="272.323242188" y="340.2578125"/>
      <point x="848.72265625" y="640.7109375"/>
      <point x="848.72265625" y="907.149414062" type="curve" smooth="yes"/>
      <point x="848.72265625" y="1055.9765625"/>
      <point x="755.03125" y="1101.02539062"/>
      <point x="597.073242188" y="1101.02539062" type="curve" smooth="yes"/>
      <point x="530.073242188" y="1101.02539062"/>
      <point x="460.5" y="1090.00097656"/>
      <point x="389.5" y="1055.00097656" type="curve"/>
      <point x="374.5" y="933.000976562"/>
      <point x="371.5" y="858.000976562"/>
      <point x="323.5" y="858.000976562" type="curve" smooth="yes"/>
      <point x="282.5" y="858.000976562"/>
      <point x="263.5" y="893.000976562"/>
      <point x="263.5" y="938.000976562" type="curve" smooth="yes"/>
      <point x="263.5" y="1118.00097656"/>
      <point x="404.5" y="1187.00097656"/>
    </contour>
  </outline>
</glyph>
<glyph name="three" format="1">
  <advance width="1240"/>
  <unicode hex="0033"/>
  <outline>
    <contour>
      <point x="502.525390625" y="600.506835938" type="curve" smooth="yes"/>
      <point x="479.24609375" y="600.506835938"/>
      <point x="465.0" y="613.149414062"/>
      <point x="465.0" y="638.0" type="curve" smooth="yes"/>
      <point x="465.0" y="650.0"/>
      <point x="474.188476562" y="665.512695312"/>
      <point x="496.0" y="679.0" type="curve" smooth="yes"/>
      <point x="654.700408936" y="777.133483887"/>
      <point x="787.0" y="834.0"/>
      <point x="787.0" y="959.0" type="curve" smooth="yes"/>
      <point x="787.0" y="1032.04814148"/>
      <point x="734.952148438" y="1101.97851562"/>
      <point x="612.895507812" y="1102.0" type="curve" smooth="yes"/>
      <point x="390.0" y="1102.0390625"/>
      <point x="450.0" y="1004.0"/>
      <point x="348.0" y="1004.0" type="curve" smooth="yes"/>
      <point x="321.0" y="1004.0"/>
      <point x="307.0" y="1022.0"/>
      <point x="307.0" y="1037.0" type="curve" smooth="yes"/>
      <point x="307.0" y="1133.0"/>
      <point x="512.0" y="1187.0"/>
      <point x="615.0" y="1187.0" type="curve" smooth="yes"/>
      <point x="765.0" y="1187.0"/>
      <point x="883.0" y="1104.0"/>
      <point x="883.0" y="959.0" type="curve" smooth="yes"/>
      <point x="883.0" y="799.370117188"/>
      <point x="697.0" y="710.0"/>
      <point x="625.0" y="675.0" type="curve"/>
      <point x="835.0" y="675.0"/>
      <point x="950.0" y="544.0"/>
      <point x="950.0" y="360.0" type="curve" smooth="yes"/>
      <point x="950.0" y="139.0"/>
      <point x="771.0" y="-17.0"/>
      <point x="544.0" y="-17.0" type="curve" smooth="yes"/>
      <point x="408.0" y="-17.0"/>
      <point x="263.0" y="46.0"/>
      <point x="263.0" y="108.0" type="curve" smooth="yes"/>
      <point x="263.0" y="119.0"/>
      <point x="278.0" y="141.0"/>
      <point x="301.0" y="141.0" type="curve" smooth="yes"/>
      <point x="388.28125" y="141.0"/>
      <point x="378.0" y="69.0"/>
      <point x="547.0" y="69.0" type="curve" smooth="yes"/>
      <point x="736.0" y="69.0"/>
      <point x="854.0" y="195.0"/>
      <point x="854.0" y="366.0" type="curve" smooth="yes"/>
      <point x="854.0" y="517.106491089"/>
      <point x="755.626480103" y="609.48588562"/>
      <point x="602.135696411" y="609.48588562" type="curve" smooth="yes"/>
      <point x="572.792984009" y="609.48588562"/>
      <point x="515.0" y="600.506835938"/>
    </contour>
  </outline>
</glyph>
<glyph name="four" format="1">
  <advance width="1240"/>
  <unicode hex="0034"/>
  <outline>
    <contour>
      <point x="707" y="1004" type="line"/>
      <point x="309" y="430" type="line"/>
      <point x="707" y="430" type="line"/>
    </contour>
    <contour>
      <point x="420" y="0" type="line" smooth="yes"/>
      <point x="404" y="0"/>
      <point x="395" y="17"/>
      <point x="395" y="34" type="curve" smooth="yes"/>
      <point x="395" y="50"/>
      <point x="403" y="65"/>
      <point x="419" y="65" type="curve" smooth="yes"/>
      <point x="707" y="65" type="line"/>
      <point x="707" y="348" type="line"/>
      <point x="232" y="348" type="line" smooth="yes"/>
      <point x="213" y="348"/>
      <point x="194" y="369"/>
      <point x="194" y="392" type="curve" smooth="yes"/>
      <point x="194" y="401"/>
      <point x="197" y="411"/>
      <point x="204" y="420" type="curve" smooth="yes"/>
      <point x="728" y="1167" type="line" smooth="yes"/>
      <point x="731" y="1171"/>
      <point x="747" y="1179"/>
      <point x="764" y="1179" type="curve" smooth="yes"/>
      <point x="783" y="1179"/>
      <point x="803" y="1168"/>
      <point x="803" y="1125" type="curve" smooth="yes"/>
      <point x="803" y="430" type="line"/>
      <point x="1005" y="430" type="line" smooth="yes"/>
      <point x="1028" y="430"/>
      <point x="1040" y="410"/>
      <point x="1040" y="389" type="curve" smooth="yes"/>
      <point x="1040" y="369"/>
      <point x="1028" y="348"/>
      <point x="1003" y="348" type="curve" smooth="yes"/>
      <point x="803" y="348" type="line"/>
      <point x="803" y="65" type="line"/>
      <point x="961" y="65" type="line" smooth="yes"/>
      <point x="977" y="65"/>
      <point x="985" y="50"/>
      <point x="985" y="34" type="curve" smooth="yes"/>
      <point x="985" y="17"/>
      <point x="976" y="0"/>
      <point x="960" y="0" type="curve" smooth="yes"/>
    </contour>
  </outline>
</glyph>
<glyph name="five" format="1">
  <advance width="1240"/>
  <unicode hex="0035"/>
  <outline>
    <contour>
      <point x="263" y="52"/>
      <point x="413" y="-17"/>
      <point x="579" y="-17" type="curve"/>
      <point x="818" y="-17"/>
      <point x="1011" y="143"/>
      <point x="1011" y="396" type="curve" smooth="yes"/>
      <point x="1011" y="610"/>
      <point x="875" y="731"/>
      <point x="661" y="731" type="curve" smooth="yes"/>
      <point x="581" y="731"/>
      <point x="497" y="687"/>
      <point x="444" y="623" type="curve"/>
      <point x="479" y="1081" type="line" smooth="yes"/>
      <point x="480" y="1086"/>
      <point x="481" y="1089"/>
      <point x="487" y="1089" type="curve" smooth="yes"/>
      <point x="857" y="1089" type="line" smooth="yes"/>
      <point x="912" y="1089"/>
      <point x="924" y="1147"/>
      <point x="934" y="1223" type="curve" smooth="yes"/>
      <point x="937" y="1249"/>
      <point x="914" y="1260"/>
      <point x="889" y="1260" type="curve" smooth="yes"/>
      <point x="865" y="1260"/>
      <point x="856" y="1242"/>
      <point x="838" y="1171" type="curve"/>
      <point x="514" y="1171" type="line" smooth="yes"/>
      <point x="448" y="1171"/>
      <point x="378" y="1170"/>
      <point x="378" y="1111" type="curve"/>
      <point x="358" y="510" type="line"/>
      <point x="376" y="502"/>
      <point x="392" y="498"/>
      <point x="407" y="498" type="curve" smooth="yes"/>
      <point x="438" y="498"/>
      <point x="498" y="640"/>
      <point x="659" y="640" type="curve" smooth="yes"/>
      <point x="792" y="640"/>
      <point x="915" y="571"/>
      <point x="915" y="381" type="curve" smooth="yes"/>
      <point x="915" y="170"/>
      <point x="739" y="65"/>
      <point x="592" y="65" type="curve" smooth="yes"/>
      <point x="525" y="65"/>
      <point x="460" y="75"/>
      <point x="389" y="110" type="curve"/>
      <point x="374" y="232"/>
      <point x="371" y="312"/>
      <point x="323" y="312" type="curve" smooth="yes"/>
      <point x="282" y="312"/>
      <point x="263" y="277"/>
      <point x="263" y="232" type="curve" smooth="yes"/>
    </contour>
  </outline>
</glyph>
<glyph name="six" format="1">
  <advance width="1240"/>
  <unicode hex="0036"/>
  <outline>
    <contour>
      <point x="1027" y="357" type="curve" smooth="yes"/>
      <point x="1027" y="129"/>
      <point x="874" y="-17"/>
      <point x="648" y="-17" type="curve" smooth="yes"/>
      <point x="381" y="-17"/>
      <point x="257" y="160"/>
      <point x="257" y="426" type="curve" smooth="yes"/>
      <point x="257" y="806"/>
      <point x="450" y="1052"/>
      <point x="659" y="1241" type="curve" smooth="yes"/>
      <point x="702" y="1280"/>
      <point x="757" y="1213"/>
      <point x="721" y="1183" type="curve" smooth="yes"/>
      <point x="566" y="1054"/>
      <point x="397" y="844"/>
      <point x="361" y="591" type="curve"/>
      <point x="438" y="694"/>
      <point x="559" y="741"/>
      <point x="668" y="741" type="curve" smooth="yes"/>
      <point x="893" y="741"/>
      <point x="1027" y="583"/>
    </contour>
    <contour>
      <point x="648" y="65" type="curve" smooth="yes"/>
      <point x="831" y="65"/>
      <point x="931" y="199"/>
      <point x="931" y="354" type="curve" smooth="yes"/>
      <point x="931" y="510"/>
      <point x="855" y="659"/>
      <point x="671" y="659" type="curve" smooth="yes"/>
      <point x="472" y="659"/>
      <point x="353" y="519"/>
      <point x="353" y="364" type="curve" smooth="yes"/>
      <point x="353" y="207"/>
      <point x="437" y="65"/>
    </contour>
  </outline>
</glyph>
<glyph name="seven" format="1">
  <advance width="1240"/>
  <unicode hex="0037"/>
  <outline>
    <contour>
      <point x="569.0" y="47.0" type="curve" smooth="yes"/>
      <point x="569" y="475"/>
      <point x="713" y="796"/>
      <point x="864" y="1085" type="curve"/>
      <point x="370" y="1085" type="line"/>
      <point x="370" y="916" type="line" smooth="yes"/>
      <point x="370" y="881.095703125"/>
      <point x="345.341796875" y="863.106445312"/>
      <point x="321.01953125" y="863.106445312" type="curve" smooth="yes"/>
      <point x="297.171875" y="863.106445312"/>
      <point x="273.645507812" y="880.400390625"/>
      <point x="274.0" y="916.0" type="curve" smooth="yes"/>
      <point x="274.0" y="1117.0" type="line" smooth="yes"/>
      <point x="274.0" y="1151.0"/>
      <point x="297.0" y="1171.0"/>
      <point x="330.0" y="1171.0" type="curve" smooth="yes"/>
      <point x="928.0" y="1171.0" type="line" smooth="yes"/>
      <point x="952.546875" y="1171.0"/>
      <point x="971.123046875" y="1141.69042969"/>
      <point x="971.123046875" y="1111.43457031" type="curve" smooth="yes"/>
      <point x="971.123046875" y="1101.015625"/>
      <point x="968.919921875" y="1090.48535156"/>
      <point x="964.0" y="1081.0" type="curve" smooth="yes"/>
      <point x="798.0" y="761.0"/>
      <point x="665.0" y="474.0"/>
      <point x="665.0" y="46.0" type="curve" smooth="yes"/>
      <point x="665.0" y="9.859375"/>
      <point x="642.1640625" y="-7.2177734375"/>
      <point x="618.768554688" y="-7.2177734375" type="curve" smooth="yes"/>
      <point x="594.193359375" y="-7.2177734375"/>
      <point x="569.0" y="11.623046875"/>
    </contour>
  </outline>
</glyph>
<glyph name="eight" format="1">
  <advance width="1240"/>
  <unicode hex="0038"/>
  <outline>
    <contour>
      <point x="620" y="1187" type="curve" smooth="yes"/>
      <point x="823" y="1187"/>
      <point x="969.5" y="1103"/>
      <point x="969.5" y="913" type="curve" smooth="yes"/>
      <point x="969.5" y="756"/>
      <point x="832.5" y="668"/>
      <point x="727.5" y="595" type="curve"/>
      <point x="854.5" y="523"/>
      <point x="1022.5" y="436"/>
      <point x="1022.5" y="268" type="curve" smooth="yes"/>
      <point x="1022.5" y="58"/>
      <point x="852.5" y="-17"/>
      <point x="642.5" y="-17" type="curve" smooth="yes"/>
      <point x="450.5" y="-17"/>
      <point x="259.5" y="53"/>
      <point x="259.5" y="274" type="curve" smooth="yes"/>
      <point x="259.5" y="435"/>
      <point x="436.5" y="536"/>
      <point x="543.5" y="599" type="curve"/>
      <point x="434.5" y="666"/>
      <point x="289.5" y="746"/>
      <point x="289.5" y="897" type="curve" smooth="yes"/>
      <point x="289.5" y="1083"/>
      <point x="434" y="1187"/>
    </contour>
    <contour>
      <point x="647.5" y="69" type="curve" smooth="yes"/>
      <point x="777.5" y="69"/>
      <point x="926.5" y="101"/>
      <point x="926.5" y="266" type="curve" smooth="yes"/>
      <point x="926.5" y="422"/>
      <point x="739.5" y="497"/>
      <point x="626.5" y="560" type="curve"/>
      <point x="532.5" y="507"/>
      <point x="355.5" y="409"/>
      <point x="355.5" y="282" type="curve" smooth="yes"/>
      <point x="355.5" y="109"/>
      <point x="511.5" y="69"/>
    </contour>
    <contour>
      <point x="627.5" y="1101.0390625" type="curve" smooth="yes"/>
      <point x="504.5" y="1101.0390625"/>
      <point x="381.5" y="1047.0"/>
      <point x="381.5" y="906.0" type="curve" smooth="yes"/>
      <point x="381.5" y="770.0"/>
      <point x="495.5" y="716.0"/>
      <point x="641.5" y="635.0" type="curve"/>
      <point x="772.5" y="710.0"/>
      <point x="877.5" y="784.0"/>
      <point x="877.5" y="905.0" type="curve" smooth="yes"/>
      <point x="877.5" y="1050.0"/>
      <point x="772.5" y="1101.0390625"/>
    </contour>
  </outline>
</glyph>
<glyph name="colon" format="1">
  <advance width="1240"/>
  <unicode hex="003A"/>
  <outline>
    <contour>
      <point x="644" y="-16" type="curve" smooth="yes"/>
      <point x="583" y="-16"/>
      <point x="539" y="28"/>
      <point x="539" y="89" type="curve" smooth="yes"/>
      <point x="539" y="150"/>
      <point x="584" y="195"/>
      <point x="644" y="195" type="curve" smooth="yes"/>
      <point x="704" y="195"/>
      <point x="750" y="149"/>
      <point x="750" y="89" type="curve" smooth="yes"/>
      <point x="750" y="28"/>
      <point x="704" y="-16"/>
    </contour>
    <contour>
      <point x="644" y="600" type="curve" smooth="yes"/>
      <point x="583" y="600"/>
      <point x="539" y="644"/>
      <point x="539" y="705" type="curve" smooth="yes"/>
      <point x="539" y="766"/>
      <point x="584" y="811"/>
      <point x="644" y="811" type="curve" smooth="yes"/>
      <point x="704" y="811"/>
      <point x="750" y="765"/>
      <point x="750" y="705" type="curve" smooth="yes"/>
      <point x="750" y="644"/>
      <point x="704" y="600"/>
    </contour>
  </outline>
</glyph>
<glyph name="equal" format="1">
  <advance width="1241"/>
  <unicode hex="003D"/>
  <outline>
    <contour>
      <point x="900" y="689" type="line" smooth="yes"/>
      <point x="930" y="689"/>
      <point x="945" y="666"/>
      <point x="945" y="644" type="curve" smooth="yes"/>
      <point x="945" y="621"/>
      <point x="930" y="598"/>
      <point x="900" y="598" type="curve" smooth="yes"/>
      <point x="341" y="598" type="line" smooth="yes"/>
      <point x="311" y="598"/>
      <point x="296" y="621"/>
      <point x="296" y="644" type="curve" smooth="yes"/>
      <point x="296" y="666"/>
      <point x="311" y="689"/>
      <point x="341" y="689" type="curve" smooth="yes"/>
    </contour>
    <contour>
      <point x="900" y="347" type="line" smooth="yes"/>
      <point x="930" y="347"/>
      <point x="945" y="324"/>
      <point x="945" y="302" type="curve" smooth="yes"/>
      <point x="945" y="279"/>
      <point x="930" y="256"/>
      <point x="900" y="256" type="curve" smooth="yes"/>
      <point x="341" y="256" type="line" smooth="yes"/>
      <point x="311" y="256"/>
      <point x="296" y="279"/>
      <point x="296" y="302" type="curve" smooth="yes"/>
      <point x="296" y="324"/>
      <point x="311" y="347"/>
      <point x="341" y="347" type="curve" smooth="yes"/>
    </contour>
  </outline>
</glyph>
<glyph name="question" format="1">
  <advance width="1240"/>
  <unicode hex="003F"/>
  <outline>
    <contour>
      <point x="509" y="363"/>
      <point x="510" y="338"/>
      <point x="543" y="338" type="curve" smooth="yes"/>
      <point x="571" y="338"/>
      <point x="575" y="360"/>
      <point x="575" y="394" type="curve" smooth="yes"/>
      <point x="575" y="564"/>
      <point x="889" y="641"/>
      <point x="904" y="881" type="curve" smooth="yes"/>
      <point x="905" y="889"/>
      <point x="905" y="898"/>
      <point x="905" y="906" type="curve" smooth="yes"/>
      <point x="905" y="1092"/>
      <point x="764" y="1188"/>
      <point x="573" y="1188" type="curve" smooth="yes"/>
      <point x="411" y="1188"/>
      <point x="300" y="1106"/>
      <point x="300" y="971" type="curve" smooth="yes"/>
      <point x="300" y="928"/>
      <point x="313" y="891"/>
      <point x="349" y="891" type="curve" smooth="yes"/>
      <point x="416" y="891"/>
      <point x="415" y="1000"/>
      <point x="421" y="1082" type="curve"/>
      <point x="476" y="1107"/>
      <point x="526" y="1111"/>
      <point x="570" y="1111" type="curve" smooth="yes"/>
      <point x="704" y="1111"/>
      <point x="787" y="1030"/>
      <point x="787" y="912" type="curve" smooth="yes"/>
      <point x="787" y="900"/>
      <point x="786" y="887"/>
      <point x="784" y="874" type="curve" smooth="yes"/>
      <point x="751" y="655"/>
      <point x="509" y="615"/>
      <point x="509" y="393" type="curve" smooth="yes"/>
    </contour>
    <contour>
      <point x="447" y="36"/>
      <point x="492" y="-9"/>
      <point x="549" y="-9" type="curve" smooth="yes"/>
      <point x="606" y="-9"/>
      <point x="650" y="37"/>
      <point x="650" y="94" type="curve" smooth="yes"/>
      <point x="650" y="151"/>
      <point x="606" y="194"/>
      <point x="549" y="194" type="curve" smooth="yes"/>
      <point x="492" y="194"/>
      <point x="447" y="150"/>
      <point x="447" y="93" type="curve" smooth="yes"/>
    </contour>
  </outline>
</glyph>
<glyph name="at" format="1">
  <advance width="1240"/>
  <unicode hex="0040"/>
  <outline>
    <contour>
      <point x="794.952590942" y="549.880493164" type="line"/>
      <point x="794.952606201" y="650.771972656"/>
      <point x="772.421234131" y="700.182388306"/>
      <point x="652.43132019" y="700.182388306" type="curve" smooth="yes"/>
      <point x="541.47064209" y="700.182388306"/>
      <point x="499.542999268" y="585.422317505"/>
      <point x="499.500991821" y="460.39453125" type="curve"/>
      <point x="499.500991821" y="354.553710938"/>
      <point x="544.835952759" y="262.966796875"/>
      <point x="631.143569946" y="262.966796875" type="curve" smooth="yes"/>
      <point x="632.310562134" y="262.966796875" type="line" smooth="yes"/>
      <point x="760.239044189" y="262.966796875"/>
      <point x="794.952606201" y="378.30255127"/>
      <point x="794.952606201" y="549.880493164" type="curve"/>
    </contour>
    <contour>
      <point x="189.000015259" y="436.0" type="curve" smooth="yes"/>
      <point x="189.000015259" y="194.0"/>
      <point x="342.458999634" y="-33.0068359375"/>
      <point x="648.458999634" y="-33.0068359375" type="curve" smooth="yes"/>
      <point x="768.596694946" y="-33.0068359375"/>
      <point x="876.730484009" y="8.8359375"/>
      <point x="938.254898071" y="39.703125" type="curve" smooth="yes"/>
      <point x="946.466171265" y="43.5715484619"/>
      <point x="954.029785156" y="45.2582397461"/>
      <point x="960.80871582" y="45.2582397461" type="curve" smooth="yes"/>
      <point x="983.474624634" y="45.2582397461"/>
      <point x="997.36819458" y="26.4018096924"/>
      <point x="997.36819458" y="7.19316101074" type="curve" smooth="yes"/>
      <point x="997.36819458" y="-5.42127990723"/>
      <point x="991.37638855" y="-18.1876373291"/>
      <point x="977.942398071" y="-25.865234375" type="curve" smooth="yes"/>
      <point x="863.145523071" y="-97.568359375"/>
      <point x="766.244155884" y="-116.002929688"/>
      <point x="651.175796509" y="-116.002929688" type="curve" smooth="yes"/>
      <point x="649.133804321" y="-116.002929688" type="line" smooth="yes"/>
      <point x="274.364273071" y="-116.002929688"/>
      <point x="82.9961090088" y="154.1171875"/>
      <point x="82.9961090088" y="438.778320312" type="curve" smooth="yes"/>
      <point x="82.9961090088" y="759.87109375"/>
      <point x="317.754898071" y="1099.00195312"/>
      <point x="695.412124634" y="1099.00195312" type="curve" smooth="yes"/>
      <point x="989.237319946" y="1098.671875"/>
      <point x="1204.86329651" y="907.428710938"/>
      <point x="1204.9599762" y="585.161132812" type="curve" smooth="yes"/>
      <point x="1204.9599762" y="373.817382812"/>
      <point x="1132.65821838" y="194.0"/>
      <point x="922.975601196" y="194.0" type="curve" smooth="yes"/>
      <point x="855.475601196" y="194.0"/>
      <point x="818.575210571" y="230.0"/>
      <point x="798.775405884" y="304.0" type="curve"/>
      <point x="751.937515259" y="225.004882812"/>
      <point x="686.259780884" y="188.58984375"/>
      <point x="622.383804321" y="188.58984375" type="curve" smooth="yes"/>
      <point x="515.451187134" y="188.58984375"/>
      <point x="413.567398071" y="290.639648438"/>
      <point x="413.567398071" y="465.8125" type="curve" smooth="yes"/>
      <point x="413.567398071" y="660.0"/>
      <point x="505.885757446" y="776.0"/>
      <point x="646.675796509" y="776.0" type="curve" smooth="yes"/>
      <point x="785.198257446" y="776.0"/>
      <point x="850.975601196" y="681.0"/>
      <point x="879.775405884" y="642.008789062" type="curve"/>
      <point x="850.975601196" y="342.0" type="line"/>
      <point x="850.075210571" y="337.0"/>
      <point x="850.075210571" y="332.0"/>
      <point x="850.075210571" y="327.0" type="curve"/>
      <point x="853.675796509" y="286.0"/>
      <point x="880.675796509" y="269.0"/>
      <point x="925.675796509" y="269.0" type="curve" smooth="yes"/>
      <point x="1080.95118713" y="269.0"/>
      <point x="1106.95118713" y="455.0"/>
      <point x="1106.95118713" y="618.0" type="curve" smooth="yes"/>
      <point x="1106.95118713" y="864.0"/>
      <point x="927.475601196" y="1012.0"/>
      <point x="698.875991821" y="1012.0" type="curve" smooth="yes"/>
      <point x="383.875991821" y="1012.0"/>
      <point x="189.000015259" y="714.0"/>
    </contour>
  </outline>
</glyph>
<glyph name="A" format="1">
  <advance width="1240"/>
  <unicode hex="0041"/>
  <outline>
    <contour>
      <point x="425" y="475" type="line"/>
      <point x="845" y="475" type="line"/>
      <point x="644" y="1056" type="line"/>
    </contour>
    <contour>
      <point x="90" y="0" type="line" smooth="yes"/>
      <point x="57" y="0"/>
      <point x="40" y="21"/>
      <point x="40" y="43" type="curve" smooth="yes"/>
      <point x="40" y="64"/>
      <point x="56" y="86"/>
      <point x="89" y="86" type="curve" smooth="yes"/>
      <point x="174" y="86" type="line"/>
      <point x="554" y="1085" type="line"/>
      <point x="342" y="1085" type="line" smooth="yes"/>
      <point x="309" y="1085"/>
      <point x="292" y="1106"/>
      <point x="292" y="1128" type="curve" smooth="yes"/>
      <point x="292" y="1149"/>
      <point x="308" y="1171"/>
      <point x="341" y="1171" type="curve" smooth="yes"/>
      <point x="647" y="1171" type="line" smooth="yes"/>
      <point x="693" y="1171"/>
      <point x="716" y="1140"/>
      <point x="728" y="1106" type="curve" smooth="yes"/>
      <point x="1087" y="86" type="line"/>
      <point x="1166" y="86" type="line" smooth="yes"/>
      <point x="1198" y="86"/>
      <point x="1214" y="65"/>
      <point x="1214" y="44" type="curve" smooth="yes"/>
      <point x="1214" y="22"/>
      <point x="1197" y="0"/>
      <point x="1164" y="0" type="curve" smooth="yes"/>
      <point x="798" y="0" type="line" smooth="yes"/>
      <point x="764" y="0"/>
      <point x="747" y="22"/>
      <point x="747" y="44" type="curve" smooth="yes"/>
      <point x="747" y="65"/>
      <point x="763" y="86"/>
      <point x="796" y="86" type="curve" smooth="yes"/>
      <point x="976" y="86" type="line"/>
      <point x="874" y="392" type="line"/>
      <point x="393" y="392" type="line"/>
      <point x="282" y="86" type="line"/>
      <point x="439" y="86" type="line" smooth="yes"/>
      <point x="472" y="86"/>
      <point x="489" y="64"/>
      <point x="489" y="43" type="curve" smooth="yes"/>
      <point x="489" y="21"/>
      <point x="472" y="0"/>
      <point x="438" y="0" type="curve" smooth="yes"/>
    </contour>
  </outline>
</glyph>
<glyph name="D" format="1">
  <advance width="1240"/>
  <unicode hex="0044"/>
  <outline>
    <contour>
      <point x="988" y="591" type="curve" smooth="yes"/>
      <point x="988" y="907"/>
      <point x="827" y="1085"/>
      <point x="534" y="1085" type="curve" smooth="yes"/>
      <point x="410" y="1085" type="line"/>
      <point x="410" y="86" type="line"/>
      <point x="520" y="86" type="line" smooth="yes"/>
      <point x="851" y="86"/>
      <point x="988" y="256"/>
    </contour>
    <contour>
      <point x="1084" y="591" type="curve" smooth="yes"/>
      <point x="1084" y="168"/>
      <point x="874" y="0"/>
      <point x="513" y="0" type="curve" smooth="yes"/>
      <point x="152" y="0" type="line" smooth="yes"/>
      <point x="118" y="0"/>
      <point x="101" y="21"/>
      <point x="101" y="43" type="curve" smooth="yes"/>
      <point x="101" y="64"/>
      <point x="118" y="86"/>
      <point x="151" y="86" type="curve" smooth="yes"/>
      <point x="314" y="86" type="line"/>
      <point x="314" y="1085" type="line"/>
      <point x="155" y="1085" type="line" smooth="yes"/>
      <point x="123" y="1085"/>
      <point x="107" y="1106"/>
      <point x="107" y="1127" type="curve" smooth="yes"/>
      <point x="107" y="1149"/>
      <point x="124" y="1171"/>
      <point x="157" y="1171" type="curve" smooth="yes"/>
      <point x="515" y="1171" type="line" smooth="yes"/>
      <point x="858" y="1171"/>
      <point x="1084" y="993"/>
    </contour>
  </outline>
</glyph>
<glyph name="G" format="1">
  <advance width="1240"/>
  <unicode hex="0047"/>
  <outline>
    <contour>
      <point x="1017" y="51" type="curve" smooth="yes"/>
      <point x="1017" y="510" type="line"/>
      <point x="913" y="510" type="line" smooth="yes"/>
      <point x="880" y="510"/>
      <point x="863" y="532"/>
      <point x="863" y="554" type="curve" smooth="yes"/>
      <point x="863" y="575"/>
      <point x="879" y="596"/>
      <point x="912" y="596" type="curve" smooth="yes"/>
      <point x="1196" y="596" type="line" smooth="yes"/>
      <point x="1229" y="596"/>
      <point x="1245" y="575"/>
      <point x="1245" y="554" type="curve" smooth="yes"/>
      <point x="1245" y="532"/>
      <point x="1228" y="510"/>
      <point x="1194" y="510" type="curve" smooth="yes"/>
      <point x="1113" y="510" type="line"/>
      <point x="1113" y="49" type="line" smooth="yes"/>
      <point x="1113" y="11"/>
      <point x="1090" y="-8"/>
      <point x="1066" y="-8" type="curve" smooth="yes"/>
      <point x="1042" y="-8"/>
      <point x="1017" y="12"/>
    </contour>
    <contour>
      <point x="1112" y="336" type="curve"/>
      <point x="1075" y="168"/>
      <point x="926" y="-17"/>
      <point x="636" y="-17" type="curve" smooth="yes"/>
      <point x="328" y="-17"/>
      <point x="99" y="225"/>
      <point x="99" y="607" type="curve" smooth="yes"/>
      <point x="99" y="954"/>
      <point x="327" y="1187"/>
      <point x="635" y="1187" type="curve" smooth="yes"/>
      <point x="794" y="1187"/>
      <point x="935" y="1113"/>
      <point x="989" y="1015" type="curve"/>
      <point x="989" y="1121" type="line" smooth="yes"/>
      <point x="989" y="1154"/>
      <point x="1014" y="1171"/>
      <point x="1038" y="1171" type="curve" smooth="yes"/>
      <point x="1063" y="1171"/>
      <point x="1087" y="1154"/>
      <point x="1087" y="1120" type="curve" smooth="yes"/>
      <point x="1087" y="827" type="line" smooth="yes"/>
      <point x="1087" y="795"/>
      <point x="1064" y="780"/>
      <point x="1041" y="780" type="curve" smooth="yes"/>
      <point x="1017" y="780"/>
      <point x="998" y="797"/>
      <point x="993" y="827" type="curve" smooth="yes"/>
      <point x="962" y="991"/>
      <point x="817" y="1101"/>
      <point x="638" y="1101" type="curve" smooth="yes"/>
      <point x="363" y="1101"/>
      <point x="195" y="890"/>
      <point x="195" y="600" type="curve" smooth="yes"/>
      <point x="195" y="263"/>
      <point x="402" y="69"/>
      <point x="637" y="69" type="curve" smooth="yes"/>
      <point x="830" y="69"/>
      <point x="962" y="182"/>
      <point x="1016" y="359" type="curve" smooth="yes"/>
      <point x="1023" y="379"/>
      <point x="1039" y="387"/>
      <point x="1056" y="387" type="curve" smooth="yes"/>
      <point x="1083" y="387"/>
      <point x="1113" y="367"/>
      <point x="1113" y="343" type="curve" smooth="yes"/>
      <point x="1113" y="341"/>
      <point x="1113" y="338"/>
    </contour>
  </outline>
</glyph>
<glyph name="I" format="1">
  <advance width="1240"/>
  <unicode hex="0049"/>
  <outline>
    <contour>
      <point x="310" y="0" type="line" smooth="yes"/>
      <point x="277" y="0"/>
      <point x="259" y="21"/>
      <point x="259" y="43" type="curve" smooth="yes"/>
      <point x="259" y="64"/>
      <point x="276" y="86"/>
      <point x="309" y="86" type="curve" smooth="yes"/>
      <point x="614" y="86" type="line"/>
      <point x="614" y="1085" type="line"/>
      <point x="309" y="1085" type="line" smooth="yes"/>
      <point x="276" y="1085"/>
      <point x="259" y="1106"/>
      <point x="259" y="1127" type="curve" smooth="yes"/>
      <point x="259" y="1149"/>
      <point x="277" y="1171"/>
      <point x="310" y="1171" type="curve" smooth="yes"/>
      <point x="995" y="1171" type="line" smooth="yes"/>
      <point x="1028" y="1171"/>
      <point x="1045" y="1149"/>
      <point x="1045" y="1127" type="curve" smooth="yes"/>
      <point x="1045" y="1106"/>
      <point x="1029" y="1085"/>
      <point x="996" y="1085" type="curve" smooth="yes"/>
      <point x="710" y="1085" type="line"/>
      <point x="710" y="86" type="line"/>
      <point x="996" y="86" type="line" smooth="yes"/>
      <point x="1029" y="86"/>
      <point x="1045" y="64"/>
      <point x="1045" y="43" type="curve" smooth="yes"/>
      <point x="1045" y="21"/>
      <point x="1028" y="0"/>
      <point x="995" y="0" type="curve" smooth="yes"/>
    </contour>
  </outline>
</glyph>
<glyph name="J" format="1">
  <advance width="1240"/>
  <unicode hex="004A"/>
  <outline>
    <contour>
      <point x="855" y="317" type="line" smooth="yes"/>
      <point x="855" y="83.686630249"/>
      <point x="644.305557251" y="-13.4674377441"/>
      <point x="451.345046997" y="-13.4674377441" type="curve" smooth="yes"/>
      <point x="288.345321655" y="-13.4674377441"/>
      <point x="138.0" y="55.8588409424"/>
      <point x="138.0" y="171.0" type="curve" smooth="yes"/>
      <point x="138.0" y="283.0" type="line" smooth="yes"/>
      <point x="138.0" y="312.0"/>
      <point x="163.0" y="328.0"/>
      <point x="187.0" y="328.0" type="curve" smooth="yes"/>
      <point x="211.0" y="328.0"/>
      <point x="234.0" y="313.0"/>
      <point x="234.0" y="283.0" type="curve" smooth="yes"/>
      <point x="234.0" y="182.0" type="line" smooth="yes"/>
      <point x="234.0" y="114.450317383"/>
      <point x="341.910018921" y="68.1478424072"/>
      <point x="459.884078979" y="68.1478424072" type="curve" smooth="yes"/>
      <point x="602.126785278" y="68.1478424072"/>
      <point x="759.0" y="135.459655762"/>
      <point x="759.0" y="314.0" type="curve" smooth="yes"/>
      <point x="759.0" y="1085.0" type="line"/>
      <point x="409.0" y="1085.0" type="line" smooth="yes"/>
      <point x="377.0" y="1085.0"/>
      <point x="361.0" y="1106.0"/>
      <point x="361.0" y="1127.0" type="curve" smooth="yes"/>
      <point x="361.0" y="1149.0"/>
      <point x="377.0" y="1171.0"/>
      <point x="410.0" y="1171.0" type="curve" smooth="yes"/>
      <point x="1025.0" y="1171.0" type="line" smooth="yes"/>
      <point x="1058.0" y="1171.0"/>
      <point x="1075.0" y="1150.0"/>
      <point x="1075.0" y="1128.0" type="curve" smooth="yes"/>
      <point x="1075.0" y="1107.0"/>
      <point x="1059.0" y="1085.0"/>
      <point x="1026.0" y="1085.0" type="curve" smooth="yes"/>
      <point x="855.0" y="1085.0" type="line"/>
    </contour>
  </outline>
</glyph>
<glyph name="O" format="1">
  <advance width="1240"/>
  <unicode hex="004F"/>
  <outline>
    <contour>
      <point x="620" y="1101" type="curve" smooth="yes"/>
      <point x="344" y="1101"/>
      <point x="204" y="842"/>
      <point x="204" y="582" type="curve" smooth="yes"/>
      <point x="204" y="326"/>
      <point x="340" y="69"/>
      <point x="620" y="69" type="curve" smooth="yes"/>
      <point x="900" y="69"/>
      <point x="1036" y="326"/>
      <point x="1036" y="582" type="curve" smooth="yes"/>
      <point x="1036" y="842"/>
      <point x="896" y="1101"/>
    </contour>
    <contour>
      <point x="620" y="-17" type="curve" smooth="yes"/>
      <point x="279" y="-17"/>
      <point x="108" y="281"/>
      <point x="108" y="582" type="curve" smooth="yes"/>
      <point x="108" y="883"/>
      <point x="279" y="1187"/>
      <point x="620" y="1187" type="curve" smooth="yes"/>
      <point x="961" y="1187"/>
      <point x="1132" y="883"/>
      <point x="1132" y="582" type="curve" smooth="yes"/>
      <point x="1132" y="281"/>
      <point x="961" y="-17"/>
    </contour>
  </outline>
</glyph>
<glyph name="Q" format="1">
  <advance width="1240"/>
  <unicode hex="0051"/>
  <outline>
    <contour>
      <point x="617" y="3" type="line"/>
      <point x="722" y="-108" type="line" smooth="yes"/>
      <point x="753" y="-142"/>
      <point x="790" y="-162"/>
      <point x="836" y="-162" type="curve" smooth="yes"/>
      <point x="882" y="-162"/>
      <point x="938" y="-142"/>
      <point x="1008" y="-95" type="curve" smooth="yes"/>
      <point x="1018" y="-88"/>
      <point x="1028" y="-86"/>
      <point x="1037" y="-86" type="curve" smooth="yes"/>
      <point x="1059" y="-86"/>
      <point x="1077" y="-108"/>
      <point x="1077" y="-130" type="curve" smooth="yes"/>
      <point x="1077" y="-144"/>
      <point x="1070" y="-159"/>
      <point x="1054" y="-169" type="curve"/>
      <point x="1002" y="-218"/>
      <point x="901" y="-246"/>
      <point x="854" y="-246" type="curve" smooth="yes"/>
      <point x="695" y="-246"/>
      <point x="646" y="-176"/>
      <point x="504" y="-2" type="curve"/>
    </contour>
    <contour>
      <point x="620" y="1101" type="curve" smooth="yes"/>
      <point x="344" y="1101"/>
      <point x="204" y="842"/>
      <point x="204" y="582" type="curve" smooth="yes"/>
      <point x="204" y="326"/>
      <point x="340" y="69"/>
      <point x="620" y="69" type="curve" smooth="yes"/>
      <point x="900" y="69"/>
      <point x="1036" y="326"/>
      <point x="1036" y="582" type="curve" smooth="yes"/>
      <point x="1036" y="842"/>
      <point x="896" y="1101"/>
    </contour>
    <contour>
      <point x="620" y="-17" type="curve" smooth="yes"/>
      <point x="279" y="-17"/>
      <point x="108" y="281"/>
      <point x="108" y="582" type="curve" smooth="yes"/>
      <point x="108" y="883"/>
      <point x="279" y="1187"/>
      <point x="620" y="1187" type="curve" smooth="yes"/>
      <point x="961" y="1187"/>
      <point x="1132" y="883"/>
      <point x="1132" y="582" type="curve" smooth="yes"/>
      <point x="1132" y="281"/>
      <point x="961" y="-17"/>
    </contour>
  </outline>
</glyph>
<glyph name="R" format="1">
  <advance width="1240"/>
  <unicode hex="0052"/>
  <outline>
    <contour>
      <point x="429" y="619" type="line"/>
      <point x="429" y="1085" type="line"/>
      <point x="536" y="1085" type="line" smooth="yes"/>
      <point x="818" y="1085"/>
      <point x="931" y="1050"/>
      <point x="931" y="846" type="curve" smooth="yes"/>
      <point x="931" y="647"/>
      <point x="764" y="619"/>
      <point x="516" y="619" type="curve" smooth="yes"/>
    </contour>
    <contour>
      <point x="658" y="41" type="curve" smooth="yes"/>
      <point x="658" y="62"/>
      <point x="642" y="82"/>
      <point x="609" y="82" type="curve" smooth="yes"/>
      <point x="429" y="82" type="line"/>
      <point x="429" y="542" type="line"/>
      <point x="584" y="542" type="line" smooth="yes"/>
      <point x="631" y="542"/>
      <point x="730" y="551"/>
      <point x="744" y="556" type="curve"/>
      <point x="944" y="82" type="line"/>
      <point x="893" y="82" type="line" smooth="yes"/>
      <point x="860" y="82"/>
      <point x="844" y="62"/>
      <point x="844" y="42" type="curve" smooth="yes"/>
      <point x="844" y="21"/>
      <point x="861" y="0"/>
      <point x="895" y="0" type="curve" smooth="yes"/>
      <point x="1130" y="0" type="line" smooth="yes"/>
      <point x="1177" y="0"/>
      <point x="1193" y="21"/>
      <point x="1193" y="42" type="curve" smooth="yes"/>
      <point x="1193" y="62"/>
      <point x="1179" y="82"/>
      <point x="1129" y="82" type="curve" smooth="yes"/>
      <point x="1045" y="82" type="line"/>
      <point x="821" y="578" type="line"/>
      <point x="925" y="616"/>
      <point x="1027" y="699"/>
      <point x="1027" y="853" type="curve" smooth="yes"/>
      <point x="1027" y="1124"/>
      <point x="827" y="1171"/>
      <point x="537" y="1171" type="curve" smooth="yes"/>
      <point x="237" y="1171" type="line" smooth="yes"/>
      <point x="203" y="1171"/>
      <point x="186" y="1149"/>
      <point x="186" y="1127" type="curve" smooth="yes"/>
      <point x="186" y="1106"/>
      <point x="203" y="1085"/>
      <point x="236" y="1085" type="curve" smooth="yes"/>
      <point x="333" y="1085" type="line"/>
      <point x="333" y="82" type="line"/>
      <point x="208" y="82" type="line" smooth="yes"/>
      <point x="175" y="82"/>
      <point x="158" y="62"/>
      <point x="158" y="41" type="curve" smooth="yes"/>
      <point x="158" y="21"/>
      <point x="175" y="0"/>
      <point x="209" y="0" type="curve" smooth="yes"/>
      <point x="608" y="0" type="line" smooth="yes"/>
      <point x="642" y="0"/>
      <point x="658" y="21"/>
    </contour>
  </outline>
</glyph>
<glyph name="X" format="1">
  <advance width="1240"/>
  <unicode hex="0058"/>
  <outline>
    <contour>
      <point x="353" y="1085" type="line"/>
      <point x="1027" y="82" type="line"/>
      <point x="1100" y="82" type="line" smooth="yes"/>
      <point x="1132.83300781" y="82"/>
      <point x="1139.078125" y="62.0517578125"/>
      <point x="1139.078125" y="41.833984375" type="curve" smooth="yes"/>
      <point x="1139.078125" y="21.0595703125"/>
      <point x="1131.92773438" y="0.0"/>
      <point x="1098.0" y="0.0" type="curve" smooth="yes"/>
      <point x="766.0" y="0.0" type="line" smooth="yes"/>
      <point x="732.579101562" y="0.0"/>
      <point x="715.83203125" y="20.7373046875"/>
      <point x="715.83203125" y="41.3544921875" type="curve" smooth="yes"/>
      <point x="715.83203125" y="61.7353515625"/>
      <point x="732.0" y="82.0"/>
      <point x="765.0" y="82.0" type="curve" smooth="yes"/>
      <point x="921.0" y="82.0" type="line"/>
      <point x="245.0" y="1085.0" type="line"/>
      <point x="163.0" y="1085.0" type="line" smooth="yes"/>
      <point x="130.112304688" y="1085.0"/>
      <point x="123.840820312" y="1106.13183594"/>
      <point x="123.840820312" y="1127.4453125" type="curve" smooth="yes"/>
      <point x="123.840820312" y="1149.12890625"/>
      <point x="130.681640625" y="1171.0"/>
      <point x="164.0" y="1171.0" type="curve" smooth="yes"/>
      <point x="500.0" y="1171.0" type="line" smooth="yes"/>
      <point x="533.315429688" y="1171.0"/>
      <point x="540.166015625" y="1149.11914062"/>
      <point x="540.166015625" y="1127.43164062" type="curve" smooth="yes"/>
      <point x="540.166015625" y="1106.12304688"/>
      <point x="534.0" y="1085.0"/>
      <point x="501.0" y="1085.0" type="curve" smooth="yes"/>
    </contour>
    <contour>
      <point x="1094.0" y="1171.0" type="line" smooth="yes"/>
      <point x="1127.31542969" y="1171.0"/>
      <point x="1134.16601562" y="1149.11914062"/>
      <point x="1134.16601562" y="1127.43164062" type="curve" smooth="yes"/>
      <point x="1134.16601562" y="1106.12304688"/>
      <point x="1128.0" y="1085.0"/>
      <point x="1095.0" y="1085.0" type="curve" smooth="yes"/>
      <point x="1022.0" y="1085.0" type="line"/>
      <point x="342.0" y="82.0" type="line"/>
      <point x="491.0" y="82.0" type="line" smooth="yes"/>
      <point x="524.0" y="82.0"/>
      <point x="530.161132812" y="61.7265625"/>
      <point x="530.161132812" y="41.3408203125" type="curve" smooth="yes"/>
      <point x="530.161132812" y="20.7275390625"/>
      <point x="523.423828125" y="0.0"/>
      <point x="490.0" y="0.0" type="curve" smooth="yes"/>
      <point x="142.0" y="0.0" type="line" smooth="yes"/>
      <point x="108.579101562" y="0.0"/>
      <point x="101.83203125" y="20.7373046875"/>
      <point x="101.83203125" y="41.3544921875" type="curve" smooth="yes"/>
      <point x="101.83203125" y="61.7353515625"/>
      <point x="108.0" y="82.0"/>
      <point x="141.0" y="82.0" type="curve" smooth="yes"/>
      <point x="226.0" y="82.0" type="line"/>
      <point x="905.0" y="1085.0" type="line"/>
      <point x="804.0" y="1085.0" type="line" smooth="yes"/>
      <point x="771.0" y="1085.0"/>
      <point x="764.840820312" y="1106.13183594"/>
      <point x="764.840820312" y="1127.4453125" type="curve" smooth="yes"/>
      <point x="764.840820312" y="1149.12890625"/>
      <point x="771.681640625" y="1171.0"/>
      <point x="805.0" y="1171.0" type="curve" smooth="yes"/>
    </contour>
  </outline>
</glyph>
<glyph name="bracketleft" format="1">
  <advance width="1240"/>
  <unicode hex="005B"/>
  <outline>
    <contour>
      <point x="830" y="1310"/>
      <point x="821" y="1331"/>
      <point x="802" y="1331" type="curve" smooth="yes"/>
      <point x="570" y="1331" type="line" smooth="yes"/>
      <point x="532" y="1331"/>
      <point x="515" y="1308"/>
      <point x="515" y="1270" type="curve" smooth="yes"/>
      <point x="515" y="-90" type="line" smooth="yes"/>
      <point x="515" y="-125"/>
      <point x="534" y="-148"/>
      <point x="570" y="-148" type="curve" smooth="yes"/>
      <point x="802" y="-148" type="line" smooth="yes"/>
      <point x="821" y="-148"/>
      <point x="830" y="-127"/>
      <point x="830" y="-106" type="curve" smooth="yes"/>
      <point x="830" y="-85"/>
      <point x="821" y="-64"/>
      <point x="802" y="-64" type="curve" smooth="yes"/>
      <point x="611" y="-64" type="line"/>
      <point x="611" y="1247" type="line"/>
      <point x="802" y="1247" type="line" smooth="yes"/>
      <point x="821" y="1247"/>
      <point x="830" y="1268"/>
      <point x="830" y="1289" type="curve" smooth="yes"/>
    </contour>
  </outline>
</glyph>
<glyph name="backslash" format="1">
  <advance width="1240"/>
  <unicode hex="005C"/>
  <outline>
    <contour>
      <point x="-33" y="1232" type="curve" smooth="yes"/>
      <point x="-33" y="1266"/>
      <point x="5" y="1291"/>
      <point x="37" y="1291" type="curve" smooth="yes"/>
      <point x="55" y="1291"/>
      <point x="69" y="1282"/>
      <point x="79" y="1264" type="curve"/>
      <point x="835" y="-316" type="line" smooth="yes"/>
      <point x="838" y="-323"/>
      <point x="841" y="-329"/>
      <point x="841" y="-337" type="curve" smooth="yes"/>
      <point x="841" y="-370"/>
      <point x="802" y="-396"/>
      <point x="770" y="-396" type="curve" smooth="yes"/>
      <point x="746" y="-396"/>
      <point x="733" y="-383"/>
      <point x="723" y="-363" type="curve" smooth="yes"/>
      <point x="-29" y="1213" type="line" smooth="yes"/>
      <point x="-32" y="1220"/>
      <point x="-33" y="1225"/>
    </contour>
  </outline>
</glyph>
<glyph name="bracketright" format="1">
  <advance width="1240"/>
  <unicode hex="005D"/>
  <outline>
    <contour>
      <point x="424" y="-127"/>
      <point x="433" y="-148"/>
      <point x="452" y="-148" type="curve" smooth="yes"/>
      <point x="684" y="-148" type="line" smooth="yes"/>
      <point x="722" y="-148"/>
      <point x="739" y="-125"/>
      <point x="739" y="-87" type="curve" smooth="yes"/>
      <point x="739" y="1273" type="line" smooth="yes"/>
      <point x="739" y="1308"/>
      <point x="720" y="1331"/>
      <point x="684" y="1331" type="curve" smooth="yes"/>
      <point x="452" y="1331" type="line" smooth="yes"/>
      <point x="433" y="1331"/>
      <point x="424" y="1310"/>
      <point x="424" y="1289" type="curve" smooth="yes"/>
      <point x="424" y="1268"/>
      <point x="433" y="1247"/>
      <point x="452" y="1247" type="curve" smooth="yes"/>
      <point x="643" y="1247" type="line"/>
      <point x="643" y="-64" type="line"/>
      <point x="452" y="-64" type="line" smooth="yes"/>
      <point x="433" y="-64"/>
      <point x="424" y="-85"/>
      <point x="424" y="-106" type="curve" smooth="yes"/>
    </contour>
  </outline>
</glyph>
<glyph name="asciicircum" format="1">
  <advance width="1240"/>
  <unicode hex="005E"/>
  <outline>
    <contour>
      <point x="768" y="436" type="curve" smooth="yes"/>
      <point x="768" y="411"/>
      <point x="745" y="391"/>
      <point x="720" y="391" type="curve" smooth="yes"/>
      <point x="699" y="391"/>
      <point x="683" y="406"/>
      <point x="675" y="422" type="curve" smooth="yes"/>
      <point x="471" y="859" type="line"/>
      <point x="249" y="426" type="line"/>
      <point x="237" y="406"/>
      <point x="218" y="387"/>
      <point x="191" y="387" type="curve" smooth="yes"/>
      <point x="157" y="387"/>
      <point x="126" y="414"/>
      <point x="126" y="449" type="curve" smooth="yes"/>
      <point x="126" y="457"/>
      <point x="128" y="466"/>
      <point x="133" y="477" type="curve" smooth="yes"/>
      <point x="373" y="964" type="line" smooth="yes"/>
      <point x="390" y="997"/>
      <point x="412" y="1032"/>
      <point x="451" y="1032" type="curve" smooth="yes"/>
      <point x="487" y="1032"/>
      <point x="510" y="998"/>
      <point x="524" y="969" type="curve" smooth="yes"/>
      <point x="762" y="460" type="line"/>
      <point x="765" y="452"/>
      <point x="768" y="444"/>
    </contour>
  </outline>
</glyph>
<glyph name="underscore" format="1">
  <advance width="1241"/>
  <unicode hex="005F"/>
  <outline>
    <contour>
      <point x="1000" y="91" type="line" smooth="yes"/>
      <point x="1030" y="91"/>
      <point x="1045" y="68"/>
      <point x="1045" y="46" type="curve" smooth="yes"/>
      <point x="1045" y="23"/>
      <point x="1030" y="0"/>
      <point x="1000" y="0" type="curve" smooth="yes"/>
      <point x="241" y="0" type="line" smooth="yes"/>
      <point x="211" y="0"/>
      <point x="196" y="23"/>
      <point x="196" y="46" type="curve" smooth="yes"/>
      <point x="196" y="68"/>
      <point x="211" y="91"/>
      <point x="241" y="91" type="curve" smooth="yes"/>
    </contour>
  </outline>
</glyph>
<glyph name="a" format="1">
  <advance width="1240"/>
  <unicode hex="0061"/>
  <outline>
    <contour>
      <point x="621" y="731" type="curve" smooth="yes"/>
      <point x="779" y="731"/>
      <point x="824" y="635"/>
      <point x="824" y="490" type="curve" smooth="yes"/>
      <point x="824" y="470" type="line"/>
      <point x="557" y="450"/>
      <point x="263" y="455"/>
      <point x="263" y="210" type="curve" smooth="yes"/>
      <point x="263" y="74"/>
      <point x="350" y="-16"/>
      <point x="501" y="-16" type="curve" smooth="yes"/>
      <point x="647" y="-16"/>
      <point x="770" y="44"/>
      <point x="831" y="113" type="curve"/>
      <point x="848" y="9"/>
      <point x="908" y="-7"/>
      <point x="964" y="-7" type="curve" smooth="yes"/>
      <point x="1025" y="-7"/>
      <point x="1082" y="22"/>
      <point x="1124" y="66" type="curve" smooth="yes"/>
      <point x="1131" y="73"/>
      <point x="1134" y="82"/>
      <point x="1134" y="91" type="curve" smooth="yes"/>
      <point x="1134" y="112"/>
      <point x="1117" y="133"/>
      <point x="1097" y="133" type="curve" smooth="yes"/>
      <point x="1089" y="133"/>
      <point x="1080" y="129"/>
      <point x="1073" y="121" type="curve" smooth="yes"/>
      <point x="1053" y="99"/>
      <point x="1009" y="72"/>
      <point x="972" y="72" type="curve" smooth="yes"/>
      <point x="946" y="72"/>
      <point x="920" y="80"/>
      <point x="920" y="132" type="curve" smooth="yes"/>
      <point x="920" y="444" type="line" smooth="yes"/>
      <point x="920" y="674"/>
      <point x="859" y="813"/>
      <point x="622" y="813" type="curve" smooth="yes"/>
      <point x="415" y="813"/>
      <point x="274" y="725"/>
      <point x="274" y="603" type="curve" smooth="yes"/>
      <point x="274" y="563"/>
      <point x="293" y="531"/>
      <point x="334" y="531" type="curve" smooth="yes"/>
      <point x="382" y="531"/>
      <point x="395" y="593"/>
      <point x="400" y="686" type="curve"/>
      <point x="471" y="718"/>
      <point x="537" y="731"/>
    </contour>
    <contour>
      <point x="824" y="401" type="curve"/>
      <point x="824" y="189" type="line"/>
      <point x="752" y="113"/>
      <point x="631" y="65"/>
      <point x="512" y="65" type="curve" smooth="yes"/>
      <point x="427" y="65"/>
      <point x="360" y="103"/>
      <point x="360" y="210" type="curve" smooth="yes"/>
      <point x="360" y="364"/>
      <point x="535" y="373"/>
    </contour>
  </outline>
</glyph>
<glyph name="b" format="1">
  <advance width="1240"/>
  <unicode hex="0062"/>
  <outline>
    <contour>
      <point x="958.0" y="398.0" type="curve" smooth="yes"/>
      <point x="958" y="575.151519775"/>
      <point x="861.172409058" y="731.0"/>
      <point x="670.0" y="731.0" type="curve" smooth="yes"/>
      <point x="543.01234436" y="731.0"/>
      <point x="454.921813965" y="681.06451416"/>
      <point x="392.0" y="602.0" type="curve"/>
      <point x="392.0" y="210.0" type="line"/>
      <point x="450.169494629" y="126.803283691"/>
      <point x="543.483047485" y="65.0"/>
      <point x="678.0" y="65.0" type="curve" smooth="yes"/>
      <point x="864.276153564" y="65.0"/>
      <point x="958.0" y="218.692306519"/>
    </contour>
    <contour>
      <point x="392.0" y="1141.0" type="curve" smooth="yes"/>
      <point x="392.0" y="707.0" type="line"/>
      <point x="466.136550903" y="771.211532593"/>
      <point x="547.116470337" y="813.0"/>
      <point x="676.0" y="813.0" type="curve" smooth="yes"/>
      <point x="909.618041992" y="813.0"/>
      <point x="1054.0" y="636.147705078"/>
      <point x="1054.0" y="398.0" type="curve" smooth="yes"/>
      <point x="1054.0" y="156.0"/>
      <point x="915.226318359" y="-17.0"/>
      <point x="680.0" y="-17.0" type="curve" smooth="yes"/>
      <point x="553.092300415" y="-17.0"/>
      <point x="452.015380859" y="37.0"/>
      <point x="388.0" y="102.0" type="curve"/>
      <point x="388.0" y="0.000274658203125"/>
      <point x="361.564193726" y="-3.59765625"/>
      <point x="337.034179688" y="-3.59765625" type="curve" smooth="yes"/>
      <point x="315.803268433" y="-3.59765625"/>
      <point x="296.0" y="7.00024414062"/>
      <point x="296.0" y="74.0" type="curve" smooth="yes"/>
      <point x="296.0" y="1091.0" type="line"/>
      <point x="168.0" y="1083.0" type="line"/>
      <point x="161.0" y="1082.0"/>
      <point x="154.0" y="1080.0"/>
      <point x="148.0" y="1080.0" type="curve" smooth="yes"/>
      <point x="124.0" y="1080.0"/>
      <point x="109.0" y="1098.0"/>
      <point x="109.0" y="1118.0" type="curve" smooth="yes"/>
      <point x="109.0" y="1134.0"/>
      <point x="118.0" y="1154.0"/>
      <point x="142.0" y="1159.0" type="curve"/>
      <point x="331.0" y="1178.0" type="line" smooth="yes"/>
      <point x="339.0" y="1179.0"/>
      <point x="345.0" y="1180.0"/>
      <point x="351.0" y="1180.0" type="curve" smooth="yes"/>
      <point x="380.0" y="1180.0"/>
      <point x="392.0" y="1164.0"/>
    </contour>
  </outline>
</glyph>
<glyph name="c" format="1">
  <advance width="1240"/>
  <unicode hex="0063"/>
  <outline>
    <contour>
      <point x="635.0" y="813.0" type="curve" smooth="yes"/>
      <point x="833" y="813"/>
      <point x="983" y="744"/>
      <point x="983" y="564" type="curve" smooth="yes"/>
      <point x="983" y="519"/>
      <point x="964" y="484"/>
      <point x="923" y="484" type="curve" smooth="yes"/>
      <point x="875" y="484"/>
      <point x="872" y="564"/>
      <point x="857" y="686" type="curve"/>
      <point x="786" y="721"/>
      <point x="717" y="731"/>
      <point x="650" y="731" type="curve" smooth="yes"/>
      <point x="416" y="731"/>
      <point x="275" y="609"/>
      <point x="275" y="407" type="curve" smooth="yes"/>
      <point x="275" y="175"/>
      <point x="421" y="65"/>
      <point x="624" y="65" type="curve" smooth="yes"/>
      <point x="751" y="65"/>
      <point x="827.193817139" y="98.9249267578"/>
      <point x="906.0" y="172.0" type="curve" smooth="yes"/>
      <point x="918.333847046" y="183.43687439"/>
      <point x="934.130233765" y="188.361740112"/>
      <point x="947.305435181" y="188.361740112" type="curve" smooth="yes"/>
      <point x="966.598739624" y="188.361740112"/>
      <point x="982.0" y="175.817626953"/>
      <point x="982.0" y="147.0" type="curve" smooth="yes"/>
      <point x="982.0" y="133.0"/>
      <point x="976.0" y="118.0"/>
      <point x="964.0" y="105.0" type="curve" smooth="yes"/>
      <point x="890.0" y="25.0"/>
      <point x="736.0" y="-17.0"/>
      <point x="632.0" y="-17.0" type="curve" smooth="yes"/>
      <point x="365.0" y="-17.0"/>
      <point x="179.0" y="141.0"/>
      <point x="179.0" y="407.0" type="curve" smooth="yes"/>
      <point x="179.0" y="663.0"/>
      <point x="387.0" y="813.0"/>
    </contour>
  </outline>
</glyph>
<glyph name="d" format="1">
  <advance width="1240"/>
  <unicode hex="0064"/>
  <outline>
    <contour>
      <point x="289" y="398" type="curve" smooth="yes"/>
      <point x="289" y="575"/>
      <point x="386" y="731"/>
      <point x="577" y="731" type="curve" smooth="yes"/>
      <point x="704" y="731"/>
      <point x="792" y="681"/>
      <point x="855" y="602" type="curve"/>
      <point x="855" y="210" type="line"/>
      <point x="797" y="127"/>
      <point x="708" y="65"/>
      <point x="573" y="65" type="curve" smooth="yes"/>
      <point x="387" y="65"/>
      <point x="289" y="219"/>
    </contour>
    <contour>
      <point x="867" y="47" type="line" smooth="yes"/>
      <point x="869" y="13"/>
      <point x="888" y="-3"/>
      <point x="914" y="-3" type="curve" smooth="yes"/>
      <point x="921" y="-3" type="line"/>
      <point x="1107" y="17" type="line"/>
      <point x="1132" y="22"/>
      <point x="1145" y="42"/>
      <point x="1145" y="61" type="curve" smooth="yes"/>
      <point x="1145" y="79"/>
      <point x="1133" y="96"/>
      <point x="1105" y="96" type="curve" smooth="yes"/>
      <point x="1099" y="96" type="line"/>
      <point x="951" y="85" type="line"/>
      <point x="951" y="1141" type="line" smooth="yes"/>
      <point x="951" y="1164"/>
      <point x="939" y="1180"/>
      <point x="910" y="1180" type="curve" smooth="yes"/>
      <point x="904" y="1180"/>
      <point x="898" y="1179"/>
      <point x="890" y="1178" type="curve" smooth="yes"/>
      <point x="701" y="1159" type="line"/>
      <point x="677" y="1154"/>
      <point x="668" y="1134"/>
      <point x="668" y="1118" type="curve" smooth="yes"/>
      <point x="668" y="1098"/>
      <point x="683" y="1080"/>
      <point x="707" y="1080" type="curve" smooth="yes"/>
      <point x="713" y="1080"/>
      <point x="720" y="1082"/>
      <point x="727" y="1083" type="curve"/>
      <point x="855" y="1091" type="line"/>
      <point x="855" y="707" type="line"/>
      <point x="781" y="771"/>
      <point x="700" y="813"/>
      <point x="571" y="813" type="curve" smooth="yes"/>
      <point x="337" y="813"/>
      <point x="193" y="636"/>
      <point x="193" y="398" type="curve" smooth="yes"/>
      <point x="193" y="156"/>
      <point x="336" y="-17"/>
      <point x="571" y="-17" type="curve" smooth="yes"/>
      <point x="698" y="-17"/>
      <point x="805" y="36"/>
      <point x="864" y="107" type="curve"/>
    </contour>
  </outline>
</glyph>
<glyph name="f" format="1">
  <advance width="1240"/>
  <unicode hex="0066"/>
  <outline>
    <contour>
      <point x="1054" y="1020" type="line" smooth="yes"/>
      <point x="1054" y="982.276275635"/>
      <point x="1029.42553711" y="963.782226562"/>
      <point x="1005.14355469" y="963.782226562" type="curve" smooth="yes"/>
      <point x="981.432342529" y="963.782226562"/>
      <point x="958.0" y="980.999908447"/>
      <point x="958.0" y="1016.0" type="curve" smooth="yes"/>
      <point x="958.0" y="1109.0" type="line"/>
      <point x="724.517929077" y="1092.77928162"/>
      <point x="659.0" y="1017.91441345"/>
      <point x="659.0" y="832.0" type="curve" smooth="yes"/>
      <point x="659.0" y="766.0" type="line"/>
      <point x="968.0" y="766.0" type="line" smooth="yes"/>
      <point x="995.0" y="766.0"/>
      <point x="1007.97558594" y="745.719528198"/>
      <point x="1007.97558594" y="725.330078125" type="curve" smooth="yes"/>
      <point x="1007.97558594" y="704.720703125"/>
      <point x="994.0" y="684.0"/>
      <point x="967.0" y="684.0" type="curve" smooth="yes"/>
      <point x="658.0" y="684.0" type="line"/>
      <point x="659.0" y="82.0" type="line"/>
      <point x="1021.0" y="82.0" type="line" smooth="yes"/>
      <point x="1047.0" y="82.0"/>
      <point x="1060.16113281" y="61.7266082764"/>
      <point x="1060.16113281" y="41.3408203125" type="curve" smooth="yes"/>
      <point x="1060.16113281" y="20.7278594971"/>
      <point x="1046.76036072" y="0.0"/>
      <point x="1020.0" y="0.0" type="curve" smooth="yes"/>
      <point x="345.0" y="0.0" type="line" smooth="yes"/>
      <point x="314.049880981" y="0.0"/>
      <point x="298.71875" y="21.1338500977"/>
      <point x="298.71875" y="41.943359375" type="curve" smooth="yes"/>
      <point x="298.71875" y="62.124206543"/>
      <point x="313.0" y="82.0"/>
      <point x="341.0" y="82.0" type="curve" smooth="yes"/>
      <point x="562.0" y="82.0" type="line"/>
      <point x="562.0" y="684.0" type="line"/>
      <point x="370.0" y="684.0" type="line" smooth="yes"/>
      <point x="339.0" y="684.0"/>
      <point x="323.71875" y="705.133850098"/>
      <point x="323.71875" y="725.943359375" type="curve" smooth="yes"/>
      <point x="323.71875" y="746.124206543"/>
      <point x="338.0" y="766.0"/>
      <point x="366.0" y="766.0" type="curve" smooth="yes"/>
      <point x="562.0" y="766.0" type="line"/>
      <point x="562.0" y="838.0" type="line" smooth="yes"/>
      <point x="562.0" y="1079.0"/>
      <point x="722.615386963" y="1188.0"/>
      <point x="997.0" y="1188.0" type="curve" smooth="yes"/>
      <point x="1027.0" y="1188.0"/>
      <point x="1054.0" y="1169.0"/>
      <point x="1054.0" y="1137.0" type="curve" smooth="yes"/>
    </contour>
  </outline>
</glyph>
<glyph name="g" format="1">
  <advance width="1240"/>
  <unicode hex="0067"/>
  <outline>
    <contour>
      <point x="573" y="86" type="line"/>
      <point x="656" y="86" type="line" smooth="yes"/>
      <point x="881" y="86"/>
      <point x="1009" y="75"/>
      <point x="1009" y="-114" type="curve" smooth="yes"/>
      <point x="1009" y="-278"/>
      <point x="804" y="-350"/>
      <point x="600" y="-350" type="curve" smooth="yes"/>
      <point x="443" y="-350"/>
      <point x="293" y="-306"/>
      <point x="293" y="-147" type="curve" smooth="yes"/>
      <point x="293" y="-47"/>
      <point x="346" y="2"/>
      <point x="412" y="35" type="curve"/>
      <point x="352" y="64"/>
      <point x="318" y="100"/>
      <point x="318" y="162" type="curve" smooth="yes"/>
      <point x="318" y="239"/>
      <point x="408" y="301"/>
      <point x="463" y="308" type="curve"/>
      <point x="359" y="351"/>
      <point x="291" y="413"/>
      <point x="291" y="530" type="curve" smooth="yes"/>
      <point x="291" y="714"/>
      <point x="442" y="813"/>
      <point x="614" y="813" type="curve" smooth="yes"/>
      <point x="702" y="813"/>
      <point x="789" y="787"/>
      <point x="853" y="734" type="curve"/>
      <point x="1005" y="835" type="line" smooth="yes"/>
      <point x="1051" y="866"/>
      <point x="1093" y="877"/>
      <point x="1126" y="877" type="curve" smooth="yes"/>
      <point x="1174" y="877"/>
      <point x="1184" y="851"/>
      <point x="1184" y="826" type="curve" smooth="yes"/>
      <point x="1184" y="798"/>
      <point x="1151" y="775"/>
      <point x="1051" y="775" type="curve"/>
      <point x="882" y="701" type="line"/>
      <point x="918" y="656"/>
      <point x="939" y="588"/>
      <point x="939" y="525" type="curve" smooth="yes"/>
      <point x="939" y="347"/>
      <point x="824" y="264"/>
      <point x="603" y="264" type="curve" smooth="yes"/>
      <point x="500" y="264"/>
      <point x="414" y="221"/>
      <point x="414" y="167" type="curve" smooth="yes"/>
      <point x="414" y="123"/>
      <point x="432" y="86"/>
      <point x="563" y="86" type="curve" smooth="yes"/>
    </contour>
    <contour>
      <point x="475" y="14" type="line"/>
      <point x="436" y="-1"/>
      <point x="389" y="-65"/>
      <point x="389" y="-122" type="curve" smooth="yes"/>
      <point x="389" y="-238"/>
      <point x="462" y="-268"/>
      <point x="598" y="-268" type="curve" smooth="yes"/>
      <point x="740" y="-268"/>
      <point x="913" y="-232"/>
      <point x="913" y="-118" type="curve" smooth="yes"/>
      <point x="913" y="4"/>
      <point x="852" y="14"/>
      <point x="659" y="14" type="curve" smooth="yes"/>
    </contour>
    <contour>
      <point x="843" y="519" type="curve" smooth="yes"/>
      <point x="843" y="664"/>
      <point x="734" y="731"/>
      <point x="612" y="731" type="curve" smooth="yes"/>
      <point x="489" y="731"/>
      <point x="387" y="661"/>
      <point x="387" y="527" type="curve" smooth="yes"/>
      <point x="387" y="405"/>
      <point x="485" y="338"/>
      <point x="606" y="338" type="curve" smooth="yes"/>
      <point x="728" y="338"/>
      <point x="843" y="382"/>
    </contour>
  </outline>
</glyph>
<glyph name="h" format="1">
  <advance width="1240"/>
  <unicode hex="0068"/>
  <outline>
    <contour>
      <point x="725" y="731" type="curve" smooth="yes"/>
      <point x="533" y="731"/>
      <point x="405" y="601"/>
      <point x="405" y="497" type="curve" smooth="yes"/>
      <point x="405" y="82" type="line"/>
      <point x="510" y="82" type="line" smooth="yes"/>
      <point x="542" y="82"/>
      <point x="558" y="62"/>
      <point x="558" y="42" type="curve" smooth="yes"/>
      <point x="558" y="21"/>
      <point x="541" y="0"/>
      <point x="508" y="0" type="curve" smooth="yes"/>
      <point x="205" y="0" type="line" smooth="yes"/>
      <point x="174" y="0"/>
      <point x="159" y="22"/>
      <point x="159" y="43" type="curve" smooth="yes"/>
      <point x="159" y="63"/>
      <point x="173" y="82"/>
      <point x="201" y="82" type="curve"/>
      <point x="309" y="82" type="line"/>
      <point x="309" y="1091" type="line"/>
      <point x="161" y="1082" type="line" smooth="yes"/>
      <point x="137" y="1081"/>
      <point x="122" y="1098"/>
      <point x="122" y="1118" type="curve" smooth="yes"/>
      <point x="122" y="1134"/>
      <point x="131" y="1157"/>
      <point x="155" y="1159" type="curve" smooth="yes"/>
      <point x="344" y="1178" type="line" smooth="yes"/>
      <point x="352" y="1179"/>
      <point x="358" y="1180"/>
      <point x="364" y="1180" type="curve" smooth="yes"/>
      <point x="393" y="1180"/>
      <point x="405" y="1164"/>
      <point x="405" y="1141" type="curve" smooth="yes"/>
      <point x="405" y="639" type="line"/>
      <point x="455" y="737"/>
      <point x="582" y="813"/>
      <point x="720" y="813" type="curve" smooth="yes"/>
      <point x="913" y="813"/>
      <point x="1001" y="707"/>
      <point x="1001" y="533" type="curve" smooth="yes"/>
      <point x="1001" y="82" type="line"/>
      <point x="1110" y="82" type="line" smooth="yes"/>
      <point x="1137" y="82"/>
      <point x="1150" y="62"/>
      <point x="1150" y="42" type="curve" smooth="yes"/>
      <point x="1150" y="21"/>
      <point x="1136" y="0"/>
      <point x="1108" y="0" type="curve" smooth="yes"/>
      <point x="763" y="0" type="line" smooth="yes"/>
      <point x="732" y="0"/>
      <point x="717" y="22"/>
      <point x="717" y="43" type="curve" smooth="yes"/>
      <point x="717" y="63"/>
      <point x="731" y="82"/>
      <point x="759" y="82" type="curve" smooth="yes"/>
      <point x="905" y="82" type="line"/>
      <point x="905" y="540" type="line" smooth="yes"/>
      <point x="905" y="659"/>
      <point x="846" y="731"/>
    </contour>
  </outline>
</glyph>
<glyph name="j" format="1">
  <advance width="1240"/>
  <unicode hex="006A"/>
  <outline>
    <contour>
      <point x="799" y="1182" type="curve" smooth="yes"/>
      <point x="856" y="1182"/>
      <point x="902" y="1135"/>
      <point x="902" y="1078" type="curve" smooth="yes"/>
      <point x="902" y="1021"/>
      <point x="856" y="975"/>
      <point x="799" y="975" type="curve" smooth="yes"/>
      <point x="742" y="975"/>
      <point x="695" y="1021"/>
      <point x="695" y="1078" type="curve" smooth="yes"/>
      <point x="695" y="1135"/>
      <point x="742" y="1182"/>
    </contour>
    <contour>
      <point x="367.0" y="-310.0" type="curve" smooth="yes"/>
      <point x="333.518890381" y="-310"/>
      <point x="316.094726562" y="-288.15447998"/>
      <point x="316.094726562" y="-266.109375" type="curve" smooth="yes"/>
      <point x="316.094726562" y="-243.658187866"/>
      <point x="334.8956604" y="-221.0"/>
      <point x="374.0" y="-221.0" type="curve" smooth="yes"/>
      <point x="549.131240845" y="-221.0"/>
      <point x="799.0" y="-156.0"/>
      <point x="799.0" y="-1.0" type="curve" smooth="yes"/>
      <point x="799.0" y="731.0" type="line"/>
      <point x="343.0" y="731.0" type="line" smooth="yes"/>
      <point x="314.0" y="731.0"/>
      <point x="299.481445312" y="752.520339966"/>
      <point x="299.481445312" y="773.51171875" type="curve" smooth="yes"/>
      <point x="299.481445312" y="793.495574951"/>
      <point x="312.52293396" y="813.0"/>
      <point x="339.0" y="813.0" type="curve" smooth="yes"/>
      <point x="859.0" y="813.0" type="line" smooth="yes"/>
      <point x="879.0" y="813.0"/>
      <point x="895.0" y="805.0"/>
      <point x="895.0" y="784.0" type="curve" smooth="yes"/>
      <point x="895.0" y="-11.0" type="line" smooth="yes"/>
      <point x="895.0" y="-198.66065979"/>
      <point x="612.0" y="-310.0"/>
    </contour>
  </outline>
</glyph>
<glyph name="l" format="1">
  <advance width="1240"/>
  <unicode hex="006C"/>
  <outline>
    <contour>
      <point x="735" y="1150" type="curve" smooth="yes"/>
      <point x="735" y="82" type="line"/>
      <point x="1075" y="82" type="line" smooth="yes"/>
      <point x="1101" y="82"/>
      <point x="1114" y="61"/>
      <point x="1114" y="41" type="curve" smooth="yes"/>
      <point x="1114" y="20"/>
      <point x="1101" y="0"/>
      <point x="1074" y="0" type="curve" smooth="yes"/>
      <point x="274" y="0" type="line" smooth="yes"/>
      <point x="243" y="0"/>
      <point x="228" y="21"/>
      <point x="228" y="42" type="curve" smooth="yes"/>
      <point x="228" y="62"/>
      <point x="242" y="82"/>
      <point x="270" y="82" type="curve" smooth="yes"/>
      <point x="639" y="82" type="line"/>
      <point x="639" y="1090" type="line"/>
      <point x="286" y="1062" type="line"/>
      <point x="283" y="1062"/>
      <point x="281" y="1061"/>
      <point x="279" y="1061" type="curve" smooth="yes"/>
      <point x="252" y="1061"/>
      <point x="238" y="1082"/>
      <point x="238" y="1103" type="curve" smooth="yes"/>
      <point x="238" y="1122"/>
      <point x="248" y="1140"/>
      <point x="270" y="1143" type="curve" smooth="yes"/>
      <point x="688" y="1181" type="line"/>
      <point x="691" y="1181"/>
      <point x="694" y="1182"/>
      <point x="699" y="1182" type="curve" smooth="yes"/>
      <point x="720" y="1182"/>
      <point x="735" y="1170"/>
    </contour>
  </outline>
</glyph>
<glyph name="p" format="1">
  <advance width="1240"/>
  <unicode hex="0070"/>
  <outline>
    <contour>
      <point x="971" y="398" type="curve" smooth="yes"/>
      <point x="971" y="221"/>
      <point x="874" y="65"/>
      <point x="683" y="65" type="curve" smooth="yes"/>
      <point x="556" y="65"/>
      <point x="468" y="115"/>
      <point x="405" y="194" type="curve"/>
      <point x="405" y="586" type="line"/>
      <point x="463" y="669"/>
      <point x="556" y="731"/>
      <point x="691" y="731" type="curve" smooth="yes"/>
      <point x="877" y="731"/>
      <point x="971" y="577"/>
    </contour>
    <contour>
      <point x="399" y="690" type="curve"/>
      <point x="396" y="759" type="line" smooth="yes"/>
      <point x="395" y="782"/>
      <point x="384" y="798"/>
      <point x="357" y="798" type="curve" smooth="yes"/>
      <point x="352" y="798"/>
      <point x="346" y="797"/>
      <point x="339" y="796" type="curve"/>
      <point x="175" y="763" type="line" smooth="yes"/>
      <point x="151" y="757"/>
      <point x="142" y="738"/>
      <point x="142" y="722" type="curve" smooth="yes"/>
      <point x="142" y="702"/>
      <point x="157" y="684"/>
      <point x="181" y="684" type="curve" smooth="yes"/>
      <point x="187" y="684"/>
      <point x="194" y="686"/>
      <point x="201" y="687" type="curve"/>
      <point x="309" y="708" type="line"/>
      <point x="309" y="-288" type="line"/>
      <point x="219" y="-288" type="line" smooth="yes"/>
      <point x="192" y="-288"/>
      <point x="179" y="-308"/>
      <point x="179" y="-328" type="curve" smooth="yes"/>
      <point x="179" y="-349"/>
      <point x="193" y="-370"/>
      <point x="221" y="-370" type="curve" smooth="yes"/>
      <point x="617" y="-370" type="line" smooth="yes"/>
      <point x="648" y="-370"/>
      <point x="663" y="-348"/>
      <point x="663" y="-327" type="curve" smooth="yes"/>
      <point x="663" y="-307"/>
      <point x="649" y="-288"/>
      <point x="621" y="-288" type="curve" smooth="yes"/>
      <point x="405" y="-288" type="line"/>
      <point x="405" y="89" type="line"/>
      <point x="479" y="25"/>
      <point x="560" y="-17"/>
      <point x="689" y="-17" type="curve" smooth="yes"/>
      <point x="923" y="-17"/>
      <point x="1067" y="160"/>
      <point x="1067" y="398" type="curve" smooth="yes"/>
      <point x="1067" y="640"/>
      <point x="928" y="813"/>
      <point x="693" y="813" type="curve" smooth="yes"/>
      <point x="566" y="813"/>
      <point x="463" y="755"/>
    </contour>
  </outline>
</glyph>
<glyph name="v" format="1">
  <advance width="1240"/>
  <unicode hex="0076"/>
  <outline>
    <contour>
      <point x="491" y="774" type="line" smooth="yes"/>
      <point x="524" y="774"/>
      <point x="530.3515625" y="753.1171875"/>
      <point x="530.3515625" y="732.428710938" type="curve" smooth="yes"/>
      <point x="530.3515625" y="712.12109375"/>
      <point x="524.0" y="692.0"/>
      <point x="492.0" y="692.0" type="curve" smooth="yes"/>
      <point x="383.0" y="692.0" type="line"/>
      <point x="650.0" y="92.0" type="line"/>
      <point x="894.0" y="692.0" type="line"/>
      <point x="809.0" y="692.0" type="line" smooth="yes"/>
      <point x="776.0" y="692.0"/>
      <point x="769.840820312" y="712.149414062"/>
      <point x="769.840820312" y="732.471679688" type="curve" smooth="yes"/>
      <point x="769.840820312" y="753.146484375"/>
      <point x="777.0" y="774.0"/>
      <point x="810.0" y="774.0" type="curve" smooth="yes"/>
      <point x="1071.0" y="774.0" type="line" smooth="yes"/>
      <point x="1109.00292969" y="774.0"/>
      <point x="1117.41699219" y="753.177734375"/>
      <point x="1117.41699219" y="732.518554688" type="curve" smooth="yes"/>
      <point x="1117.41699219" y="712.1796875"/>
      <point x="1109.57128906" y="692.0"/>
      <point x="1075.0" y="692.0" type="curve" smooth="yes"/>
      <point x="986.0" y="692.0" type="line"/>
      <point x="719.0" y="54.0" type="line" smooth="yes"/>
      <point x="693.338867188" y="-7.5107421875"/>
      <point x="673.396484375" y="-14.37109375"/>
      <point x="646.5703125" y="-14.37109375" type="curve" smooth="yes"/>
      <point x="619.5625" y="-14.37109375"/>
      <point x="598.0" y="-8.0"/>
      <point x="567.0" y="59.0" type="curve" smooth="yes"/>
      <point x="273.0" y="692.0" type="line"/>
      <point x="172.0" y="692.0" type="line" smooth="yes"/>
      <point x="138.0" y="692.0"/>
      <point x="129.862304688" y="712.194335938"/>
      <point x="129.862304688" y="732.5390625" type="curve" smooth="yes"/>
      <point x="129.862304688" y="753.19140625"/>
      <point x="138.0" y="774.0"/>
      <point x="176.0" y="774.0" type="curve" smooth="yes"/>
    </contour>
  </outline>
</glyph>
<glyph name="w" format="1">
  <advance width="1240"/>
  <unicode hex="0077"/>
  <outline>
    <contour>
      <point x="629.890625" y="616" type="line"/>
      <point x="694.018554688" y="544" type="line"/>
      <point x="507.0" y="54.0087890625" type="line" smooth="yes"/>
      <point x="484.0" y="-8.0"/>
      <point x="461.396484375" y="-14.3623046875"/>
      <point x="434.5703125" y="-14.3623046875" type="curve" smooth="yes"/>
      <point x="407.5625" y="-14.3623046875"/>
      <point x="378.0" y="-9.0"/>
      <point x="355.0" y="59.0087890625" type="curve" smooth="yes"/>
      <point x="146.0" y="692.008789062" type="line"/>
      <point x="68.0" y="692.008789062" type="line" smooth="yes"/>
      <point x="34.0" y="692.008789062"/>
      <point x="25.8623046875" y="712.203125"/>
      <point x="25.8623046875" y="732.547851562" type="curve" smooth="yes"/>
      <point x="25.8623046875" y="753.200195312"/>
      <point x="34.0" y="774.008789062"/>
      <point x="72.0" y="774.008789062" type="curve" smooth="yes"/>
      <point x="307.0" y="774.008789062" type="line" smooth="yes"/>
      <point x="340.0" y="774.0"/>
      <point x="346.3515625" y="753.125976562"/>
      <point x="346.3515625" y="732.4375" type="curve" smooth="yes"/>
      <point x="346.3515625" y="712.129882812"/>
      <point x="340.0" y="692.0"/>
      <point x="308.0" y="692.008789062" type="curve" smooth="yes"/>
      <point x="256.0" y="692.008789062" type="line"/>
      <point x="438.0" y="92.0087890625" type="line"/>
    </contour>
    <contour>
      <point x="765.0" y="774.008789062" type="line" smooth="yes"/>
      <point x="798.0" y="774.0"/>
      <point x="804.3515625" y="753.125976562"/>
      <point x="804.3515625" y="732.4375" type="curve" smooth="yes"/>
      <point x="804.3515625" y="712.129882812"/>
      <point x="798.0" y="692.008789062"/>
      <point x="766.0" y="692.008789062" type="curve" smooth="yes"/>
      <point x="657.0" y="692.008789062" type="line"/>
      <point x="869.0" y="92.0087890625" type="line"/>
      <point x="1038.0" y="692.008789062" type="line"/>
      <point x="973.0" y="692.008789062" type="line" smooth="yes"/>
      <point x="940.0" y="692.0"/>
      <point x="933.840820312" y="712.158203125"/>
      <point x="933.840820312" y="732.48046875" type="curve" smooth="yes"/>
      <point x="933.840820312" y="753.155273438"/>
      <point x="941.0" y="774.0"/>
      <point x="974.0" y="774.008789062" type="curve" smooth="yes"/>
      <point x="1195.0" y="774.008789062" type="line" smooth="yes"/>
      <point x="1233.0" y="774.0"/>
      <point x="1241.41699219" y="753.186523438"/>
      <point x="1241.41699219" y="732.52734375" type="curve" smooth="yes"/>
      <point x="1241.41699219" y="712.188476562"/>
      <point x="1233.57128906" y="692.008789062"/>
      <point x="1199.0" y="692.008789062" type="curve" smooth="yes"/>
      <point x="1130.0" y="692.008789062" type="line"/>
      <point x="938.0" y="54.0087890625" type="line" smooth="yes"/>
      <point x="919.0" y="-8.0"/>
      <point x="892.396484375" y="-14.3623046875"/>
      <point x="865.5703125" y="-14.3623046875" type="curve" smooth="yes"/>
      <point x="838.5625" y="-14.3623046875"/>
      <point x="811.0" y="-8.0"/>
      <point x="786.0" y="59.0087890625" type="curve" smooth="yes"/>
      <point x="558.0" y="692.008789062" type="line"/>
      <point x="507.0" y="692.008789062" type="line" smooth="yes"/>
      <point x="473.0" y="692.008789062"/>
      <point x="464.862304688" y="712.203125"/>
      <point x="464.862304688" y="732.547851562" type="curve" smooth="yes"/>
      <point x="464.862304688" y="753.200195312"/>
      <point x="473.0" y="774.008789062"/>
      <point x="511.0" y="774.008789062" type="curve" smooth="yes"/>
    </contour>
  </outline>
</glyph>
<glyph name="x" format="1">
  <advance width="1240"/>
  <unicode hex="0078"/>
  <outline>
    <contour>
      <point x="936" y="692" type="line"/>
      <point x="414" y="82" type="line"/>
      <point x="473" y="82" type="line" smooth="yes"/>
      <point x="505" y="82"/>
      <point x="511.263671875" y="62.0625"/>
      <point x="511.263671875" y="41.849609375" type="curve" smooth="yes"/>
      <point x="511.263671875" y="21.0703125"/>
      <point x="504.0" y="0.0"/>
      <point x="471.0" y="0.0" type="curve" smooth="yes"/>
      <point x="224.0" y="0.0" type="line" smooth="yes"/>
      <point x="186.362304688" y="0.0"/>
      <point x="177.71875" y="21.1337890625"/>
      <point x="177.71875" y="41.943359375" type="curve" smooth="yes"/>
      <point x="177.71875" y="62.1240234375"/>
      <point x="185.0" y="82.0"/>
      <point x="220.0" y="82.0" type="curve" smooth="yes"/>
      <point x="304.0" y="82.0" type="line"/>
      <point x="818.0" y="692.0" type="line"/>
      <point x="773.0" y="692.0" type="line" smooth="yes"/>
      <point x="735.0" y="692.0"/>
      <point x="726.717773438" y="713.014648438"/>
      <point x="726.717773438" y="733.767578125" type="curve" smooth="yes"/>
      <point x="726.717773438" y="754.008789062"/>
      <point x="734.0" y="774.0"/>
      <point x="769.0" y="774.0" type="curve" smooth="yes"/>
      <point x="1036.0" y="774.0" type="line" smooth="yes"/>
      <point x="1068.92773438" y="774.0"/>
      <point x="1075.07617188" y="754.174804688"/>
      <point x="1075.07617188" y="734.020507812" type="curve" smooth="yes"/>
      <point x="1075.07617188" y="713.185546875"/>
      <point x="1068.0" y="692.0"/>
      <point x="1034.0" y="692.0" type="curve" smooth="yes"/>
    </contour>
    <contour>
      <point x="785.0" y="0.0" type="line" smooth="yes"/>
      <point x="747.0" y="0.0"/>
      <point x="728.620117188" y="21.4580078125"/>
      <point x="728.620117188" y="42.4208984375" type="curve" smooth="yes"/>
      <point x="728.620117188" y="62.4365234375"/>
      <point x="745.75" y="82.0"/>
      <point x="780.0" y="82.0" type="curve" smooth="yes"/>
      <point x="860.0" y="82.0" type="line"/>
      <point x="327.0" y="692.0" type="line"/>
      <point x="239.0" y="692.0" type="line" smooth="yes"/>
      <point x="201.0" y="692.0"/>
      <point x="192.717773438" y="713.014648438"/>
      <point x="192.717773438" y="733.767578125" type="curve" smooth="yes"/>
      <point x="192.717773438" y="754.008789062"/>
      <point x="200.0" y="774.0"/>
      <point x="235.0" y="774.0" type="curve" smooth="yes"/>
      <point x="472.0" y="774.0" type="line" smooth="yes"/>
      <point x="504.0" y="774.0"/>
      <point x="510.262695312" y="754.185546875"/>
      <point x="510.262695312" y="734.036132812" type="curve" smooth="yes"/>
      <point x="510.262695312" y="713.197265625"/>
      <point x="503.0" y="692.0"/>
      <point x="470.0" y="692.0" type="curve" smooth="yes"/>
      <point x="430.0" y="692.0" type="line"/>
      <point x="977.0" y="82.0" type="line"/>
      <point x="1048.0" y="82.0" type="line" smooth="yes"/>
      <point x="1080.83300781" y="82.0"/>
      <point x="1097.078125" y="62.0517578125"/>
      <point x="1097.078125" y="41.833984375" type="curve" smooth="yes"/>
      <point x="1097.078125" y="21.0595703125"/>
      <point x="1080.0" y="0.0"/>
      <point x="1046.0" y="0.0" type="curve" smooth="yes"/>
    </contour>
  </outline>
</glyph>
<glyph name="braceleft" format="1">
  <advance width="1241"/>
  <unicode hex="007B"/>
  <outline>
    <contour>
      <point x="657" y="658" type="curve" smooth="yes"/>
      <point x="657" y="597"/>
      <point x="656" y="543"/>
      <point x="568" y="526" type="curve"/>
      <point x="656" y="506"/>
      <point x="657" y="446"/>
      <point x="657" y="385" type="curve" smooth="yes"/>
      <point x="657" y="256"/>
      <point x="597" y="103"/>
      <point x="597" y="-15" type="curve" smooth="yes"/>
      <point x="597" y="-113"/>
      <point x="663" y="-143"/>
      <point x="860" y="-143" type="curve" smooth="yes"/>
      <point x="898" y="-143"/>
      <point x="897" y="-227"/>
      <point x="860" y="-227" type="curve" smooth="yes"/>
      <point x="538" y="-227"/>
      <point x="502" y="-147"/>
      <point x="502" y="8" type="curve" smooth="yes"/>
      <point x="502" y="151"/>
      <point x="564" y="269"/>
      <point x="564" y="385" type="curve" smooth="yes"/>
      <point x="564" y="435"/>
      <point x="539" y="467"/>
      <point x="441" y="467" type="curve" smooth="yes"/>
      <point x="383" y="467"/>
      <point x="373" y="585"/>
      <point x="441" y="585" type="curve" smooth="yes"/>
      <point x="539" y="585"/>
      <point x="564" y="607"/>
      <point x="564" y="657" type="curve" smooth="yes"/>
      <point x="564" y="773"/>
      <point x="502" y="891"/>
      <point x="502" y="1034" type="curve" smooth="yes"/>
      <point x="502" y="1189"/>
      <point x="538" y="1270"/>
      <point x="860" y="1270" type="curve" smooth="yes"/>
      <point x="897" y="1270"/>
      <point x="898" y="1186"/>
      <point x="860" y="1186" type="curve" smooth="yes"/>
      <point x="663" y="1186"/>
      <point x="597" y="1156"/>
      <point x="597" y="1058" type="curve" smooth="yes"/>
      <point x="597" y="940"/>
      <point x="657" y="787"/>
    </contour>
  </outline>
</glyph>
<glyph name="bar" format="1">
  <advance width="1240"/>
  <unicode hex="007C"/>
  <outline>
    <contour>
      <point x="701" y="1257" type="curve" smooth="yes"/>
      <point x="734" y="1257"/>
      <point x="756" y="1239"/>
      <point x="759" y="1208" type="curve"/>
      <point x="759" y="-67" type="line" smooth="yes"/>
      <point x="759" y="-96"/>
      <point x="726" y="-112"/>
      <point x="699" y="-112" type="curve" smooth="yes"/>
      <point x="663" y="-112"/>
      <point x="639" y="-97"/>
      <point x="639" y="-56" type="curve" smooth="yes"/>
      <point x="639" y="1208" type="line" smooth="yes"/>
      <point x="639" y="1241"/>
      <point x="670" y="1257"/>
    </contour>
  </outline>
</glyph>
<glyph name="cent" format="1">
  <advance width="1240"/>
  <unicode hex="00A2"/>
  <outline>
    <contour>
      <point x="634" y="990" type="curve" smooth="yes"/>
      <point x="661" y="990"/>
      <point x="660" y="976"/>
      <point x="660" y="951" type="curve" smooth="yes"/>
      <point x="660" y="-189" type="line" smooth="yes"/>
      <point x="660" y="-216"/>
      <point x="657" y="-236"/>
      <point x="634" y="-236" type="curve" smooth="yes"/>
      <point x="610" y="-236"/>
      <point x="607" y="-222"/>
      <point x="607" y="-190" type="curve" smooth="yes"/>
      <point x="607" y="951" type="line" smooth="yes"/>
      <point x="607" y="977"/>
      <point x="610" y="990"/>
    </contour>
    <component base="c"/>
  </outline>
</glyph>
<glyph name="yen" format="1">
  <advance width="1240"/>
  <unicode hex="00A5"/>
  <outline>
    <contour>
      <point x="1065" y="1171" type="line" smooth="yes"/>
      <point x="1099" y="1171"/>
      <point x="1116" y="1151"/>
      <point x="1116" y="1132" type="curve" smooth="yes"/>
      <point x="1116" y="1113"/>
      <point x="1100" y="1095"/>
      <point x="1067" y="1095" type="curve" smooth="yes"/>
      <point x="1012" y="1095" type="line"/>
      <point x="689" y="548" type="line"/>
      <point x="689" y="86" type="line"/>
      <point x="921" y="86" type="line" smooth="yes"/>
      <point x="953" y="86"/>
      <point x="969" y="65"/>
      <point x="969" y="44" type="curve" smooth="yes"/>
      <point x="969" y="22"/>
      <point x="952" y="0"/>
      <point x="919" y="0" type="curve" smooth="yes"/>
      <point x="334" y="0" type="line" smooth="yes"/>
      <point x="300" y="0"/>
      <point x="282" y="22"/>
      <point x="282" y="44" type="curve" smooth="yes"/>
      <point x="282" y="65"/>
      <point x="299" y="86"/>
      <point x="332" y="86" type="curve" smooth="yes"/>
      <point x="593" y="86" type="line"/>
      <point x="593" y="553" type="line"/>
      <point x="258" y="1095" type="line"/>
      <point x="174" y="1095" type="line" smooth="yes"/>
      <point x="141" y="1095"/>
      <point x="124" y="1114"/>
      <point x="124" y="1133" type="curve" smooth="yes"/>
      <point x="124" y="1152"/>
      <point x="142" y="1171"/>
      <point x="175" y="1171" type="curve" smooth="yes"/>
      <point x="505" y="1171" type="line" smooth="yes"/>
      <point x="539" y="1171"/>
      <point x="556" y="1152"/>
      <point x="556" y="1133" type="curve" smooth="yes"/>
      <point x="556" y="1114"/>
      <point x="539" y="1095"/>
      <point x="506" y="1095" type="curve" smooth="yes"/>
      <point x="370" y="1095" type="line"/>
      <point x="646" y="633" type="line"/>
      <point x="914" y="1095" type="line"/>
      <point x="803" y="1095" type="line" smooth="yes"/>
      <point x="770" y="1095"/>
      <point x="753" y="1114"/>
      <point x="753" y="1133" type="curve" smooth="yes"/>
      <point x="753" y="1152"/>
      <point x="771" y="1171"/>
      <point x="804" y="1171" type="curve" smooth="yes"/>
    </contour>
    <contour>
      <point x="956" y="578" type="line" smooth="yes"/>
      <point x="988.932312012" y="578"/>
      <point x="995.333007812" y="560.047851562"/>
      <point x="995.333007812" y="542.071289062" type="curve" smooth="yes"/>
      <point x="995.333007812" y="524.047851562"/>
      <point x="988.845199585" y="506.0"/>
      <point x="956.0" y="506.0" type="curve" smooth="yes"/>
      <point x="656.0" y="506.0" type="line"/>
      <point x="656.0" y="369.0" type="line"/>
      <point x="956.0" y="369.0" type="line" smooth="yes"/>
      <point x="988.932403564" y="369.0"/>
      <point x="995.333984375" y="351.047851562"/>
      <point x="995.333984375" y="333.071289062" type="curve" smooth="yes"/>
      <point x="995.333984375" y="315.047851562"/>
      <point x="988.845291138" y="297.0"/>
      <point x="956.0" y="297.0" type="curve" smooth="yes"/>
      <point x="318.0" y="297.0" type="line" smooth="yes"/>
      <point x="285.067687988" y="297.0"/>
      <point x="278.666992188" y="314.952148438"/>
      <point x="278.666992188" y="332.928710938" type="curve" smooth="yes"/>
      <point x="278.666992188" y="350.952148438"/>
      <point x="285.154800415" y="369.0"/>
      <point x="318.0" y="369.0" type="curve" smooth="yes"/>
      <point x="607.0" y="369.0" type="line"/>
      <point x="607.0" y="506.0" type="line"/>
      <point x="318.0" y="506.0" type="line" smooth="yes"/>
      <point x="285.067596436" y="506.0"/>
      <point x="278.666015625" y="523.952148438"/>
      <point x="278.666015625" y="541.928710938" type="curve" smooth="yes"/>
      <point x="278.666015625" y="559.952148438"/>
      <point x="285.154708862" y="578.0"/>
      <point x="318.0" y="578.0" type="curve" smooth="yes"/>
    </contour>
  </outline>
</glyph>
<glyph name="brokenbar" format="1">
  <advance width="1241"/>
  <unicode hex="00A6"/>
  <outline>
    <contour>
      <point x="664" y="-56" type="line" smooth="yes"/>
      <point x="664" y="-73"/>
      <point x="642" y="-81"/>
      <point x="621" y="-81" type="curve" smooth="yes"/>
      <point x="599" y="-81"/>
      <point x="577" y="-73"/>
      <point x="577" y="-56" type="curve" smooth="yes"/>
      <point x="577" y="412" type="line" smooth="yes"/>
      <point x="577" y="433"/>
      <point x="599" y="443"/>
      <point x="621" y="443" type="curve" smooth="yes"/>
      <point x="642" y="443"/>
      <point x="664" y="433"/>
      <point x="664" y="412" type="curve" smooth="yes"/>
    </contour>
    <contour>
      <point x="664" y="704" type="line" smooth="yes"/>
      <point x="664" y="688"/>
      <point x="642" y="679"/>
      <point x="621" y="679" type="curve" smooth="yes"/>
      <point x="599" y="679"/>
      <point x="577" y="688"/>
      <point x="577" y="704" type="curve" smooth="yes"/>
      <point x="577" y="1172" type="line" smooth="yes"/>
      <point x="577" y="1193"/>
      <point x="599" y="1203"/>
      <point x="621" y="1203" type="curve" smooth="yes"/>
      <point x="642" y="1203"/>
      <point x="664" y="1193"/>
      <point x="664" y="1172" type="curve" smooth="yes"/>
    </contour>
  </outline>
</glyph>
<glyph name="section" format="1">
  <advance width="1240"/>
  <unicode hex="00A7"/>
  <outline>
    <contour>
      <point x="428.0" y="1005.0" type="curve" smooth="yes"/>
      <point x="428.0" y="1113.0"/>
      <point x="513.0" y="1190.0"/>
      <point x="627.0" y="1190.0" type="curve" smooth="yes"/>
      <point x="725.0" y="1190.0"/>
      <point x="840.0" y="1133.0"/>
      <point x="840.0" y="1041.0" type="curve" smooth="yes"/>
      <point x="840.0" y="1017.0"/>
      <point x="823.0" y="1002.0"/>
      <point x="800.0" y="1002.0" type="curve" smooth="yes"/>
      <point x="777.0" y="1002.0"/>
      <point x="759.0" y="1015.0"/>
      <point x="753.0" y="1033.0" type="curve" smooth="yes"/>
      <point x="734.0" y="1083.0"/>
      <point x="692.0" y="1117.0"/>
      <point x="631.0" y="1117.0" type="curve" smooth="yes"/>
      <point x="572.0" y="1117.0"/>
      <point x="521.0" y="1078.0"/>
      <point x="521.0" y="1020.0" type="curve" smooth="yes"/>
      <point x="521.0" y="992.0"/>
      <point x="529.0" y="964.0"/>
      <point x="544.0" y="939.0" type="curve" smooth="yes"/>
      <point x="595.0" y="851.0"/>
      <point x="682.0" y="785.0"/>
      <point x="746.0" y="707.0" type="curve" smooth="yes"/>
      <point x="784.0" y="659.0"/>
      <point x="825.0" y="601.0"/>
      <point x="825.0" y="522.0" type="curve" smooth="yes"/>
      <point x="825.0" y="447.0"/>
      <point x="793.0" y="374.0"/>
      <point x="734.0" y="346.0" type="curve"/>
      <point x="766.0" y="300.0"/>
      <point x="804.0" y="238.0"/>
      <point x="804.0" y="168.0" type="curve" smooth="yes"/>
      <point x="804.0" y="58.0"/>
      <point x="721.0" y="-17.0"/>
      <point x="607.0" y="-17.0" type="curve" smooth="yes"/>
      <point x="509.0" y="-17.0"/>
      <point x="394.0" y="39.0"/>
      <point x="394.0" y="131.0" type="curve" smooth="yes"/>
      <point x="394.0" y="155.0"/>
      <point x="411.0" y="171.0"/>
      <point x="435.0" y="171.0" type="curve" smooth="yes"/>
      <point x="457.0" y="171.0"/>
      <point x="474.0" y="159.0"/>
      <point x="481.0" y="140.0" type="curve" smooth="yes"/>
      <point x="500.0" y="90.0"/>
      <point x="540.0" y="56.0"/>
      <point x="601.0" y="56.0" type="curve" smooth="yes"/>
      <point x="661.0" y="56.0"/>
      <point x="712.0" y="95.0"/>
      <point x="712.0" y="152.0" type="curve" smooth="yes"/>
      <point x="712.0" y="181.0"/>
      <point x="705.0" y="208.0"/>
      <point x="690.0" y="234.0" type="curve" smooth="yes"/>
      <point x="638.0" y="322.0"/>
      <point x="551.0" y="387.0"/>
      <point x="488.0" y="465.0" type="curve" smooth="yes"/>
      <point x="449.0" y="513.0"/>
      <point x="408.0" y="572.0"/>
      <point x="408.0" y="651.0" type="curve" smooth="yes"/>
      <point x="408.0" y="726.0"/>
      <point x="440.0" y="799.0"/>
      <point x="500.0" y="827.0" type="curve"/>
      <point x="466.0" y="873.0"/>
      <point x="428.0" y="933.0"/>
    </contour>
    <contour>
      <point x="536.0" y="782.0" type="curve"/>
      <point x="510.0" y="761.0"/>
      <point x="498.0" y="722.0"/>
      <point x="498.0" y="690.0" type="curve" smooth="yes"/>
      <point x="498.0" y="665.0"/>
      <point x="506.0" y="638.0"/>
      <point x="520.0" y="613.0" type="curve" smooth="yes"/>
      <point x="566.0" y="531.0"/>
      <point x="637.0" y="464.0"/>
      <point x="698.0" y="391.0" type="curve"/>
      <point x="723.0" y="411.0"/>
      <point x="736.0" y="451.0"/>
      <point x="736.0" y="484.0" type="curve" smooth="yes"/>
      <point x="736.0" y="509.0"/>
      <point x="728.0" y="534.0"/>
      <point x="713.0" y="560.0" type="curve" smooth="yes"/>
      <point x="667.0" y="642.0"/>
      <point x="597.0" y="707.0"/>
    </contour>
  </outline>
</glyph>
<glyph name="dieresis" format="1">
  <advance width="1240"/>
  <unicode hex="00A8"/>
  <outline>
    <contour>
      <point x="532" y="978" type="curve" smooth="yes"/>
      <point x="482" y="978"/>
      <point x="441" y="1019"/>
      <point x="441" y="1069" type="curve" smooth="yes"/>
      <point x="441" y="1119"/>
      <point x="482" y="1160"/>
      <point x="532" y="1160" type="curve" smooth="yes"/>
      <point x="582" y="1160"/>
      <point x="623" y="1119"/>
      <point x="623" y="1069" type="curve" smooth="yes"/>
      <point x="623" y="1019"/>
      <point x="582" y="978"/>
    </contour>
    <contour>
      <point x="867" y="978" type="curve" smooth="yes"/>
      <point x="817" y="978"/>
      <point x="777" y="1019"/>
      <point x="777" y="1069" type="curve" smooth="yes"/>
      <point x="777" y="1119"/>
      <point x="817" y="1160"/>
      <point x="867" y="1160" type="curve" smooth="yes"/>
      <point x="917" y="1160"/>
      <point x="958" y="1119"/>
      <point x="958" y="1069" type="curve" smooth="yes"/>
      <point x="958" y="1019"/>
      <point x="917" y="978"/>
    </contour>
  </outline>
</glyph>
<glyph name="copyright" format="1">
  <advance width="1241.0"/>
  <unicode hex="00A9"/>
  <outline>
    <contour>
      <point x="128.0" y="583.0" type="curve" smooth="yes"/>
      <point x="128.0" y="265.0"/>
      <point x="296.0" y="83.0"/>
      <point x="620.0" y="83.0" type="curve" smooth="yes"/>
      <point x="944.0" y="83.0"/>
      <point x="1113.0" y="265.0"/>
      <point x="1113.0" y="583.0" type="curve" smooth="yes"/>
      <point x="1113.0" y="902.0"/>
      <point x="943.0" y="1089.0"/>
      <point x="620.0" y="1089.0" type="curve" smooth="yes"/>
      <point x="297.0" y="1089.0"/>
      <point x="128.0" y="900.0"/>
    </contour>
    <contour>
      <point x="1193.0" y="581.0" type="curve" smooth="yes"/>
      <point x="1193.0" y="218.0"/>
      <point x="981.0" y="13.0"/>
      <point x="620.0" y="13.0" type="curve" smooth="yes"/>
      <point x="259.0" y="13.0"/>
      <point x="48.0" y="218.0"/>
      <point x="48.0" y="581.0" type="curve" smooth="yes"/>
      <point x="48.0" y="944.0"/>
      <point x="258.0" y="1158.0"/>
      <point x="620.0" y="1158.0" type="curve" smooth="yes"/>
      <point x="982.0" y="1158.0"/>
      <point x="1193.0" y="944.0"/>
    </contour>
    <contour>
      <point x="923.0" y="443" type="curve" smooth="yes"/>
      <point x="901.0" y="345"/>
      <point x="794.0" y="232"/>
      <point x="627.0" y="232" type="curve" smooth="yes"/>
      <point x="431.0" y="232"/>
      <point x="293.0" y="372"/>
      <point x="293.0" y="596" type="curve" smooth="yes"/>
      <point x="293.0" y="799"/>
      <point x="439.0" y="946"/>
      <point x="631.0" y="946" type="curve" smooth="yes"/>
      <point x="730.0" y="946"/>
      <point x="810.0" y="897"/>
      <point x="842.0" y="839" type="curve"/>
      <point x="842.0" y="909" type="line" smooth="yes"/>
      <point x="842.0" y="928"/>
      <point x="858.0" y="938"/>
      <point x="873.0" y="938" type="curve" smooth="yes"/>
      <point x="888.0" y="938"/>
      <point x="903.0" y="928"/>
      <point x="903.0" y="908" type="curve" smooth="yes"/>
      <point x="903.0" y="730" type="line" smooth="yes"/>
      <point x="903.0" y="712"/>
      <point x="889.0" y="703"/>
      <point x="875.0" y="703" type="curve" smooth="yes"/>
      <point x="860.0" y="703"/>
      <point x="850.0" y="714"/>
      <point x="845.0" y="730" type="curve" smooth="yes"/>
      <point x="812.0" y="837"/>
      <point x="742.0" y="884"/>
      <point x="631.0" y="884" type="curve" smooth="yes"/>
      <point x="473.0" y="884"/>
      <point x="373.0" y="759"/>
      <point x="373.0" y="597" type="curve" smooth="yes"/>
      <point x="373.0" y="405"/>
      <point x="481.0" y="298"/>
      <point x="627.0" y="298" type="curve" smooth="yes"/>
      <point x="747.0" y="298"/>
      <point x="826.0" y="356"/>
      <point x="866.0" y="456" type="curve" smooth="yes"/>
      <point x="880.0" y="491"/>
      <point x="930.0" y="476"/>
    </contour>
  </outline>
</glyph>
<glyph name="ordfeminine" format="1">
  <advance width="1240"/>
  <unicode hex="00AA"/>
  <outline>
    <contour>
      <point x="766" y="66" type="curve" smooth="yes"/>
      <point x="766" y="21"/>
      <point x="687" y="-16"/>
      <point x="648" y="-16" type="curve" smooth="yes"/>
      <point x="602" y="-16"/>
      <point x="574" y="7"/>
      <point x="564" y="53" type="curve"/>
      <point x="523" y="5"/>
      <point x="454" y="-17"/>
      <point x="378" y="-17" type="curve" smooth="yes"/>
      <point x="292" y="-17"/>
      <point x="227" y="40"/>
      <point x="227" y="125" type="curve" smooth="yes"/>
      <point x="227" y="276"/>
      <point x="412" y="285"/>
      <point x="553" y="297" type="curve"/>
      <point x="553" y="365" type="line" smooth="yes"/>
      <point x="553" y="409"/>
      <point x="508" y="424"/>
      <point x="464" y="424" type="curve" smooth="yes"/>
      <point x="385" y="424"/>
      <point x="357" y="408"/>
      <point x="304" y="374" type="curve" smooth="yes"/>
      <point x="299" y="371"/>
      <point x="294" y="368"/>
      <point x="289" y="368" type="curve" smooth="yes"/>
      <point x="270" y="368"/>
      <point x="252" y="390"/>
      <point x="252" y="410" type="curve" smooth="yes"/>
      <point x="252" y="478"/>
      <point x="382" y="496"/>
      <point x="452" y="496" type="curve" smooth="yes"/>
      <point x="595" y="496"/>
      <point x="637" y="441"/>
      <point x="637" y="300" type="curve" smooth="yes"/>
      <point x="637" y="87" type="line" smooth="yes"/>
      <point x="637" y="69"/>
      <point x="643" y="57"/>
      <point x="656" y="57" type="curve" smooth="yes"/>
      <point x="681" y="57"/>
      <point x="717" y="102"/>
      <point x="737" y="102" type="curve" smooth="yes"/>
      <point x="749" y="102"/>
      <point x="766" y="82"/>
    </contour>
    <contour>
      <point x="553" y="234" type="line"/>
      <point x="464" y="225"/>
      <point x="317" y="221"/>
      <point x="317" y="127" type="curve" smooth="yes"/>
      <point x="317" y="79"/>
      <point x="359" y="57"/>
      <point x="407" y="57" type="curve" smooth="yes"/>
      <point x="466" y="57"/>
      <point x="514" y="80"/>
      <point x="553" y="111" type="curve"/>
    </contour>
  </outline>
</glyph>
<glyph name="guillemotleft" format="1">
  <advance width="1240"/>
  <unicode hex="00AB"/>
  <outline>
    <contour>
      <point x="918" y="216" type="curve" smooth="yes"/>
      <point x="574" y="475" type="line" smooth="yes"/>
      <point x="525" y="512"/>
      <point x="523" y="547"/>
      <point x="574" y="586" type="curve" smooth="yes"/>
      <point x="908" y="841" type="line" smooth="yes"/>
      <point x="952" y="875"/>
      <point x="1011" y="820"/>
      <point x="954" y="777" type="curve" smooth="yes"/>
      <point x="633" y="531" type="line"/>
      <point x="963" y="287" type="line" smooth="yes"/>
      <point x="1029" y="238"/>
      <point x="976" y="172"/>
    </contour>
    <contour>
      <point x="554" y="216" type="curve" smooth="yes"/>
      <point x="210" y="475" type="line" smooth="yes"/>
      <point x="161" y="512"/>
      <point x="159" y="547"/>
      <point x="210" y="586" type="curve" smooth="yes"/>
      <point x="544" y="841" type="line" smooth="yes"/>
      <point x="588" y="875"/>
      <point x="647" y="820"/>
      <point x="590" y="777" type="curve" smooth="yes"/>
      <point x="269" y="531" type="line"/>
      <point x="599" y="287" type="line" smooth="yes"/>
      <point x="665" y="238"/>
      <point x="612" y="172"/>
    </contour>
  </outline>
</glyph>
<glyph name="logicalnot" format="1">
  <advance width="1240"/>
  <unicode hex="00AC"/>
  <outline>
    <contour>
      <point x="117" y="488" type="curve" smooth="yes"/>
      <point x="117" y="526"/>
      <point x="148" y="558"/>
      <point x="186" y="558" type="curve" smooth="yes"/>
      <point x="693" y="558" type="line" smooth="yes"/>
      <point x="731" y="558"/>
      <point x="763" y="526"/>
      <point x="763" y="488" type="curve" smooth="yes"/>
      <point x="763" y="486" type="line"/>
      <point x="763" y="279" type="line" smooth="yes"/>
      <point x="763" y="241"/>
      <point x="736" y="223"/>
      <point x="709" y="223" type="curve" smooth="yes"/>
      <point x="682" y="223"/>
      <point x="656" y="240"/>
      <point x="656" y="275" type="curve" smooth="yes"/>
      <point x="656" y="418" type="line"/>
      <point x="186" y="418" type="line" smooth="yes"/>
      <point x="147" y="418"/>
      <point x="117" y="449"/>
    </contour>
  </outline>
</glyph>
<glyph name="uni00AD" format="1">
  <advance width="1240"/>
  <unicode hex="00AD"/>
  <outline>
    <contour>
      <point x="895" y="533" type="line" smooth="yes"/>
      <point x="925" y="533"/>
      <point x="940" y="512"/>
      <point x="940" y="490" type="curve" smooth="yes"/>
      <point x="940" y="469"/>
      <point x="925" y="447"/>
      <point x="895" y="447" type="curve" smooth="yes"/>
      <point x="345" y="447" type="line" smooth="yes"/>
      <point x="315" y="447"/>
      <point x="300" y="469"/>
      <point x="300" y="490" type="curve" smooth="yes"/>
      <point x="300" y="512"/>
      <point x="315" y="533"/>
      <point x="345" y="533" type="curve" smooth="yes"/>
    </contour>
  </outline>
</glyph>
<glyph name="macron" format="1">
  <advance width="1240"/>
  <unicode hex="00AF"/>
  <outline>
    <contour>
      <point x="883" y="1033" type="curve" smooth="yes"/>
      <point x="521" y="1033" type="line" smooth="yes"/>
      <point x="483" y="1033"/>
      <point x="470" y="1049"/>
      <point x="470" y="1076" type="curve" smooth="yes"/>
      <point x="470" y="1103"/>
      <point x="486" y="1119"/>
      <point x="520" y="1119" type="curve" smooth="yes"/>
      <point x="881" y="1119" type="line" smooth="yes"/>
      <point x="914" y="1119"/>
      <point x="930" y="1103"/>
      <point x="930" y="1076" type="curve" smooth="yes"/>
      <point x="930" y="1049"/>
      <point x="916" y="1033"/>
    </contour>
  </outline>
</glyph>
<glyph name="plusminus" format="1">
  <advance width="1240"/>
  <unicode hex="00B1"/>
  <outline>
    <contour>
      <point x="452" y="53" type="curve" smooth="yes"/>
      <point x="452" y="82"/>
      <point x="476" y="106"/>
      <point x="505" y="106" type="curve" smooth="yes"/>
      <point x="890" y="106" type="line" smooth="yes"/>
      <point x="919" y="106"/>
      <point x="943" y="82"/>
      <point x="943" y="53" type="curve" smooth="yes"/>
      <point x="943" y="24"/>
      <point x="919" y="0"/>
      <point x="890" y="0" type="curve" smooth="yes"/>
      <point x="505" y="0" type="line" smooth="yes"/>
      <point x="476" y="0"/>
      <point x="452" y="24"/>
    </contour>
    <contour>
      <point x="1009" y="579" type="line" smooth="yes"/>
      <point x="1037" y="579"/>
      <point x="1059" y="557"/>
      <point x="1059" y="529" type="curve" smooth="yes"/>
      <point x="1059" y="501"/>
      <point x="1037" y="478"/>
      <point x="1009" y="478" type="curve" smooth="yes"/>
      <point x="754" y="478" type="line"/>
      <point x="754" y="257" type="line" smooth="yes"/>
      <point x="754" y="227"/>
      <point x="730" y="204"/>
      <point x="700" y="204" type="curve" smooth="yes"/>
      <point x="670" y="204"/>
      <point x="646" y="227"/>
      <point x="646" y="257" type="curve" smooth="yes"/>
      <point x="646" y="478" type="line"/>
      <point x="389" y="478" type="line" smooth="yes"/>
      <point x="361" y="478"/>
      <point x="339" y="501"/>
      <point x="339" y="529" type="curve" smooth="yes"/>
      <point x="339" y="557"/>
      <point x="361" y="579"/>
      <point x="389" y="579" type="curve" smooth="yes"/>
      <point x="646" y="579" type="line"/>
      <point x="646" y="804" type="line" smooth="yes"/>
      <point x="646" y="834"/>
      <point x="670" y="858"/>
      <point x="700" y="858" type="curve" smooth="yes"/>
      <point x="730" y="858"/>
      <point x="754" y="834"/>
      <point x="754" y="804" type="curve" smooth="yes"/>
      <point x="754" y="579" type="line"/>
    </contour>
  </outline>
</glyph>
<glyph name="uni00B2" format="1">
  <advance width="1240"/>
  <unicode hex="00B2"/>
  <outline>
    <contour>
      <point x="692" y="1020" type="curve" smooth="yes"/>
      <point x="692" y="756"/>
      <point x="353" y="652"/>
      <point x="322" y="467" type="curve"/>
      <point x="628" y="467" type="line"/>
      <point x="671" y="564" type="line" smooth="yes"/>
      <point x="679" y="584"/>
      <point x="695" y="600"/>
      <point x="719" y="600" type="curve" smooth="yes"/>
      <point x="739" y="600"/>
      <point x="754" y="587"/>
      <point x="754" y="565" type="curve" smooth="yes"/>
      <point x="754" y="559"/>
      <point x="752" y="553"/>
      <point x="751" y="547" type="curve"/>
      <point x="721" y="410" type="line" smooth="yes"/>
      <point x="715" y="387"/>
      <point x="705" y="374"/>
      <point x="682" y="374" type="curve" smooth="yes"/>
      <point x="222" y="374" type="line"/>
      <point x="218" y="442" type="line"/>
      <point x="218" y="478"/>
      <point x="226" y="514"/>
      <point x="244" y="550" type="curve" smooth="yes"/>
      <point x="311" y="689"/>
      <point x="579" y="884"/>
      <point x="579" y="1015" type="curve" smooth="yes"/>
      <point x="579" y="1079"/>
      <point x="506" y="1101"/>
      <point x="441" y="1101" type="curve" smooth="yes"/>
      <point x="372" y="1101"/>
      <point x="335" y="1078"/>
      <point x="298" y="1051" type="curve" smooth="yes"/>
      <point x="290" y="1045"/>
      <point x="280" y="1042"/>
      <point x="270" y="1042" type="curve" smooth="yes"/>
      <point x="245" y="1042"/>
      <point x="225" y="1058"/>
      <point x="225" y="1084" type="curve" smooth="yes"/>
      <point x="225" y="1094"/>
      <point x="231" y="1106"/>
      <point x="244" y="1119" type="curve" smooth="yes"/>
      <point x="286" y="1162"/>
      <point x="364" y="1195"/>
      <point x="451" y="1195" type="curve" smooth="yes"/>
      <point x="575" y="1195"/>
      <point x="692" y="1144"/>
    </contour>
  </outline>
</glyph>
<glyph name="uni00B3" format="1">
  <advance width="1240"/>
  <unicode hex="00B3"/>
  <outline>
    <contour>
      <point x="507" y="632" type="curve" smooth="yes"/>
      <point x="507" y="715"/>
      <point x="457" y="773"/>
      <point x="374" y="773" type="curve" smooth="yes"/>
      <point x="352" y="773"/>
      <point x="334" y="767"/>
      <point x="312" y="767" type="curve" smooth="yes"/>
      <point x="287" y="767"/>
      <point x="270" y="783"/>
      <point x="270" y="810" type="curve" smooth="yes"/>
      <point x="270" y="818"/>
      <point x="276" y="827"/>
      <point x="286" y="835" type="curve" smooth="yes"/>
      <point x="343" y="881"/>
      <point x="476" y="918"/>
      <point x="476" y="1016" type="curve" smooth="yes"/>
      <point x="476" y="1069"/>
      <point x="432" y="1106"/>
      <point x="377" y="1106" type="curve" smooth="yes"/>
      <point x="309" y="1106"/>
      <point x="261" y="1071"/>
      <point x="218" y="1044" type="curve" smooth="yes"/>
      <point x="210" y="1039"/>
      <point x="202" y="1037"/>
      <point x="192" y="1037" type="curve" smooth="yes"/>
      <point x="172" y="1037"/>
      <point x="156" y="1050"/>
      <point x="156" y="1070" type="curve" smooth="yes"/>
      <point x="156" y="1140"/>
      <point x="304" y="1192"/>
      <point x="378" y="1192" type="curve" smooth="yes"/>
      <point x="486" y="1192"/>
      <point x="572" y="1132"/>
      <point x="572" y="1028" type="curve" smooth="yes"/>
      <point x="572" y="917"/>
      <point x="491" y="883"/>
      <point x="419" y="841" type="curve" smooth="yes"/>
      <point x="409" y="835" type="line"/>
      <point x="537" y="827"/>
      <point x="620" y="761"/>
      <point x="620" y="628" type="curve" smooth="yes"/>
      <point x="620" y="469"/>
      <point x="495" y="357"/>
      <point x="331" y="357" type="curve" smooth="yes"/>
      <point x="257" y="357"/>
      <point x="113" y="379"/>
      <point x="113" y="449" type="curve" smooth="yes"/>
      <point x="113" y="471"/>
      <point x="130" y="486"/>
      <point x="153" y="486" type="curve" smooth="yes"/>
      <point x="163" y="486"/>
      <point x="171" y="484"/>
      <point x="181" y="479" type="curve" smooth="yes"/>
      <point x="220" y="460"/>
      <point x="271" y="444"/>
      <point x="329" y="444" type="curve" smooth="yes"/>
      <point x="437" y="444"/>
      <point x="507" y="525"/>
    </contour>
  </outline>
</glyph>
<glyph name="acute" format="1">
  <advance width="1240"/>
  <unicode hex="00B4"/>
  <outline>
    <contour>
      <point x="858" y="1216" type="curve" smooth="yes"/>
      <point x="536" y="982" type="line" smooth="yes"/>
      <point x="519" y="969"/>
      <point x="487" y="993"/>
      <point x="508" y="1015" type="curve" smooth="yes"/>
      <point x="779" y="1291" type="line" smooth="yes"/>
      <point x="826" y="1339"/>
      <point x="904" y="1250"/>
    </contour>
  </outline>
</glyph>
<glyph name="uni00B5" format="1">
  <advance width="1240"/>
  <unicode hex="00B5"/>
  <outline>
    <contour>
      <point x="291.0" y="-343.0"/>
      <point x="270.0" y="-310.0"/>
      <point x="270.0" y="-256.0" type="curve"/>
      <point x="270.0" y="285.0" type="line"/>
      <point x="306.0" y="405.0" type="line"/>
      <point x="322.0" y="188.0" type="line"/>
      <point x="333.0" y="90.0"/>
      <point x="374.0" y="-196.0"/>
      <point x="385.0" y="-257.0" type="curve" smooth="yes"/>
      <point x="386.0" y="-265.0"/>
      <point x="387.0" y="-272.0"/>
      <point x="387.0" y="-278.0" type="curve" smooth="yes"/>
      <point x="387.0" y="-325.0"/>
      <point x="355.0" y="-343.0"/>
      <point x="327.0" y="-343.0" type="curve" smooth="yes"/>
    </contour>
    <component base="u"/>
  </outline>
</glyph>
<glyph name="paragraph" format="1">
  <advance width="1240"/>
  <unicode hex="00B6"/>
  <outline>
    <contour>
      <point x="636" y="82" type="line"/>
      <point x="794" y="82" type="line"/>
      <point x="794" y="1089" type="line"/>
      <point x="636" y="1089" type="line"/>
    </contour>
    <contour>
      <point x="890" y="1171" type="line"/>
      <point x="892" y="82" type="line"/>
      <point x="1073" y="82" type="line" smooth="yes"/>
      <point x="1100" y="82"/>
      <point x="1112" y="63"/>
      <point x="1112" y="43" type="curve" smooth="yes"/>
      <point x="1112" y="22"/>
      <point x="1098" y="0"/>
      <point x="1071" y="0" type="curve" smooth="yes"/>
      <point x="333" y="0" type="line" smooth="yes"/>
      <point x="306" y="0"/>
      <point x="292" y="22"/>
      <point x="292" y="43" type="curve" smooth="yes"/>
      <point x="292" y="63"/>
      <point x="304" y="82"/>
      <point x="331" y="82" type="curve" smooth="yes"/>
      <point x="540" y="82" type="line"/>
      <point x="540" y="611" type="line"/>
      <point x="344" y="611"/>
      <point x="232" y="759"/>
      <point x="232" y="903" type="curve" smooth="yes"/>
      <point x="232" y="1039"/>
      <point x="332" y="1171"/>
      <point x="554" y="1171" type="curve" smooth="yes"/>
    </contour>
  </outline>
</glyph>
<glyph name="periodcentered" format="1">
  <advance width="1240"/>
  <unicode hex="00B7"/>
  <outline>
    <contour>
      <point x="699" y="486" type="curve" smooth="yes"/>
      <point x="616" y="486"/>
      <point x="555" y="547"/>
      <point x="555" y="630" type="curve" smooth="yes"/>
      <point x="555" y="713"/>
      <point x="616" y="774"/>
      <point x="699" y="774" type="curve" smooth="yes"/>
      <point x="782" y="774"/>
      <point x="844" y="713"/>
      <point x="844" y="630" type="curve" smooth="yes"/>
      <point x="844" y="547"/>
      <point x="782" y="486"/>
    </contour>
  </outline>
</glyph>
<glyph name="cedilla" format="1">
  <advance width="1240"/>
  <unicode hex="00B8"/>
  <outline>
    <contour>
      <point x="180" y="0" type="line"/>
      <point x="139" y="-321" type="line" smooth="yes"/>
      <point x="131.9296875" y="-381.985351562"/>
      <point x="103.39793396" y="-401.433135986"/>
      <point x="77.1109161377" y="-401.433135986" type="curve" smooth="yes"/>
      <point x="46.0475921631" y="-401.433135986"/>
      <point x="28.4484710693" y="-379.325332642"/>
      <point x="28.4484710693" y="-346.534378052" type="curve" smooth="yes"/>
      <point x="28.4484710693" y="-334.310272217"/>
      <point x="30.894241333" y="-320.601531982"/>
      <point x="36.0" y="-306.0" type="curve" smooth="yes"/>
      <point x="143.0" y="0.0" type="line"/>
    </contour>
  </outline>
</glyph>
<glyph name="uni00B9" format="1">
  <advance width="1240"/>
  <unicode hex="00B9"/>
  <outline>
    <contour>
      <point x="540" y="1014" type="line"/>
      <point x="262" y="675" type="line"/>
      <point x="540" y="675" type="line"/>
    </contour>
    <contour>
      <point x="770" y="382" type="curve" smooth="yes"/>
      <point x="770" y="362"/>
      <point x="757" y="342"/>
      <point x="735" y="342" type="curve" smooth="yes"/>
      <point x="406" y="342" type="line" smooth="yes"/>
      <point x="384" y="342"/>
      <point x="371" y="362"/>
      <point x="371" y="382" type="curve" smooth="yes"/>
      <point x="371" y="406"/>
      <point x="381" y="425"/>
      <point x="405" y="425" type="curve" smooth="yes"/>
      <point x="540" y="425" type="line"/>
      <point x="540" y="601" type="line"/>
      <point x="182" y="601" type="line" smooth="yes"/>
      <point x="162" y="601"/>
      <point x="152" y="619"/>
      <point x="152" y="637" type="curve" smooth="yes"/>
      <point x="152" y="651"/>
      <point x="156" y="663"/>
      <point x="162" y="669" type="curve"/>
      <point x="297" y="836"/>
      <point x="432" y="1000"/>
      <point x="568" y="1165" type="curve" smooth="yes"/>
      <point x="573" y="1171"/>
      <point x="580" y="1175"/>
      <point x="588" y="1175" type="curve" smooth="yes"/>
      <point x="608" y="1175"/>
      <point x="630" y="1154"/>
      <point x="630" y="1134" type="curve" smooth="yes"/>
      <point x="630" y="675" type="line"/>
      <point x="768" y="675" type="line" smooth="yes"/>
      <point x="790" y="675"/>
      <point x="798" y="659"/>
      <point x="798" y="637" type="curve" smooth="yes"/>
      <point x="798" y="619"/>
      <point x="786" y="601"/>
      <point x="766" y="601" type="curve" smooth="yes"/>
      <point x="630" y="601" type="line"/>
      <point x="630" y="425" type="line"/>
      <point x="736" y="425" type="line" smooth="yes"/>
      <point x="760" y="425"/>
      <point x="770" y="406"/>
    </contour>
  </outline>
</glyph>
<glyph name="guillemotright" format="1">
  <advance width="1240"/>
  <unicode hex="00BB"/>
  <outline>
    <contour>
      <point x="270" y="831" type="curve" smooth="yes"/>
      <point x="614" y="572" type="line" smooth="yes"/>
      <point x="663" y="535"/>
      <point x="665" y="500"/>
      <point x="614" y="461" type="curve" smooth="yes"/>
      <point x="280" y="206" type="line" smooth="yes"/>
      <point x="236" y="172"/>
      <point x="177" y="227"/>
      <point x="234" y="270" type="curve" smooth="yes"/>
      <point x="555" y="516" type="line"/>
      <point x="225" y="760" type="line" smooth="yes"/>
      <point x="159" y="809"/>
      <point x="212" y="875"/>
    </contour>
    <contour>
      <point x="634" y="831" type="curve" smooth="yes"/>
      <point x="978" y="572" type="line" smooth="yes"/>
      <point x="1027" y="535"/>
      <point x="1029" y="500"/>
      <point x="978" y="461" type="curve" smooth="yes"/>
      <point x="644" y="206" type="line" smooth="yes"/>
      <point x="600" y="172"/>
      <point x="541" y="227"/>
      <point x="598" y="270" type="curve" smooth="yes"/>
      <point x="919" y="516" type="line"/>
      <point x="589" y="760" type="line" smooth="yes"/>
      <point x="523" y="809"/>
      <point x="576" y="875"/>
    </contour>
  </outline>
</glyph>
<glyph name="onequarter" format="1">
  <advance width="1240"/>
  <unicode hex="00BC"/>
  <outline>
    <contour>
      <point x="1218" y="674" type="line"/>
      <point x="941" y="335" type="line"/>
      <point x="1218" y="335" type="line"/>
    </contour>
    <contour>
      <point x="1449" y="42" type="curve" smooth="yes"/>
      <point x="1449" y="22"/>
      <point x="1436" y="1"/>
      <point x="1414" y="1" type="curve" smooth="yes"/>
      <point x="1085" y="1" type="line" smooth="yes"/>
      <point x="1063" y="1"/>
      <point x="1050" y="22"/>
      <point x="1050" y="42" type="curve" smooth="yes"/>
      <point x="1050" y="66"/>
      <point x="1060" y="85"/>
      <point x="1084" y="85" type="curve" smooth="yes"/>
      <point x="1218" y="85" type="line"/>
      <point x="1218" y="261" type="line"/>
      <point x="861" y="261" type="line" smooth="yes"/>
      <point x="841" y="261"/>
      <point x="831" y="278"/>
      <point x="831" y="296" type="curve" smooth="yes"/>
      <point x="831" y="310"/>
      <point x="835" y="323"/>
      <point x="841" y="329" type="curve"/>
      <point x="976" y="496"/>
      <point x="1110" y="659"/>
      <point x="1246" y="824" type="curve" smooth="yes"/>
      <point x="1251" y="830"/>
      <point x="1259" y="835"/>
      <point x="1267" y="835" type="curve" smooth="yes"/>
      <point x="1287" y="835"/>
      <point x="1309" y="814"/>
      <point x="1309" y="794" type="curve" smooth="yes"/>
      <point x="1309" y="335" type="line"/>
      <point x="1447" y="335" type="line" smooth="yes"/>
      <point x="1469" y="335"/>
      <point x="1477" y="318"/>
      <point x="1477" y="296" type="curve" smooth="yes"/>
      <point x="1477" y="278"/>
      <point x="1465" y="261"/>
      <point x="1445" y="261" type="curve" smooth="yes"/>
      <point x="1309" y="261" type="line"/>
      <point x="1309" y="85" type="line"/>
      <point x="1415" y="85" type="line" smooth="yes"/>
      <point x="1439" y="85"/>
      <point x="1449" y="66"/>
    </contour>
    <contour>
      <point x="51" y="370" type="curve" smooth="yes"/>
      <point x="51" y="393"/>
      <point x="62" y="412"/>
      <point x="87" y="412" type="curve" smooth="yes"/>
      <point x="205" y="412" type="line"/>
      <point x="205" y="1079" type="line"/>
      <point x="124" y="1072" type="line"/>
      <point x="98" y="1072"/>
      <point x="84" y="1091"/>
      <point x="84" y="1116" type="curve" smooth="yes"/>
      <point x="84" y="1138"/>
      <point x="96" y="1157"/>
      <point x="116" y="1158" type="curve" smooth="yes"/>
      <point x="278" y="1172" type="line"/>
      <point x="301" y="1172"/>
      <point x="311" y="1167"/>
      <point x="311" y="1140" type="curve" smooth="yes"/>
      <point x="311" y="412" type="line"/>
      <point x="396" y="412" type="line" smooth="yes"/>
      <point x="420" y="412"/>
      <point x="431" y="392"/>
      <point x="431" y="368" type="curve" smooth="yes"/>
      <point x="431" y="348"/>
      <point x="417" y="328"/>
      <point x="395" y="328" type="curve" smooth="yes"/>
      <point x="90" y="328" type="line" smooth="yes"/>
      <point x="63" y="328"/>
      <point x="51" y="346"/>
    </contour>
    <contour>
      <point x="387" y="-64" type="curve" smooth="yes"/>
      <point x="363" y="-64"/>
      <point x="335" y="-39"/>
      <point x="335" y="-10" type="curve" smooth="yes"/>
      <point x="335" y="-4"/>
      <point x="337" y="1"/>
      <point x="341" y="6" type="curve"/>
      <point x="1076" y="1200" type="line" smooth="yes"/>
      <point x="1083" y="1212"/>
      <point x="1094" y="1218"/>
      <point x="1111" y="1218" type="curve" smooth="yes"/>
      <point x="1134" y="1218"/>
      <point x="1162" y="1196"/>
      <point x="1162" y="1165" type="curve" smooth="yes"/>
      <point x="1162" y="1160"/>
      <point x="1160" y="1155"/>
      <point x="1157" y="1150" type="curve" smooth="yes"/>
      <point x="427" y="-42" type="line"/>
      <point x="418" y="-55"/>
      <point x="407" y="-64"/>
    </contour>
  </outline>
</glyph>
<glyph name="onehalf" format="1">
  <advance width="1240"/>
  <unicode hex="00BD"/>
  <outline>
    <contour>
      <point x="51" y="370" type="curve" smooth="yes"/>
      <point x="51" y="393"/>
      <point x="62" y="412"/>
      <point x="87" y="412" type="curve" smooth="yes"/>
      <point x="204" y="412" type="line"/>
      <point x="204" y="1079" type="line"/>
      <point x="124" y="1072" type="line"/>
      <point x="98" y="1072"/>
      <point x="83" y="1091"/>
      <point x="83" y="1116" type="curve" smooth="yes"/>
      <point x="83" y="1138"/>
      <point x="95" y="1157"/>
      <point x="115" y="1158" type="curve" smooth="yes"/>
      <point x="277" y="1172" type="line"/>
      <point x="300" y="1172"/>
      <point x="310" y="1167"/>
      <point x="310" y="1140" type="curve" smooth="yes"/>
      <point x="310" y="412" type="line"/>
      <point x="395" y="412" type="line" smooth="yes"/>
      <point x="419" y="412"/>
      <point x="430" y="392"/>
      <point x="430" y="368" type="curve" smooth="yes"/>
      <point x="430" y="348"/>
      <point x="417" y="328"/>
      <point x="395" y="328" type="curve" smooth="yes"/>
      <point x="89" y="328" type="line" smooth="yes"/>
      <point x="62" y="328"/>
      <point x="51" y="346"/>
    </contour>
    <contour>
      <point x="387" y="-64" type="curve" smooth="yes"/>
      <point x="363" y="-64"/>
      <point x="335" y="-39"/>
      <point x="335" y="-10" type="curve" smooth="yes"/>
      <point x="335" y="-4"/>
      <point x="336" y="1"/>
      <point x="340" y="6" type="curve"/>
      <point x="1075" y="1200" type="line" smooth="yes"/>
      <point x="1082" y="1212"/>
      <point x="1094" y="1218"/>
      <point x="1111" y="1218" type="curve" smooth="yes"/>
      <point x="1134" y="1218"/>
      <point x="1161" y="1196"/>
      <point x="1161" y="1165" type="curve" smooth="yes"/>
      <point x="1161" y="1160"/>
      <point x="1159" y="1155"/>
      <point x="1156" y="1150" type="curve" smooth="yes"/>
      <point x="426" y="-42" type="line"/>
      <point x="417" y="-55"/>
      <point x="407" y="-64"/>
    </contour>
    <contour>
      <point x="1486" y="647" type="curve" smooth="yes"/>
      <point x="1486" y="383"/>
      <point x="1146" y="280"/>
      <point x="1115" y="95" type="curve"/>
      <point x="1422" y="95" type="line"/>
      <point x="1464" y="192" type="line" smooth="yes"/>
      <point x="1472" y="212"/>
      <point x="1488" y="228"/>
      <point x="1512" y="228" type="curve" smooth="yes"/>
      <point x="1532" y="228"/>
      <point x="1548" y="215"/>
      <point x="1548" y="193" type="curve" smooth="yes"/>
      <point x="1548" y="187"/>
      <point x="1546" y="181"/>
      <point x="1545" y="175" type="curve"/>
      <point x="1514" y="38" type="line" smooth="yes"/>
      <point x="1508" y="15"/>
      <point x="1498" y="1"/>
      <point x="1475" y="1" type="curve" smooth="yes"/>
      <point x="1016" y="1" type="line"/>
      <point x="1012" y="70" type="line"/>
      <point x="1012" y="106"/>
      <point x="1019" y="142"/>
      <point x="1037" y="178" type="curve" smooth="yes"/>
      <point x="1104" y="317"/>
      <point x="1372" y="512"/>
      <point x="1372" y="643" type="curve" smooth="yes"/>
      <point x="1372" y="707"/>
      <point x="1299" y="729"/>
      <point x="1234" y="729" type="curve" smooth="yes"/>
      <point x="1165" y="729"/>
      <point x="1129" y="706"/>
      <point x="1092" y="679" type="curve" smooth="yes"/>
      <point x="1084" y="673"/>
      <point x="1074" y="669"/>
      <point x="1064" y="669" type="curve" smooth="yes"/>
      <point x="1039" y="669"/>
      <point x="1018" y="686"/>
      <point x="1018" y="712" type="curve" smooth="yes"/>
      <point x="1018" y="722"/>
      <point x="1024" y="734"/>
      <point x="1037" y="747" type="curve" smooth="yes"/>
      <point x="1079" y="790"/>
      <point x="1158" y="822"/>
      <point x="1245" y="822" type="curve" smooth="yes"/>
      <point x="1369" y="822"/>
      <point x="1486" y="771"/>
    </contour>
  </outline>
</glyph>
<glyph name="threequarters" format="1">
  <advance width="1240"/>
  <unicode hex="00BE"/>
  <outline>
    <contour>
      <point x="1273" y="674" type="line"/>
      <point x="996" y="335" type="line"/>
      <point x="1273" y="335" type="line"/>
    </contour>
    <contour>
      <point x="1503" y="42" type="curve" smooth="yes"/>
      <point x="1503" y="22"/>
      <point x="1490" y="1"/>
      <point x="1468" y="1" type="curve" smooth="yes"/>
      <point x="1139" y="1" type="line" smooth="yes"/>
      <point x="1117" y="1"/>
      <point x="1104" y="22"/>
      <point x="1104" y="42" type="curve" smooth="yes"/>
      <point x="1104" y="66"/>
      <point x="1115" y="85"/>
      <point x="1139" y="85" type="curve" smooth="yes"/>
      <point x="1273" y="85" type="line"/>
      <point x="1273" y="261" type="line"/>
      <point x="916" y="261" type="line" smooth="yes"/>
      <point x="896" y="261"/>
      <point x="885" y="278"/>
      <point x="885" y="296" type="curve" smooth="yes"/>
      <point x="885" y="310"/>
      <point x="889" y="323"/>
      <point x="895" y="329" type="curve"/>
      <point x="1030" y="496"/>
      <point x="1165" y="659"/>
      <point x="1301" y="824" type="curve" smooth="yes"/>
      <point x="1306" y="830"/>
      <point x="1314" y="835"/>
      <point x="1322" y="835" type="curve" smooth="yes"/>
      <point x="1342" y="835"/>
      <point x="1364" y="814"/>
      <point x="1364" y="794" type="curve" smooth="yes"/>
      <point x="1364" y="335" type="line"/>
      <point x="1501" y="335" type="line" smooth="yes"/>
      <point x="1523" y="335"/>
      <point x="1531" y="318"/>
      <point x="1531" y="296" type="curve" smooth="yes"/>
      <point x="1531" y="278"/>
      <point x="1520" y="261"/>
      <point x="1500" y="261" type="curve" smooth="yes"/>
      <point x="1364" y="261" type="line"/>
      <point x="1364" y="85" type="line"/>
      <point x="1470" y="85" type="line" smooth="yes"/>
      <point x="1494" y="85"/>
      <point x="1503" y="66"/>
    </contour>
    <contour>
      <point x="442" y="-64" type="curve" smooth="yes"/>
      <point x="418" y="-64"/>
      <point x="390" y="-39"/>
      <point x="390" y="-10" type="curve" smooth="yes"/>
      <point x="390" y="-4"/>
      <point x="391" y="1"/>
      <point x="395" y="6" type="curve"/>
      <point x="1130" y="1200" type="line" smooth="yes"/>
      <point x="1137" y="1212"/>
      <point x="1149" y="1218"/>
      <point x="1166" y="1218" type="curve" smooth="yes"/>
      <point x="1189" y="1218"/>
      <point x="1216" y="1196"/>
      <point x="1216" y="1165" type="curve" smooth="yes"/>
      <point x="1216" y="1160"/>
      <point x="1215" y="1155"/>
      <point x="1212" y="1150" type="curve" smooth="yes"/>
      <point x="482" y="-42" type="line"/>
      <point x="473" y="-55"/>
      <point x="462" y="-64"/>
    </contour>
    <contour>
      <point x="446" y="628" type="curve" smooth="yes"/>
      <point x="446" y="711"/>
      <point x="396" y="768"/>
      <point x="313" y="768" type="curve" smooth="yes"/>
      <point x="291" y="768"/>
      <point x="273" y="762"/>
      <point x="251" y="762" type="curve" smooth="yes"/>
      <point x="226" y="762"/>
      <point x="209" y="778"/>
      <point x="209" y="805" type="curve" smooth="yes"/>
      <point x="209" y="813"/>
      <point x="215" y="822"/>
      <point x="225" y="830" type="curve" smooth="yes"/>
      <point x="282" y="876"/>
      <point x="415" y="913"/>
      <point x="415" y="1011" type="curve" smooth="yes"/>
      <point x="415" y="1064"/>
      <point x="371" y="1102"/>
      <point x="316" y="1102" type="curve" smooth="yes"/>
      <point x="248" y="1102"/>
      <point x="199" y="1067"/>
      <point x="156" y="1040" type="curve" smooth="yes"/>
      <point x="148" y="1035"/>
      <point x="140" y="1032"/>
      <point x="130" y="1032" type="curve" smooth="yes"/>
      <point x="110" y="1032"/>
      <point x="95" y="1045"/>
      <point x="95" y="1065" type="curve" smooth="yes"/>
      <point x="95" y="1135"/>
      <point x="243" y="1187"/>
      <point x="317" y="1187" type="curve" smooth="yes"/>
      <point x="425" y="1187"/>
      <point x="510" y="1127"/>
      <point x="510" y="1023" type="curve" smooth="yes"/>
      <point x="510" y="912"/>
      <point x="430" y="878"/>
      <point x="358" y="836" type="curve" smooth="yes"/>
      <point x="348" y="830" type="line"/>
      <point x="476" y="822"/>
      <point x="559" y="757"/>
      <point x="559" y="624" type="curve" smooth="yes"/>
      <point x="559" y="465"/>
      <point x="434" y="352"/>
      <point x="270" y="352" type="curve" smooth="yes"/>
      <point x="196" y="352"/>
      <point x="52" y="375"/>
      <point x="52" y="445" type="curve" smooth="yes"/>
      <point x="52" y="467"/>
      <point x="69" y="481"/>
      <point x="92" y="481" type="curve" smooth="yes"/>
      <point x="102" y="481"/>
      <point x="110" y="479"/>
      <point x="120" y="474" type="curve" smooth="yes"/>
      <point x="159" y="455"/>
      <point x="210" y="439"/>
      <point x="268" y="439" type="curve" smooth="yes"/>
      <point x="376" y="439"/>
      <point x="446" y="521"/>
    </contour>
  </outline>
</glyph>
<glyph name="Agrave" format="1">
  <advance width="1240"/>
  <unicode hex="00C0"/>
  <outline>
    <contour>
      <point x="666" y="1344" type="curve" smooth="yes"/>
      <point x="666" y="1327"/>
      <point x="651" y="1309"/>
      <point x="633" y="1309" type="curve" smooth="yes"/>
      <point x="628" y="1309"/>
      <point x="624" y="1310"/>
      <point x="621" y="1313" type="curve"/>
      <point x="510" y="1377"/>
      <point x="388" y="1456"/>
      <point x="281" y="1523" type="curve" smooth="yes"/>
      <point x="269" y="1531"/>
      <point x="262" y="1542"/>
      <point x="262" y="1554" type="curve" smooth="yes"/>
      <point x="262" y="1582"/>
      <point x="291" y="1611"/>
      <point x="320" y="1611" type="curve" smooth="yes"/>
      <point x="331" y="1611"/>
      <point x="340" y="1608"/>
      <point x="348" y="1601" type="curve" smooth="yes"/>
      <point x="441" y="1521"/>
      <point x="554" y="1433"/>
      <point x="656" y="1365" type="curve" smooth="yes"/>
      <point x="664" y="1360"/>
      <point x="666" y="1354"/>
    </contour>
    <contour>
      <point x="425" y="475" type="line"/>
      <point x="845" y="475" type="line"/>
      <point x="644" y="1072" type="line"/>
    </contour>
    <contour>
      <point x="90" y="0" type="line" smooth="yes"/>
      <point x="57" y="0"/>
      <point x="40" y="21"/>
      <point x="40" y="43" type="curve" smooth="yes"/>
      <point x="40" y="64"/>
      <point x="56" y="86"/>
      <point x="89" y="86" type="curve" smooth="yes"/>
      <point x="174" y="86" type="line"/>
      <point x="554" y="1101" type="line"/>
      <point x="342" y="1101" type="line" smooth="yes"/>
      <point x="309" y="1101"/>
      <point x="292" y="1122"/>
      <point x="292" y="1144" type="curve" smooth="yes"/>
      <point x="292" y="1165"/>
      <point x="308" y="1187"/>
      <point x="341" y="1187" type="curve" smooth="yes"/>
      <point x="647" y="1187" type="line" smooth="yes"/>
      <point x="693" y="1187"/>
      <point x="716" y="1156"/>
      <point x="728" y="1122" type="curve" smooth="yes"/>
      <point x="1087" y="86" type="line"/>
      <point x="1166" y="86" type="line" smooth="yes"/>
      <point x="1198" y="86"/>
      <point x="1214" y="65"/>
      <point x="1214" y="44" type="curve" smooth="yes"/>
      <point x="1214" y="22"/>
      <point x="1197" y="0"/>
      <point x="1164" y="0" type="curve" smooth="yes"/>
      <point x="798" y="0" type="line" smooth="yes"/>
      <point x="764" y="0"/>
      <point x="747" y="22"/>
      <point x="747" y="44" type="curve" smooth="yes"/>
      <point x="747" y="65"/>
      <point x="763" y="86"/>
      <point x="796" y="86" type="curve" smooth="yes"/>
      <point x="976" y="86" type="line"/>
      <point x="874" y="392" type="line"/>
      <point x="393" y="392" type="line"/>
      <point x="282" y="86" type="line"/>
      <point x="439" y="86" type="line" smooth="yes"/>
      <point x="472" y="86"/>
      <point x="489" y="64"/>
      <point x="489" y="43" type="curve" smooth="yes"/>
      <point x="489" y="21"/>
      <point x="472" y="0"/>
      <point x="438" y="0" type="curve" smooth="yes"/>
    </contour>
  </outline>
</glyph>
<glyph name="Aacute" format="1">
  <advance width="1240"/>
  <unicode hex="00C1"/>
  <outline>
    <contour>
      <point x="933.5" y="1611" type="curve" smooth="yes"/>
      <point x="962.5" y="1611"/>
      <point x="990.5" y="1582"/>
      <point x="990.5" y="1554" type="curve" smooth="yes"/>
      <point x="990.5" y="1542"/>
      <point x="985.5" y="1531"/>
      <point x="973.5" y="1523" type="curve" smooth="yes"/>
      <point x="865.5" y="1455"/>
      <point x="744.5" y="1377"/>
      <point x="633.5" y="1313" type="curve" smooth="yes"/>
      <point x="628.5" y="1310"/>
      <point x="623.5" y="1309"/>
      <point x="620.5" y="1309" type="curve" smooth="yes"/>
      <point x="602.5" y="1309"/>
      <point x="586.5" y="1327"/>
      <point x="586.5" y="1344" type="curve" smooth="yes"/>
      <point x="586.5" y="1354"/>
      <point x="590.5" y="1360"/>
      <point x="598.5" y="1365" type="curve" smooth="yes"/>
      <point x="700.5" y="1433"/>
      <point x="812.5" y="1521"/>
      <point x="905.5" y="1601" type="curve" smooth="yes"/>
      <point x="913.5" y="1608"/>
      <point x="922.5" y="1611"/>
    </contour>
    <contour>
      <point x="425.0" y="475" type="line"/>
      <point x="845.0" y="475" type="line"/>
      <point x="644.0" y="1072" type="line"/>
    </contour>
    <contour>
      <point x="90.0" y="0" type="line" smooth="yes"/>
      <point x="57.0" y="0"/>
      <point x="40.0" y="21"/>
      <point x="40.0" y="43" type="curve" smooth="yes"/>
      <point x="40.0" y="64"/>
      <point x="56.0" y="86"/>
      <point x="89.0" y="86" type="curve" smooth="yes"/>
      <point x="174.0" y="86" type="line"/>
      <point x="554.0" y="1101" type="line"/>
      <point x="342.0" y="1101" type="line" smooth="yes"/>
      <point x="309.0" y="1101"/>
      <point x="292.0" y="1122"/>
      <point x="292.0" y="1144" type="curve" smooth="yes"/>
      <point x="292.0" y="1165"/>
      <point x="308.0" y="1187"/>
      <point x="341.0" y="1187" type="curve" smooth="yes"/>
      <point x="647.0" y="1187" type="line" smooth="yes"/>
      <point x="693.0" y="1187"/>
      <point x="716.0" y="1156"/>
      <point x="728.0" y="1122" type="curve" smooth="yes"/>
      <point x="1087.0" y="86" type="line"/>
      <point x="1166.0" y="86" type="line" smooth="yes"/>
      <point x="1198.0" y="86"/>
      <point x="1214.0" y="65"/>
      <point x="1214.0" y="44" type="curve" smooth="yes"/>
      <point x="1214.0" y="22"/>
      <point x="1197.0" y="0"/>
      <point x="1164.0" y="0" type="curve" smooth="yes"/>
      <point x="798.0" y="0" type="line" smooth="yes"/>
      <point x="764.0" y="0"/>
      <point x="747.0" y="22"/>
      <point x="747.0" y="44" type="curve" smooth="yes"/>
      <point x="747.0" y="65"/>
      <point x="763.0" y="86"/>
      <point x="796.0" y="86" type="curve" smooth="yes"/>
      <point x="976.0" y="86" type="line"/>
      <point x="874.0" y="392" type="line"/>
      <point x="393.0" y="392" type="line"/>
      <point x="282.0" y="86" type="line"/>
      <point x="439.0" y="86" type="line" smooth="yes"/>
      <point x="472.0" y="86"/>
      <point x="489.0" y="64"/>
      <point x="489.0" y="43" type="curve" smooth="yes"/>
      <point x="489.0" y="21"/>
      <point x="472.0" y="0"/>
      <point x="438.0" y="0" type="curve" smooth="yes"/>
    </contour>
  </outline>
</glyph>
<glyph name="Acircumflex" format="1">
  <advance width="1240"/>
  <unicode hex="00C2"/>
  <outline>
    <contour>
      <point x="626.5" y="1650" type="curve" smooth="yes"/>
      <point x="639.5" y="1650"/>
      <point x="653.5" y="1646"/>
      <point x="658.5" y="1638" type="curve" smooth="yes"/>
      <point x="842.5" y="1355" type="line"/>
      <point x="847.5" y="1350"/>
      <point x="849.5" y="1343"/>
      <point x="849.5" y="1338" type="curve" smooth="yes"/>
      <point x="849.5" y="1322"/>
      <point x="830.5" y="1309"/>
      <point x="812.5" y="1309" type="curve" smooth="yes"/>
      <point x="804.5" y="1309"/>
      <point x="794.5" y="1310"/>
      <point x="789.5" y="1318" type="curve"/>
      <point x="626.5" y="1527" type="line"/>
      <point x="464.5" y="1318" type="line"/>
      <point x="459.5" y="1310"/>
      <point x="449.5" y="1309"/>
      <point x="441.5" y="1309" type="curve" smooth="yes"/>
      <point x="423.5" y="1309"/>
      <point x="404.5" y="1322"/>
      <point x="404.5" y="1338" type="curve" smooth="yes"/>
      <point x="404.5" y="1343"/>
      <point x="406.5" y="1350"/>
      <point x="411.5" y="1355" type="curve"/>
      <point x="595.5" y="1638" type="line" smooth="yes"/>
      <point x="600.5" y="1646"/>
      <point x="613.5" y="1650"/>
    </contour>
    <contour>
      <point x="425.0" y="475" type="line"/>
      <point x="845.0" y="475" type="line"/>
      <point x="644.0" y="1072" type="line"/>
    </contour>
    <contour>
      <point x="90.0" y="0" type="line" smooth="yes"/>
      <point x="57.0" y="0"/>
      <point x="40.0" y="21"/>
      <point x="40.0" y="43" type="curve" smooth="yes"/>
      <point x="40.0" y="64"/>
      <point x="56.0" y="86"/>
      <point x="89.0" y="86" type="curve" smooth="yes"/>
      <point x="174.0" y="86" type="line"/>
      <point x="554.0" y="1101" type="line"/>
      <point x="342.0" y="1101" type="line" smooth="yes"/>
      <point x="309.0" y="1101"/>
      <point x="292.0" y="1122"/>
      <point x="292.0" y="1144" type="curve" smooth="yes"/>
      <point x="292.0" y="1165"/>
      <point x="308.0" y="1187"/>
      <point x="341.0" y="1187" type="curve" smooth="yes"/>
      <point x="647.0" y="1187" type="line" smooth="yes"/>
      <point x="693.0" y="1187"/>
      <point x="716.0" y="1156"/>
      <point x="728.0" y="1122" type="curve" smooth="yes"/>
      <point x="1087.0" y="86" type="line"/>
      <point x="1166.0" y="86" type="line" smooth="yes"/>
      <point x="1198.0" y="86"/>
      <point x="1214.0" y="65"/>
      <point x="1214.0" y="44" type="curve" smooth="yes"/>
      <point x="1214.0" y="22"/>
      <point x="1197.0" y="0"/>
      <point x="1164.0" y="0" type="curve" smooth="yes"/>
      <point x="798.0" y="0" type="line" smooth="yes"/>
      <point x="764.0" y="0"/>
      <point x="747.0" y="22"/>
      <point x="747.0" y="44" type="curve" smooth="yes"/>
      <point x="747.0" y="65"/>
      <point x="763.0" y="86"/>
      <point x="796.0" y="86" type="curve" smooth="yes"/>
      <point x="976.0" y="86" type="line"/>
      <point x="874.0" y="392" type="line"/>
      <point x="393.0" y="392" type="line"/>
      <point x="282.0" y="86" type="line"/>
      <point x="439.0" y="86" type="line" smooth="yes"/>
      <point x="472.0" y="86"/>
      <point x="489.0" y="64"/>
      <point x="489.0" y="43" type="curve" smooth="yes"/>
      <point x="489.0" y="21"/>
      <point x="472.0" y="0"/>
      <point x="438.0" y="0" type="curve" smooth="yes"/>
    </contour>
  </outline>
</glyph>
<glyph name="Aring" format="1">
  <advance width="1240"/>
  <unicode hex="00C5"/>
  <outline>
    <contour>
      <point x="629.5" y="1515.66699219" type="curve" smooth="yes"/>
      <point x="742.5" y="1515.66699219"/>
      <point x="798.5" y="1431.66699219"/>
      <point x="798.5" y="1346.66699219" type="curve" smooth="yes"/>
      <point x="798.5" y="1261.66699219"/>
      <point x="739.5" y="1175.66699219"/>
      <point x="626.5" y="1175.66699219" type="curve" smooth="yes"/>
      <point x="513.5" y="1175.66699219"/>
      <point x="455.5" y="1259.66699219"/>
      <point x="455.5" y="1343.66699219" type="curve" smooth="yes"/>
      <point x="455.5" y="1429.66699219"/>
      <point x="515.5" y="1515.66699219"/>
    </contour>
    <contour>
      <point x="631.5" y="1240.66699219" type="curve" smooth="yes"/>
      <point x="695.5" y="1240.66699219"/>
      <point x="725.5" y="1288.66699219"/>
      <point x="725.5" y="1344.66699219" type="curve" smooth="yes"/>
      <point x="725.5" y="1400.66699219"/>
      <point x="693.5" y="1449.66699219"/>
      <point x="628.5" y="1449.66699219" type="curve" smooth="yes"/>
      <point x="562.5" y="1449.66699219"/>
      <point x="531.5" y="1400.66699219"/>
      <point x="531.5" y="1344.66699219" type="curve" smooth="yes"/>
      <point x="531.5" y="1289.66699219"/>
      <point x="568.5" y="1240.66699219"/>
    </contour>
    <contour>
      <point x="425.0" y="475.0" type="line"/>
      <point x="845.0" y="475.0" type="line"/>
      <point x="644.0" y="1072.0" type="line"/>
    </contour>
    <contour>
      <point x="90.0" y="0.0" type="line" smooth="yes"/>
      <point x="57.0" y="0.0"/>
      <point x="40.0" y="21.0"/>
      <point x="40.0" y="43.0" type="curve" smooth="yes"/>
      <point x="40.0" y="64.0"/>
      <point x="56.0" y="86.0"/>
      <point x="89.0" y="86.0" type="curve" smooth="yes"/>
      <point x="174.0" y="86.0" type="line"/>
      <point x="554.0" y="1101.0" type="line"/>
      <point x="342.0" y="1101.0" type="line" smooth="yes"/>
      <point x="309.0" y="1101.0"/>
      <point x="292.0" y="1122.0"/>
      <point x="292.0" y="1144.0" type="curve" smooth="yes"/>
      <point x="292.0" y="1165.0"/>
      <point x="308.0" y="1187.0"/>
      <point x="341.0" y="1187.0" type="curve" smooth="yes"/>
      <point x="647.0" y="1187.0" type="line" smooth="yes"/>
      <point x="693.0" y="1187.0"/>
      <point x="716.0" y="1156.0"/>
      <point x="728.0" y="1122.0" type="curve" smooth="yes"/>
      <point x="1087.0" y="86.0" type="line"/>
      <point x="1166.0" y="86.0" type="line" smooth="yes"/>
      <point x="1198.0" y="86.0"/>
      <point x="1214.0" y="65.0"/>
      <point x="1214.0" y="44.0" type="curve" smooth="yes"/>
      <point x="1214.0" y="22.0"/>
      <point x="1197.0" y="0.0"/>
      <point x="1164.0" y="0.0" type="curve" smooth="yes"/>
      <point x="798.0" y="0.0" type="line" smooth="yes"/>
      <point x="764.0" y="0.0"/>
      <point x="747.0" y="22.0"/>
      <point x="747.0" y="44.0" type="curve" smooth="yes"/>
      <point x="747.0" y="65.0"/>
      <point x="763.0" y="86.0"/>
      <point x="796.0" y="86.0" type="curve" smooth="yes"/>
      <point x="976.0" y="86.0" type="line"/>
      <point x="874.0" y="392.0" type="line"/>
      <point x="393.0" y="392.0" type="line"/>
      <point x="282.0" y="86.0" type="line"/>
      <point x="439.0" y="86.0" type="line" smooth="yes"/>
      <point x="472.0" y="86.0"/>
      <point x="489.0" y="64.0"/>
      <point x="489.0" y="43.0" type="curve" smooth="yes"/>
      <point x="489.0" y="21.0"/>
      <point x="472.0" y="0.0"/>
      <point x="438.0" y="0.0" type="curve" smooth="yes"/>
    </contour>
  </outline>
</glyph>
<glyph name="Ccedilla" format="1">
  <advance width="1240"/>
  <unicode hex="00C7"/>
  <outline>
    <contour>
      <point x="657.5" y="-3.619140625" type="line"/>
      <point x="616.5" y="-324.619140625" type="line" smooth="yes"/>
      <point x="609.4296875" y="-385.604492188"/>
      <point x="580.897460938" y="-405.051757812"/>
      <point x="554.611328125" y="-405.051757812" type="curve" smooth="yes"/>
      <point x="523.547851562" y="-405.051757812"/>
      <point x="505.948242188" y="-382.944335938"/>
      <point x="505.948242188" y="-350.153320312" type="curve" smooth="yes"/>
      <point x="505.948242188" y="-337.928710938"/>
      <point x="508.39453125" y="-324.220703125"/>
      <point x="513.5" y="-309.619140625" type="curve" smooth="yes"/>
      <point x="620.5" y="-3.619140625" type="line"/>
    </contour>
    <contour>
      <point x="1145.0" y="336.0" type="curve"/>
      <point x="1108.0" y="168.0"/>
      <point x="959.0" y="-17.0"/>
      <point x="669.0" y="-17.0" type="curve" smooth="yes"/>
      <point x="361.0" y="-17.0"/>
      <point x="132.0" y="225.0"/>
      <point x="132.0" y="607.0" type="curve" smooth="yes"/>
      <point x="132.0" y="954.0"/>
      <point x="360.0" y="1187.0"/>
      <point x="668.0" y="1187.0" type="curve" smooth="yes"/>
      <point x="827.0" y="1187.0"/>
      <point x="968.0" y="1113.0"/>
      <point x="1022.0" y="1015.0" type="curve"/>
      <point x="1022.0" y="1121.0" type="line" smooth="yes"/>
      <point x="1022.0" y="1154.0"/>
      <point x="1047.0" y="1171.0"/>
      <point x="1071.0" y="1171.0" type="curve" smooth="yes"/>
      <point x="1096.0" y="1171.0"/>
      <point x="1120.0" y="1154.0"/>
      <point x="1120.0" y="1120.0" type="curve" smooth="yes"/>
      <point x="1120.0" y="827.0" type="line" smooth="yes"/>
      <point x="1120.0" y="795.0"/>
      <point x="1097.0" y="780.0"/>
      <point x="1074.0" y="780.0" type="curve" smooth="yes"/>
      <point x="1050.0" y="780.0"/>
      <point x="1031.0" y="797.0"/>
      <point x="1026.0" y="827.0" type="curve" smooth="yes"/>
      <point x="995.0" y="991.0"/>
      <point x="850.0" y="1101.0"/>
      <point x="671.0" y="1101.0" type="curve" smooth="yes"/>
      <point x="396.0" y="1101.0"/>
      <point x="228.0" y="890.0"/>
      <point x="228.0" y="600.0" type="curve" smooth="yes"/>
      <point x="228.0" y="263.0"/>
      <point x="435.0" y="69.0"/>
      <point x="670.0" y="69.0" type="curve" smooth="yes"/>
      <point x="863.0" y="69.0"/>
      <point x="995.0" y="182.0"/>
      <point x="1049.0" y="359.0" type="curve" smooth="yes"/>
      <point x="1056.0" y="379.0"/>
      <point x="1072.0" y="387.0"/>
      <point x="1089.0" y="387.0" type="curve" smooth="yes"/>
      <point x="1116.0" y="387.0"/>
      <point x="1146.0" y="367.0"/>
      <point x="1146.0" y="343.0" type="curve" smooth="yes"/>
      <point x="1146.0" y="341.0"/>
      <point x="1146.0" y="338.0"/>
    </contour>
  </outline>
</glyph>
<glyph name="Egrave" format="1">
  <advance width="1240"/>
  <unicode hex="00C8"/>
  <outline>
    <contour>
      <point x="659.5" y="1344" type="curve" smooth="yes"/>
      <point x="659.5" y="1327"/>
      <point x="644.5" y="1309"/>
      <point x="626.5" y="1309" type="curve" smooth="yes"/>
      <point x="621.5" y="1309"/>
      <point x="617.5" y="1310"/>
      <point x="614.5" y="1313" type="curve"/>
      <point x="503.5" y="1377"/>
      <point x="381.5" y="1456"/>
      <point x="274.5" y="1523" type="curve" smooth="yes"/>
      <point x="262.5" y="1531"/>
      <point x="255.5" y="1542"/>
      <point x="255.5" y="1554" type="curve" smooth="yes"/>
      <point x="255.5" y="1582"/>
      <point x="284.5" y="1611"/>
      <point x="313.5" y="1611" type="curve" smooth="yes"/>
      <point x="324.5" y="1611"/>
      <point x="333.5" y="1608"/>
      <point x="341.5" y="1601" type="curve" smooth="yes"/>
      <point x="434.5" y="1521"/>
      <point x="547.5" y="1433"/>
      <point x="649.5" y="1365" type="curve" smooth="yes"/>
      <point x="657.5" y="1360"/>
      <point x="659.5" y="1354"/>
    </contour>
    <contour>
      <point x="837.0" y="437" type="line" smooth="yes"/>
      <point x="837.0" y="402"/>
      <point x="818.0" y="386"/>
      <point x="799.0" y="386" type="curve" smooth="yes"/>
      <point x="780.0" y="386"/>
      <point x="761.0" y="401"/>
      <point x="759.0" y="429" type="curve" smooth="yes"/>
      <point x="746.0" y="577" type="line"/>
      <point x="420.0" y="577" type="line"/>
      <point x="420.0" y="85" type="line"/>
      <point x="1035.0" y="85" type="line"/>
      <point x="1051.0" y="336" type="line" smooth="yes"/>
      <point x="1052.0" y="360"/>
      <point x="1074.0" y="375"/>
      <point x="1095.0" y="375" type="curve" smooth="yes"/>
      <point x="1116.0" y="375"/>
      <point x="1137.0" y="359"/>
      <point x="1137.0" y="323" type="curve" smooth="yes"/>
      <point x="1137.0" y="53" type="line" smooth="yes"/>
      <point x="1137.0" y="19"/>
      <point x="1114.0" y="0"/>
      <point x="1081.0" y="0" type="curve" smooth="yes"/>
      <point x="155.0" y="0" type="line" smooth="yes"/>
      <point x="121.0" y="0"/>
      <point x="104.0" y="22"/>
      <point x="104.0" y="43" type="curve" smooth="yes"/>
      <point x="104.0" y="64"/>
      <point x="121.0" y="85"/>
      <point x="154.0" y="85" type="curve" smooth="yes"/>
      <point x="324.0" y="85" type="line"/>
      <point x="324.0" y="1085" type="line"/>
      <point x="189.0" y="1085" type="line" smooth="yes"/>
      <point x="157.0" y="1085"/>
      <point x="141.0" y="1106"/>
      <point x="141.0" y="1127" type="curve" smooth="yes"/>
      <point x="141.0" y="1149"/>
      <point x="158.0" y="1171"/>
      <point x="191.0" y="1171" type="curve" smooth="yes"/>
      <point x="1069.0" y="1171" type="line" smooth="yes"/>
      <point x="1102.0" y="1171"/>
      <point x="1125.0" y="1151"/>
      <point x="1125.0" y="1117" type="curve" smooth="yes"/>
      <point x="1125.0" y="847" type="line" smooth="yes"/>
      <point x="1125.0" y="817"/>
      <point x="1105.0" y="803"/>
      <point x="1085.0" y="803" type="curve" smooth="yes"/>
      <point x="1065.0" y="803"/>
      <point x="1044.0" y="816"/>
      <point x="1043.0" y="841" type="curve" smooth="yes"/>
      <point x="1029.0" y="1085" type="line"/>
      <point x="420.0" y="1085" type="line"/>
      <point x="420.0" y="654" type="line"/>
      <point x="746.0" y="654" type="line"/>
      <point x="759.0" y="787" type="line" smooth="yes"/>
      <point x="762.0" y="817"/>
      <point x="781.0" y="832"/>
      <point x="799.0" y="832" type="curve" smooth="yes"/>
      <point x="818.0" y="832"/>
      <point x="837.0" y="816"/>
      <point x="837.0" y="779" type="curve" smooth="yes"/>
    </contour>
  </outline>
</glyph>
<glyph name="Eacute" format="1">
  <advance width="1240"/>
  <unicode hex="00C9"/>
  <outline>
    <contour>
      <point x="927" y="1611" type="curve" smooth="yes"/>
      <point x="956" y="1611"/>
      <point x="984" y="1582"/>
      <point x="984" y="1554" type="curve" smooth="yes"/>
      <point x="984" y="1542"/>
      <point x="979" y="1531"/>
      <point x="967" y="1523" type="curve" smooth="yes"/>
      <point x="859" y="1455"/>
      <point x="738" y="1377"/>
      <point x="627" y="1313" type="curve" smooth="yes"/>
      <point x="622" y="1310"/>
      <point x="617" y="1309"/>
      <point x="614" y="1309" type="curve" smooth="yes"/>
      <point x="596" y="1309"/>
      <point x="580" y="1327"/>
      <point x="580" y="1344" type="curve" smooth="yes"/>
      <point x="580" y="1354"/>
      <point x="584" y="1360"/>
      <point x="592" y="1365" type="curve" smooth="yes"/>
      <point x="694" y="1433"/>
      <point x="806" y="1521"/>
      <point x="899" y="1601" type="curve" smooth="yes"/>
      <point x="907" y="1608"/>
      <point x="916" y="1611"/>
    </contour>
    <contour>
      <point x="837" y="437" type="line" smooth="yes"/>
      <point x="837" y="402"/>
      <point x="818" y="386"/>
      <point x="799" y="386" type="curve" smooth="yes"/>
      <point x="780" y="386"/>
      <point x="761" y="401"/>
      <point x="759" y="429" type="curve" smooth="yes"/>
      <point x="746" y="577" type="line"/>
      <point x="420" y="577" type="line"/>
      <point x="420" y="85" type="line"/>
      <point x="1035" y="85" type="line"/>
      <point x="1051" y="336" type="line" smooth="yes"/>
      <point x="1052" y="360"/>
      <point x="1074" y="375"/>
      <point x="1095" y="375" type="curve" smooth="yes"/>
      <point x="1116" y="375"/>
      <point x="1137" y="359"/>
      <point x="1137" y="323" type="curve" smooth="yes"/>
      <point x="1137" y="53" type="line" smooth="yes"/>
      <point x="1137" y="19"/>
      <point x="1114" y="0"/>
      <point x="1081" y="0" type="curve" smooth="yes"/>
      <point x="155" y="0" type="line" smooth="yes"/>
      <point x="121" y="0"/>
      <point x="104" y="22"/>
      <point x="104" y="43" type="curve" smooth="yes"/>
      <point x="104" y="64"/>
      <point x="121" y="85"/>
      <point x="154" y="85" type="curve" smooth="yes"/>
      <point x="324" y="85" type="line"/>
      <point x="324" y="1085" type="line"/>
      <point x="189" y="1085" type="line" smooth="yes"/>
      <point x="157" y="1085"/>
      <point x="141" y="1106"/>
      <point x="141" y="1127" type="curve" smooth="yes"/>
      <point x="141" y="1149"/>
      <point x="158" y="1171"/>
      <point x="191" y="1171" type="curve" smooth="yes"/>
      <point x="1069" y="1171" type="line" smooth="yes"/>
      <point x="1102" y="1171"/>
      <point x="1125" y="1151"/>
      <point x="1125" y="1117" type="curve" smooth="yes"/>
      <point x="1125" y="847" type="line" smooth="yes"/>
      <point x="1125" y="817"/>
      <point x="1105" y="803"/>
      <point x="1085" y="803" type="curve" smooth="yes"/>
      <point x="1065" y="803"/>
      <point x="1044" y="816"/>
      <point x="1043" y="841" type="curve" smooth="yes"/>
      <point x="1029" y="1085" type="line"/>
      <point x="420" y="1085" type="line"/>
      <point x="420" y="654" type="line"/>
      <point x="746" y="654" type="line"/>
      <point x="759" y="787" type="line" smooth="yes"/>
      <point x="762" y="817"/>
      <point x="781" y="832"/>
      <point x="799" y="832" type="curve" smooth="yes"/>
      <point x="818" y="832"/>
      <point x="837" y="816"/>
      <point x="837" y="779" type="curve" smooth="yes"/>
    </contour>
  </outline>
</glyph>
<glyph name="Igrave" format="1">
  <advance width="1240"/>
  <unicode hex="00CC"/>
  <outline>
    <contour>
      <point x="679" y="1344" type="curve" smooth="yes"/>
      <point x="679" y="1327"/>
      <point x="664" y="1309"/>
      <point x="646" y="1309" type="curve" smooth="yes"/>
      <point x="641" y="1309"/>
      <point x="637" y="1310"/>
      <point x="634" y="1313" type="curve"/>
      <point x="523" y="1377"/>
      <point x="401" y="1456"/>
      <point x="294" y="1523" type="curve" smooth="yes"/>
      <point x="282" y="1531"/>
      <point x="275" y="1542"/>
      <point x="275" y="1554" type="curve" smooth="yes"/>
      <point x="275" y="1582"/>
      <point x="304" y="1611"/>
      <point x="333" y="1611" type="curve" smooth="yes"/>
      <point x="344" y="1611"/>
      <point x="353" y="1608"/>
      <point x="361" y="1601" type="curve" smooth="yes"/>
      <point x="454" y="1521"/>
      <point x="567" y="1433"/>
      <point x="669" y="1365" type="curve" smooth="yes"/>
      <point x="677" y="1360"/>
      <point x="679" y="1354"/>
    </contour>
    <contour>
      <point x="298" y="0" type="line" smooth="yes"/>
      <point x="265" y="0"/>
      <point x="247" y="21"/>
      <point x="247" y="43" type="curve" smooth="yes"/>
      <point x="247" y="64"/>
      <point x="264" y="86"/>
      <point x="297" y="86" type="curve" smooth="yes"/>
      <point x="602" y="86" type="line"/>
      <point x="602" y="1085" type="line"/>
      <point x="297" y="1085" type="line" smooth="yes"/>
      <point x="264" y="1085"/>
      <point x="247" y="1106"/>
      <point x="247" y="1127" type="curve" smooth="yes"/>
      <point x="247" y="1149"/>
      <point x="265" y="1171"/>
      <point x="298" y="1171" type="curve" smooth="yes"/>
      <point x="983" y="1171" type="line" smooth="yes"/>
      <point x="1016" y="1171"/>
      <point x="1033" y="1149"/>
      <point x="1033" y="1127" type="curve" smooth="yes"/>
      <point x="1033" y="1106"/>
      <point x="1017" y="1085"/>
      <point x="984" y="1085" type="curve" smooth="yes"/>
      <point x="698" y="1085" type="line"/>
      <point x="698" y="86" type="line"/>
      <point x="984" y="86" type="line" smooth="yes"/>
      <point x="1017" y="86"/>
      <point x="1033" y="64"/>
      <point x="1033" y="43" type="curve" smooth="yes"/>
      <point x="1033" y="21"/>
      <point x="1016" y="0"/>
      <point x="983" y="0" type="curve" smooth="yes"/>
    </contour>
  </outline>
</glyph>
<glyph name="Iacute" format="1">
  <advance width="1240"/>
  <unicode hex="00CD"/>
  <outline>
    <contour>
      <point x="946.5" y="1611" type="curve" smooth="yes"/>
      <point x="975.5" y="1611"/>
      <point x="1003.5" y="1582"/>
      <point x="1003.5" y="1554" type="curve" smooth="yes"/>
      <point x="1003.5" y="1542"/>
      <point x="998.5" y="1531"/>
      <point x="986.5" y="1523" type="curve" smooth="yes"/>
      <point x="878.5" y="1455"/>
      <point x="757.5" y="1377"/>
      <point x="646.5" y="1313" type="curve" smooth="yes"/>
      <point x="641.5" y="1310"/>
      <point x="636.5" y="1309"/>
      <point x="633.5" y="1309" type="curve" smooth="yes"/>
      <point x="615.5" y="1309"/>
      <point x="599.5" y="1327"/>
      <point x="599.5" y="1344" type="curve" smooth="yes"/>
      <point x="599.5" y="1354"/>
      <point x="603.5" y="1360"/>
      <point x="611.5" y="1365" type="curve" smooth="yes"/>
      <point x="713.5" y="1433"/>
      <point x="825.5" y="1521"/>
      <point x="918.5" y="1601" type="curve" smooth="yes"/>
      <point x="926.5" y="1608"/>
      <point x="935.5" y="1611"/>
    </contour>
    <contour>
      <point x="298.0" y="0" type="line" smooth="yes"/>
      <point x="265.0" y="0"/>
      <point x="247.0" y="21"/>
      <point x="247.0" y="43" type="curve" smooth="yes"/>
      <point x="247.0" y="64"/>
      <point x="264.0" y="86"/>
      <point x="297.0" y="86" type="curve" smooth="yes"/>
      <point x="602.0" y="86" type="line"/>
      <point x="602.0" y="1085" type="line"/>
      <point x="297.0" y="1085" type="line" smooth="yes"/>
      <point x="264.0" y="1085"/>
      <point x="247.0" y="1106"/>
      <point x="247.0" y="1127" type="curve" smooth="yes"/>
      <point x="247.0" y="1149"/>
      <point x="265.0" y="1171"/>
      <point x="298.0" y="1171" type="curve" smooth="yes"/>
      <point x="983.0" y="1171" type="line" smooth="yes"/>
      <point x="1016.0" y="1171"/>
      <point x="1033.0" y="1149"/>
      <point x="1033.0" y="1127" type="curve" smooth="yes"/>
      <point x="1033.0" y="1106"/>
      <point x="1017.0" y="1085"/>
      <point x="984.0" y="1085" type="curve" smooth="yes"/>
      <point x="698.0" y="1085" type="line"/>
      <point x="698.0" y="86" type="line"/>
      <point x="984.0" y="86" type="line" smooth="yes"/>
      <point x="1017.0" y="86"/>
      <point x="1033.0" y="64"/>
      <point x="1033.0" y="43" type="curve" smooth="yes"/>
      <point x="1033.0" y="21"/>
      <point x="1016.0" y="0"/>
      <point x="983.0" y="0" type="curve" smooth="yes"/>
    </contour>
  </outline>
</glyph>
<glyph name="Icircumflex" format="1">
  <advance width="1240"/>
  <unicode hex="00CE"/>
  <outline>
    <contour>
      <point x="639.5" y="1650" type="curve" smooth="yes"/>
      <point x="652.5" y="1650"/>
      <point x="666.5" y="1646"/>
      <point x="671.5" y="1638" type="curve" smooth="yes"/>
      <point x="855.5" y="1355" type="line"/>
      <point x="860.5" y="1350"/>
      <point x="862.5" y="1343"/>
      <point x="862.5" y="1338" type="curve" smooth="yes"/>
      <point x="862.5" y="1322"/>
      <point x="843.5" y="1309"/>
      <point x="825.5" y="1309" type="curve" smooth="yes"/>
      <point x="817.5" y="1309"/>
      <point x="807.5" y="1310"/>
      <point x="802.5" y="1318" type="curve"/>
      <point x="639.5" y="1527" type="line"/>
      <point x="477.5" y="1318" type="line"/>
      <point x="472.5" y="1310"/>
      <point x="462.5" y="1309"/>
      <point x="454.5" y="1309" type="curve" smooth="yes"/>
      <point x="436.5" y="1309"/>
      <point x="417.5" y="1322"/>
      <point x="417.5" y="1338" type="curve" smooth="yes"/>
      <point x="417.5" y="1343"/>
      <point x="419.5" y="1350"/>
      <point x="424.5" y="1355" type="curve"/>
      <point x="608.5" y="1638" type="line" smooth="yes"/>
      <point x="613.5" y="1646"/>
      <point x="626.5" y="1650"/>
    </contour>
    <contour>
      <point x="298.0" y="0" type="line" smooth="yes"/>
      <point x="265.0" y="0"/>
      <point x="247.0" y="21"/>
      <point x="247.0" y="43" type="curve" smooth="yes"/>
      <point x="247.0" y="64"/>
      <point x="264.0" y="86"/>
      <point x="297.0" y="86" type="curve" smooth="yes"/>
      <point x="602.0" y="86" type="line"/>
      <point x="602.0" y="1085" type="line"/>
      <point x="297.0" y="1085" type="line" smooth="yes"/>
      <point x="264.0" y="1085"/>
      <point x="247.0" y="1106"/>
      <point x="247.0" y="1127" type="curve" smooth="yes"/>
      <point x="247.0" y="1149"/>
      <point x="265.0" y="1171"/>
      <point x="298.0" y="1171" type="curve" smooth="yes"/>
      <point x="983.0" y="1171" type="line" smooth="yes"/>
      <point x="1016.0" y="1171"/>
      <point x="1033.0" y="1149"/>
      <point x="1033.0" y="1127" type="curve" smooth="yes"/>
      <point x="1033.0" y="1106"/>
      <point x="1017.0" y="1085"/>
      <point x="984.0" y="1085" type="curve" smooth="yes"/>
      <point x="698.0" y="1085" type="line"/>
      <point x="698.0" y="86" type="line"/>
      <point x="984.0" y="86" type="line" smooth="yes"/>
      <point x="1017.0" y="86"/>
      <point x="1033.0" y="64"/>
      <point x="1033.0" y="43" type="curve" smooth="yes"/>
      <point x="1033.0" y="21"/>
      <point x="1016.0" y="0"/>
      <point x="983.0" y="0" type="curve" smooth="yes"/>
    </contour>
  </outline>
</glyph>
<glyph name="Idieresis" format="1">
  <advance width="1240"/>
  <unicode hex="00CF"/>
  <outline>
    <contour>
      <point x="472.5" y="1309" type="curve" smooth="yes"/>
      <point x="422.5" y="1309"/>
      <point x="381.5" y="1350"/>
      <point x="381.5" y="1400" type="curve" smooth="yes"/>
      <point x="381.5" y="1450"/>
      <point x="422.5" y="1491"/>
      <point x="472.5" y="1491" type="curve" smooth="yes"/>
      <point x="522.5" y="1491"/>
      <point x="563.5" y="1450"/>
      <point x="563.5" y="1400" type="curve" smooth="yes"/>
      <point x="563.5" y="1350"/>
      <point x="522.5" y="1309"/>
    </contour>
    <contour>
      <point x="807.5" y="1309" type="curve" smooth="yes"/>
      <point x="757.5" y="1309"/>
      <point x="717.5" y="1350"/>
      <point x="717.5" y="1400" type="curve" smooth="yes"/>
      <point x="717.5" y="1450"/>
      <point x="757.5" y="1491"/>
      <point x="807.5" y="1491" type="curve" smooth="yes"/>
      <point x="857.5" y="1491"/>
      <point x="898.5" y="1450"/>
      <point x="898.5" y="1400" type="curve" smooth="yes"/>
      <point x="898.5" y="1350"/>
      <point x="857.5" y="1309"/>
    </contour>
    <contour>
      <point x="298.0" y="0" type="line" smooth="yes"/>
      <point x="265.0" y="0"/>
      <point x="247.0" y="21"/>
      <point x="247.0" y="43" type="curve" smooth="yes"/>
      <point x="247.0" y="64"/>
      <point x="264.0" y="86"/>
      <point x="297.0" y="86" type="curve" smooth="yes"/>
      <point x="602.0" y="86" type="line"/>
      <point x="602.0" y="1085" type="line"/>
      <point x="297.0" y="1085" type="line" smooth="yes"/>
      <point x="264.0" y="1085"/>
      <point x="247.0" y="1106"/>
      <point x="247.0" y="1127" type="curve" smooth="yes"/>
      <point x="247.0" y="1149"/>
      <point x="265.0" y="1171"/>
      <point x="298.0" y="1171" type="curve" smooth="yes"/>
      <point x="983.0" y="1171" type="line" smooth="yes"/>
      <point x="1016.0" y="1171"/>
      <point x="1033.0" y="1149"/>
      <point x="1033.0" y="1127" type="curve" smooth="yes"/>
      <point x="1033.0" y="1106"/>
      <point x="1017.0" y="1085"/>
      <point x="984.0" y="1085" type="curve" smooth="yes"/>
      <point x="698.0" y="1085" type="line"/>
      <point x="698.0" y="86" type="line"/>
      <point x="984.0" y="86" type="line" smooth="yes"/>
      <point x="1017.0" y="86"/>
      <point x="1033.0" y="64"/>
      <point x="1033.0" y="43" type="curve" smooth="yes"/>
      <point x="1033.0" y="21"/>
      <point x="1016.0" y="0"/>
      <point x="983.0" y="0" type="curve" smooth="yes"/>
    </contour>
  </outline>
</glyph>
<glyph name="Eth" format="1">
  <advance width="1240"/>
  <unicode hex="00D0"/>
  <outline>
    <contour>
      <point x="978" y="591" type="curve" smooth="yes"/>
      <point x="978" y="907"/>
      <point x="827" y="1085"/>
      <point x="534" y="1085" type="curve" smooth="yes"/>
      <point x="420" y="1085" type="line"/>
      <point x="420" y="86" type="line"/>
      <point x="520" y="86" type="line" smooth="yes"/>
      <point x="851" y="86"/>
      <point x="978" y="256"/>
    </contour>
    <contour>
      <point x="1084" y="591" type="curve" smooth="yes"/>
      <point x="1084" y="168"/>
      <point x="874" y="0"/>
      <point x="513" y="0" type="curve" smooth="yes"/>
      <point x="152" y="0" type="line" smooth="yes"/>
      <point x="118" y="0"/>
      <point x="101" y="21"/>
      <point x="101" y="43" type="curve" smooth="yes"/>
      <point x="101" y="64"/>
      <point x="118" y="86"/>
      <point x="151" y="86" type="curve" smooth="yes"/>
      <point x="314" y="86" type="line"/>
      <point x="314" y="1085" type="line"/>
      <point x="155" y="1085" type="line" smooth="yes"/>
      <point x="123" y="1085"/>
      <point x="107" y="1106"/>
      <point x="107" y="1127" type="curve" smooth="yes"/>
      <point x="107" y="1149"/>
      <point x="124" y="1171"/>
      <point x="157" y="1171" type="curve" smooth="yes"/>
      <point x="515" y="1171" type="line" smooth="yes"/>
      <point x="858" y="1171"/>
      <point x="1084" y="993"/>
    </contour>
    <contour>
      <point x="172" y="572" type="line" smooth="yes"/>
      <point x="134.665039062" y="572"/>
      <point x="126.0" y="591.708007812"/>
      <point x="126.0" y="611.052734375" type="curve" smooth="yes"/>
      <point x="126.0" y="629.6953125"/>
      <point x="133.334960938" y="648.0"/>
      <point x="168.0" y="648.0" type="curve" smooth="yes"/>
      <point x="607.0" y="648.0" type="line" smooth="yes"/>
      <point x="640.014648438" y="648.0"/>
      <point x="645.916992188" y="629.864257812"/>
      <point x="645.916992188" y="611.311523438" type="curve" smooth="yes"/>
      <point x="645.916992188" y="591.884765625"/>
      <point x="638.481445312" y="572.0"/>
      <point x="605.0" y="572.0" type="curve" smooth="yes"/>
    </contour>
  </outline>
</glyph>
<glyph name="Ograve" format="1">
  <advance width="1240"/>
  <unicode hex="00D2"/>
  <outline>
    <contour>
      <point x="659" y="1344" type="curve" smooth="yes"/>
      <point x="659" y="1327"/>
      <point x="644" y="1309"/>
      <point x="626" y="1309" type="curve" smooth="yes"/>
      <point x="621" y="1309"/>
      <point x="617" y="1310"/>
      <point x="614" y="1313" type="curve"/>
      <point x="503" y="1377"/>
      <point x="381" y="1456"/>
      <point x="274" y="1523" type="curve" smooth="yes"/>
      <point x="262" y="1531"/>
      <point x="255" y="1542"/>
      <point x="255" y="1554" type="curve" smooth="yes"/>
      <point x="255" y="1582"/>
      <point x="284" y="1611"/>
      <point x="313" y="1611" type="curve" smooth="yes"/>
      <point x="324" y="1611"/>
      <point x="333" y="1608"/>
      <point x="341" y="1601" type="curve" smooth="yes"/>
      <point x="434" y="1521"/>
      <point x="547" y="1433"/>
      <point x="649" y="1365" type="curve" smooth="yes"/>
      <point x="657" y="1360"/>
      <point x="659" y="1354"/>
    </contour>
    <contour>
      <point x="620" y="1101" type="curve" smooth="yes"/>
      <point x="344" y="1101"/>
      <point x="204" y="842"/>
      <point x="204" y="582" type="curve" smooth="yes"/>
      <point x="204" y="326"/>
      <point x="340" y="69"/>
      <point x="620" y="69" type="curve" smooth="yes"/>
      <point x="900" y="69"/>
      <point x="1036" y="326"/>
      <point x="1036" y="582" type="curve" smooth="yes"/>
      <point x="1036" y="842"/>
      <point x="896" y="1101"/>
    </contour>
    <contour>
      <point x="620" y="-17" type="curve" smooth="yes"/>
      <point x="279" y="-17"/>
      <point x="108" y="281"/>
      <point x="108" y="582" type="curve" smooth="yes"/>
      <point x="108" y="883"/>
      <point x="279" y="1187"/>
      <point x="620" y="1187" type="curve" smooth="yes"/>
      <point x="961" y="1187"/>
      <point x="1132" y="883"/>
      <point x="1132" y="582" type="curve" smooth="yes"/>
      <point x="1132" y="281"/>
      <point x="961" y="-17"/>
    </contour>
  </outline>
</glyph>
<glyph name="Oacute" format="1">
  <advance width="1240"/>
  <unicode hex="00D3"/>
  <outline>
    <contour>
      <point x="926.5" y="1611" type="curve" smooth="yes"/>
      <point x="955.5" y="1611"/>
      <point x="983.5" y="1582"/>
      <point x="983.5" y="1554" type="curve" smooth="yes"/>
      <point x="983.5" y="1542"/>
      <point x="978.5" y="1531"/>
      <point x="966.5" y="1523" type="curve" smooth="yes"/>
      <point x="858.5" y="1455"/>
      <point x="737.5" y="1377"/>
      <point x="626.5" y="1313" type="curve" smooth="yes"/>
      <point x="621.5" y="1310"/>
      <point x="616.5" y="1309"/>
      <point x="613.5" y="1309" type="curve" smooth="yes"/>
      <point x="595.5" y="1309"/>
      <point x="579.5" y="1327"/>
      <point x="579.5" y="1344" type="curve" smooth="yes"/>
      <point x="579.5" y="1354"/>
      <point x="583.5" y="1360"/>
      <point x="591.5" y="1365" type="curve" smooth="yes"/>
      <point x="693.5" y="1433"/>
      <point x="805.5" y="1521"/>
      <point x="898.5" y="1601" type="curve" smooth="yes"/>
      <point x="906.5" y="1608"/>
      <point x="915.5" y="1611"/>
    </contour>
    <contour>
      <point x="620.0" y="1101" type="curve" smooth="yes"/>
      <point x="344.0" y="1101"/>
      <point x="204.0" y="842"/>
      <point x="204.0" y="582" type="curve" smooth="yes"/>
      <point x="204.0" y="326"/>
      <point x="340.0" y="69"/>
      <point x="620.0" y="69" type="curve" smooth="yes"/>
      <point x="900.0" y="69"/>
      <point x="1036.0" y="326"/>
      <point x="1036.0" y="582" type="curve" smooth="yes"/>
      <point x="1036.0" y="842"/>
      <point x="896.0" y="1101"/>
    </contour>
    <contour>
      <point x="620.0" y="-17" type="curve" smooth="yes"/>
      <point x="279.0" y="-17"/>
      <point x="108.0" y="281"/>
      <point x="108.0" y="582" type="curve" smooth="yes"/>
      <point x="108.0" y="883"/>
      <point x="279.0" y="1187"/>
      <point x="620.0" y="1187" type="curve" smooth="yes"/>
      <point x="961.0" y="1187"/>
      <point x="1132.0" y="883"/>
      <point x="1132.0" y="582" type="curve" smooth="yes"/>
      <point x="1132.0" y="281"/>
      <point x="961.0" y="-17"/>
    </contour>
  </outline>
</glyph>
<glyph name="Ocircumflex" format="1">
  <advance width="1240"/>
  <unicode hex="00D4"/>
  <outline>
    <contour>
      <point x="619.5" y="1650" type="curve" smooth="yes"/>
      <point x="632.5" y="1650"/>
      <point x="646.5" y="1646"/>
      <point x="651.5" y="1638" type="curve" smooth="yes"/>
      <point x="835.5" y="1355" type="line"/>
      <point x="840.5" y="1350"/>
      <point x="842.5" y="1343"/>
      <point x="842.5" y="1338" type="curve" smooth="yes"/>
      <point x="842.5" y="1322"/>
      <point x="823.5" y="1309"/>
      <point x="805.5" y="1309" type="curve" smooth="yes"/>
      <point x="797.5" y="1309"/>
      <point x="787.5" y="1310"/>
      <point x="782.5" y="1318" type="curve"/>
      <point x="619.5" y="1527" type="line"/>
      <point x="457.5" y="1318" type="line"/>
      <point x="452.5" y="1310"/>
      <point x="442.5" y="1309"/>
      <point x="434.5" y="1309" type="curve" smooth="yes"/>
      <point x="416.5" y="1309"/>
      <point x="397.5" y="1322"/>
      <point x="397.5" y="1338" type="curve" smooth="yes"/>
      <point x="397.5" y="1343"/>
      <point x="399.5" y="1350"/>
      <point x="404.5" y="1355" type="curve"/>
      <point x="588.5" y="1638" type="line" smooth="yes"/>
      <point x="593.5" y="1646"/>
      <point x="606.5" y="1650"/>
    </contour>
    <contour>
      <point x="620.0" y="1101" type="curve" smooth="yes"/>
      <point x="344.0" y="1101"/>
      <point x="204.0" y="842"/>
      <point x="204.0" y="582" type="curve" smooth="yes"/>
      <point x="204.0" y="326"/>
      <point x="340.0" y="69"/>
      <point x="620.0" y="69" type="curve" smooth="yes"/>
      <point x="900.0" y="69"/>
      <point x="1036.0" y="326"/>
      <point x="1036.0" y="582" type="curve" smooth="yes"/>
      <point x="1036.0" y="842"/>
      <point x="896.0" y="1101"/>
    </contour>
    <contour>
      <point x="620.0" y="-17" type="curve" smooth="yes"/>
      <point x="279.0" y="-17"/>
      <point x="108.0" y="281"/>
      <point x="108.0" y="582" type="curve" smooth="yes"/>
      <point x="108.0" y="883"/>
      <point x="279.0" y="1187"/>
      <point x="620.0" y="1187" type="curve" smooth="yes"/>
      <point x="961.0" y="1187"/>
      <point x="1132.0" y="883"/>
      <point x="1132.0" y="582" type="curve" smooth="yes"/>
      <point x="1132.0" y="281"/>
      <point x="961.0" y="-17"/>
    </contour>
  </outline>
</glyph>
<glyph name="Otilde" format="1">
  <advance width="1240"/>
  <unicode hex="00D5"/>
  <outline>
    <contour>
      <point x="370.5" y="1346" type="curve" smooth="yes"/>
      <point x="370.5" y="1452"/>
      <point x="428.5" y="1527"/>
      <point x="500.5" y="1527" type="curve" smooth="yes"/>
      <point x="606.5" y="1527"/>
      <point x="685.5" y="1430"/>
      <point x="723.5" y="1430" type="curve" smooth="yes"/>
      <point x="784.5" y="1430"/>
      <point x="786.5" y="1527"/>
      <point x="819.5" y="1527" type="curve" smooth="yes"/>
      <point x="846.5" y="1527"/>
      <point x="869.5" y="1515"/>
      <point x="869.5" y="1490" type="curve" smooth="yes"/>
      <point x="869.5" y="1384"/>
      <point x="801.5" y="1309"/>
      <point x="715.5" y="1309" type="curve" smooth="yes"/>
      <point x="636.5" y="1309"/>
      <point x="559.5" y="1406"/>
      <point x="506.5" y="1406" type="curve" smooth="yes"/>
      <point x="448.5" y="1406"/>
      <point x="448.5" y="1309"/>
      <point x="420.5" y="1309" type="curve" smooth="yes"/>
      <point x="393.5" y="1309"/>
      <point x="370.5" y="1321"/>
    </contour>
    <contour>
      <point x="620.0" y="1101" type="curve" smooth="yes"/>
      <point x="344.0" y="1101"/>
      <point x="204.0" y="842"/>
      <point x="204.0" y="582" type="curve" smooth="yes"/>
      <point x="204.0" y="326"/>
      <point x="340.0" y="69"/>
      <point x="620.0" y="69" type="curve" smooth="yes"/>
      <point x="900.0" y="69"/>
      <point x="1036.0" y="326"/>
      <point x="1036.0" y="582" type="curve" smooth="yes"/>
      <point x="1036.0" y="842"/>
      <point x="896.0" y="1101"/>
    </contour>
    <contour>
      <point x="620.0" y="-17" type="curve" smooth="yes"/>
      <point x="279.0" y="-17"/>
      <point x="108.0" y="281"/>
      <point x="108.0" y="582" type="curve" smooth="yes"/>
      <point x="108.0" y="883"/>
      <point x="279.0" y="1187"/>
      <point x="620.0" y="1187" type="curve" smooth="yes"/>
      <point x="961.0" y="1187"/>
      <point x="1132.0" y="883"/>
      <point x="1132.0" y="582" type="curve" smooth="yes"/>
      <point x="1132.0" y="281"/>
      <point x="961.0" y="-17"/>
    </contour>
  </outline>
</glyph>
<glyph name="Odieresis" format="1">
  <advance width="1240"/>
  <unicode hex="00D6"/>
  <outline>
    <contour>
      <point x="452.5" y="1309" type="curve" smooth="yes"/>
      <point x="402.5" y="1309"/>
      <point x="361.5" y="1350"/>
      <point x="361.5" y="1400" type="curve" smooth="yes"/>
      <point x="361.5" y="1450"/>
      <point x="402.5" y="1491"/>
      <point x="452.5" y="1491" type="curve" smooth="yes"/>
      <point x="502.5" y="1491"/>
      <point x="543.5" y="1450"/>
      <point x="543.5" y="1400" type="curve" smooth="yes"/>
      <point x="543.5" y="1350"/>
      <point x="502.5" y="1309"/>
    </contour>
    <contour>
      <point x="787.5" y="1309" type="curve" smooth="yes"/>
      <point x="737.5" y="1309"/>
      <point x="697.5" y="1350"/>
      <point x="697.5" y="1400" type="curve" smooth="yes"/>
      <point x="697.5" y="1450"/>
      <point x="737.5" y="1491"/>
      <point x="787.5" y="1491" type="curve" smooth="yes"/>
      <point x="837.5" y="1491"/>
      <point x="878.5" y="1450"/>
      <point x="878.5" y="1400" type="curve" smooth="yes"/>
      <point x="878.5" y="1350"/>
      <point x="837.5" y="1309"/>
    </contour>
    <contour>
      <point x="620.0" y="1101" type="curve" smooth="yes"/>
      <point x="344.0" y="1101"/>
      <point x="204.0" y="842"/>
      <point x="204.0" y="582" type="curve" smooth="yes"/>
      <point x="204.0" y="326"/>
      <point x="340.0" y="69"/>
      <point x="620.0" y="69" type="curve" smooth="yes"/>
      <point x="900.0" y="69"/>
      <point x="1036.0" y="326"/>
      <point x="1036.0" y="582" type="curve" smooth="yes"/>
      <point x="1036.0" y="842"/>
      <point x="896.0" y="1101"/>
    </contour>
    <contour>
      <point x="620.0" y="-17" type="curve" smooth="yes"/>
      <point x="279.0" y="-17"/>
      <point x="108.0" y="281"/>
      <point x="108.0" y="582" type="curve" smooth="yes"/>
      <point x="108.0" y="883"/>
      <point x="279.0" y="1187"/>
      <point x="620.0" y="1187" type="curve" smooth="yes"/>
      <point x="961.0" y="1187"/>
      <point x="1132.0" y="883"/>
      <point x="1132.0" y="582" type="curve" smooth="yes"/>
      <point x="1132.0" y="281"/>
      <point x="961.0" y="-17"/>
    </contour>
  </outline>
</glyph>
<glyph name="Oslash" format="1">
  <advance width="1240"/>
  <unicode hex="00D8"/>
  <outline>
    <contour>
      <point x="295" y="-172" type="line" smooth="yes"/>
      <point x="273" y="-216"/>
      <point x="212" y="-180"/>
      <point x="229" y="-146" type="curve" smooth="yes"/>
      <point x="972" y="1305" type="line" smooth="yes"/>
      <point x="989" y="1339"/>
      <point x="1053" y="1313"/>
      <point x="1033" y="1274" type="curve" smooth="yes"/>
    </contour>
    <component base="O"/>
  </outline>
</glyph>
